SplineFontDB: 3.0
FontName: OleoScript-Bold
FullName: Oleo Script Bold
FamilyName: Oleo Script
Weight: Bold
Copyright: Copyright (c) 2012, Soytutype (contact@soytutype.com.ar|soytutype@gmail.com), with reserved fontname 'Oleo'
Version: 1.002
ItalicAngle: 0
UnderlinePosition: -50
UnderlineWidth: 50
Ascent: 800
Descent: 200
sfntRevision: 0x00010083
LayerCount: 2
Layer: 0 1 "Back"  1
Layer: 1 1 "Fore"  0
XUID: [1021 734 1268920923 16013197]
FSType: 0
OS2Version: 3
OS2_WeightWidthSlopeOnly: 0
OS2_UseTypoMetrics: 1
CreationTime: 1328574420
ModificationTime: 1352734890
PfmFamily: 17
TTFWeight: 700
TTFWidth: 5
LineGap: 0
VLineGap: 0
Panose: 2 0 0 0 0 0 0 0 0 0
OS2TypoAscent: 1004
OS2TypoAOffset: 0
OS2TypoDescent: -379
OS2TypoDOffset: 0
OS2TypoLinegap: 0
OS2WinAscent: 1004
OS2WinAOffset: 0
OS2WinDescent: 379
OS2WinDOffset: 0
HheadAscent: 1004
HheadAOffset: 0
HheadDescent: -379
HheadDOffset: 0
OS2SubXSize: 650
OS2SubYSize: 600
OS2SubXOff: 0
OS2SubYOff: 75
OS2SupXSize: 650
OS2SupYSize: 600
OS2SupXOff: 0
OS2SupYOff: 350
OS2StrikeYSize: 50
OS2StrikeYPos: 265
OS2Vendor: 'pyrs'
OS2CodePages: 20000093.00000000
OS2UnicodeRanges: 00000023.00000000.00000000.00000000
Lookup: 258 0 0 "'kern' Horizontal Kerning in Latin lookup 0"  {"'kern' Horizontal Kerning in Latin lookup 0 subtable"  } ['kern' ('latn' <'dflt' > ) ]
DEI: 91125
TtTable: prep
PUSHW_1
 511
SCANCTRL
PUSHB_1
 4
SCANTYPE
EndTTInstrs
ShortTable: maxp 16
  1
  0
  246
  92
  5
  0
  0
  2
  0
  1
  1
  0
  64
  0
  0
  0
EndShort
LangName: 1033 "" "" "" "Soytutype: Oleo Script Bold: 2012" "" "Version 1.002" "" "Oleo Script is a trademark of Soytutype." "Soytutype" "Soytutype" "" "www.soytutype.com.ar" "www.soytutype.com.ar" "This Font Software is licensed under the SIL Open Font License, Version 1.1. This license is available with a FAQ at: http://scripts.sil.org/OFL." "http://scripts.sil.org/OFL" 
GaspTable: 1 65535 15 1
Encoding: UnicodeBmp
UnicodeInterp: none
NameList: AGL For New Fonts
DisplaySize: -24
AntiAlias: 1

StartChar: exclam
Encoding: 33 33 4
Width: 334
GlyphClass: 2
Flags: W
LayerCount: 2
Fore
SplineSet
58 6 m 128,-1,1
 35 28 35 28 35 66 c 128,-1,2
 35 104 35 104 66 132.5 c 128,-1,3
 97 161 97 161 140.5 161 c 128,-1,4
 184 161 184 161 207.5 137.5 c 128,-1,5
 231 114 231 114 231 77 c 128,-1,6
 231 40 231 40 199 12 c 128,-1,7
 167 -16 167 -16 124 -16 c 128,-1,0
 81 -16 81 -16 58 6 c 128,-1,1
331 667 m 0,8,9
 331 594 331 594 283.5 426.5 c 128,-1,10
 236 259 236 259 215 223 c 1,11,12
 184 212 184 212 156 212 c 128,-1,13
 128 212 128 212 108 216 c 1,14,15
 134 461 134 461 134 599 c 1,16,-1
 128 686 l 1,17,18
 238 720 238 720 318 720 c 1,19,20
 331 704 331 704 331 667 c 0,8,9
EndSplineSet
EndChar

StartChar: quotedbl
Encoding: 34 34 5
Width: 393
GlyphClass: 2
Flags: W
LayerCount: 2
Fore
SplineSet
148 732 m 0,0,1
 239 732 239 732 239 674 c 0,2,3
 239 645 239 645 209 564 c 128,-1,4
 179 483 179 483 153 427 c 1,5,-1
 91 438 l 1,6,-1
 110 730 l 1,7,8
 136 732 136 732 148 732 c 0,0,1
315 732 m 0,9,10
 406 732 406 732 406 674 c 0,11,12
 406 645 406 645 376 564 c 128,-1,13
 346 483 346 483 320 427 c 1,14,-1
 258 438 l 1,15,-1
 277 730 l 1,16,17
 303 732 303 732 315 732 c 0,9,10
EndSplineSet
EndChar

StartChar: numbersign
Encoding: 35 35 6
Width: 614
GlyphClass: 2
Flags: W
LayerCount: 2
Fore
SplineSet
301 458 m 1,0,1
 317 456 317 456 376 456 c 1,2,3
 388 538 388 538 388 561.5 c 128,-1,4
 388 585 388 585 387 589 c 1,5,6
 463 618 463 618 512 618 c 1,7,8
 517 601 517 601 517 572.5 c 128,-1,9
 517 544 517 544 500 457 c 1,10,11
 564 457 564 457 610 460 c 1,12,13
 613 440 613 440 613 416 c 0,14,15
 613 349 613 349 551 349 c 0,16,17
 524 349 524 349 485 352 c 1,18,19
 482 333 482 333 475.5 299 c 128,-1,20
 469 265 469 265 466 247 c 1,21,22
 518 247 518 247 581 256 c 1,23,24
 584 217 584 217 584 211 c 0,25,26
 584 148 584 148 522 148 c 0,27,28
 479 148 479 148 452 150 c 1,29,30
 439 64 439 64 434 10 c 1,31,32
 405 -11 405 -11 316 -11 c 2,33,-1
 305 -11 l 1,34,35
 306 9 306 9 330 157 c 1,36,37
 321 158 321 158 282 158 c 2,38,-1
 243 158 l 1,39,40
 225 56 225 56 221 14 c 1,41,42
 189 -11 189 -11 115 -11 c 2,43,-1
 94 -11 l 1,44,45
 97 31 97 31 123 156 c 1,46,47
 69 153 69 153 31 143 c 1,48,49
 20 194 20 194 17 251 c 1,50,51
 75 260 75 260 140 260 c 2,52,-1
 143 260 l 1,53,54
 146 274 146 274 153.5 304.5 c 128,-1,55
 161 335 161 335 165 356 c 1,56,57
 89 352 89 352 62 345 c 1,58,59
 45 398 45 398 43 454 c 1,60,61
 105 461 105 461 170 461 c 2,62,-1
 181 461 l 1,63,64
 194 534 194 534 194 559.5 c 128,-1,65
 194 585 194 585 193 589 c 1,66,67
 267 618 267 618 314 618 c 1,68,69
 320 601 320 601 320 579.5 c 128,-1,70
 320 558 320 558 301 458 c 1,0,1
345 255 m 1,71,-1
 364 359 l 1,72,73
 354 360 354 360 304 360 c 2,74,-1
 284 360 l 1,75,76
 280 342 280 342 271.5 309.5 c 128,-1,77
 263 277 263 277 259 258 c 1,78,-1
 345 255 l 1,71,-1
EndSplineSet
EndChar

StartChar: dollar
Encoding: 36 36 7
Width: 505
GlyphClass: 2
Flags: W
LayerCount: 2
Fore
SplineSet
472 178 m 0,0,1
 472 105 472 105 408 52.5 c 128,-1,2
 344 0 344 0 252 -9 c 1,3,4
 246 -49 246 -49 243 -121 c 1,5,6
 204 -121 204 -121 159 -107 c 1,7,-1
 177 -9 l 1,8,9
 109 -1 109 -1 63 30.5 c 128,-1,10
 17 62 17 62 17 90 c 1,11,12
 31 128 31 128 74.5 173.5 c 128,-1,13
 118 219 118 219 156 221 c 1,14,15
 207 200 207 200 243 66 c 1,16,17
 294 68 294 68 294 124 c 0,18,19
 294 165 294 165 262.5 223 c 128,-1,20
 231 281 231 281 193 330 c 128,-1,21
 155 379 155 379 123.5 439.5 c 128,-1,22
 92 500 92 500 92 546 c 0,23,24
 92 619 92 619 159 664.5 c 128,-1,25
 226 710 226 710 313 710 c 2,26,-1
 323 710 l 1,27,28
 329 760 329 760 331 807 c 1,29,30
 368 807 368 807 413 793 c 1,31,-1
 394 697 l 1,32,33
 437 681 437 681 461.5 651 c 128,-1,34
 486 621 486 621 486 589 c 0,35,36
 486 515 486 515 364 417 c 1,37,38
 376 402 376 402 394 376.5 c 128,-1,39
 412 351 412 351 442 287.5 c 128,-1,40
 472 224 472 224 472 178 c 0,0,1
409 584 m 0,41,42
 409 633 409 633 345 633 c 0,43,44
 311 633 311 633 290 618 c 128,-1,45
 269 603 269 603 269 581 c 0,46,47
 269 550 269 550 305 500 c 0,48,49
 312 490 312 490 320 479 c 1,50,51
 345 491 345 491 377 522.5 c 128,-1,52
 409 554 409 554 409 584 c 0,41,42
EndSplineSet
EndChar

StartChar: percent
Encoding: 37 37 8
Width: 864
GlyphClass: 2
Flags: W
LayerCount: 2
Fore
SplineSet
825.5 332.5 m 128,-1,1
 860 293 860 293 860 241 c 128,-1,2
 860 189 860 189 847 146.5 c 128,-1,3
 834 104 834 104 809 66.5 c 128,-1,4
 784 29 784 29 740 6 c 128,-1,5
 696 -17 696 -17 633 -17 c 128,-1,6
 570 -17 570 -17 534 22 c 128,-1,7
 498 61 498 61 498 125 c 0,8,9
 498 235 498 235 559 303.5 c 128,-1,10
 620 372 620 372 718 372 c 0,11,0
 791 372 791 372 825.5 332.5 c 128,-1,1
365.5 692.5 m 128,-1,13
 400 653 400 653 400 601 c 128,-1,14
 400 549 400 549 387 506.5 c 128,-1,15
 374 464 374 464 349 426.5 c 128,-1,16
 324 389 324 389 280 366 c 128,-1,17
 236 343 236 343 173 343 c 128,-1,18
 110 343 110 343 74 382 c 128,-1,19
 38 421 38 421 38 485 c 0,20,21
 38 595 38 595 99 663.5 c 128,-1,22
 160 732 160 732 258 732 c 0,23,12
 331 732 331 732 365.5 692.5 c 128,-1,13
342 -12 m 2,24,25
 268 -12 268 -12 218 19 c 1,26,27
 264 176 264 176 372 369 c 0,28,29
 482 565 482 565 537 735 c 1,30,31
 593 735 593 735 669 709 c 1,32,-1
 676 706 l 1,33,34
 641 605 641 605 573.5 480 c 128,-1,35
 506 355 506 355 444.5 231 c 128,-1,36
 383 107 383 107 351 -12 c 1,37,-1
 342 -12 l 2,24,25
193.5 610.5 m 128,-1,39
 176 545 176 545 176 471.5 c 128,-1,40
 176 398 176 398 200 398 c 0,41,42
 226 398 226 398 244 473.5 c 128,-1,43
 262 549 262 549 262 612.5 c 128,-1,44
 262 676 262 676 241 676 c 0,45,38
 211 676 211 676 193.5 610.5 c 128,-1,39
653.5 250.5 m 128,-1,47
 636 185 636 185 636 111.5 c 128,-1,48
 636 38 636 38 660 38 c 0,49,50
 686 38 686 38 704 113.5 c 128,-1,51
 722 189 722 189 722 252.5 c 128,-1,52
 722 316 722 316 701 316 c 0,53,46
 671 316 671 316 653.5 250.5 c 128,-1,47
EndSplineSet
EndChar

StartChar: ampersand
Encoding: 38 38 9
Width: 786
GlyphClass: 2
Flags: W
LayerCount: 2
Fore
SplineSet
610 385 m 0,0,1
 611 385 611 385 621 385 c 128,-1,2
 631 385 631 385 666 371 c 128,-1,3
 701 357 701 357 711 339 c 1,4,5
 698 317 698 317 662.5 266 c 128,-1,6
 627 215 627 215 598 182 c 1,7,8
 673 98 673 98 698 98 c 0,9,10
 712 98 712 98 741 112 c 1,11,-1
 750 117 l 1,12,-1
 783 68 l 1,13,14
 696 -12 696 -12 604 -12 c 0,15,16
 527 -12 527 -12 471 48 c 1,17,18
 385 -14 385 -14 280 -14 c 128,-1,19
 175 -14 175 -14 116 33 c 128,-1,20
 57 80 57 80 57 159 c 0,21,22
 57 294 57 294 250 397 c 1,23,24
 204 477 204 477 204 547 c 128,-1,25
 204 617 204 617 269.5 662 c 128,-1,26
 335 707 335 707 425 707 c 128,-1,27
 515 707 515 707 558.5 672.5 c 128,-1,28
 602 638 602 638 602 592 c 0,29,30
 602 536 602 536 542 484 c 0,31,32
 504 451 504 451 445 411 c 1,33,34
 474 358 474 358 537 262 c 1,35,36
 561 301 561 301 610 385 c 0,0,1
237 197 m 0,37,38
 237 147 237 147 262 117.5 c 128,-1,39
 287 88 287 88 320 88 c 0,40,41
 340 88 340 88 362.5 96 c 128,-1,42
 385 104 385 104 397 112 c 2,43,-1
 409 121 l 1,44,45
 407 125 407 125 388 153.5 c 128,-1,46
 369 182 369 182 355 204 c 0,47,48
 313 270 313 270 291 314 c 1,49,50
 237 264 237 264 237 197 c 0,37,38
387.5 616.5 m 128,-1,52
 370 601 370 601 370 566 c 128,-1,53
 370 531 370 531 400 483 c 1,54,55
 472 531 472 531 472 583 c 0,56,57
 472 605 472 605 460.5 618.5 c 128,-1,58
 449 632 449 632 427 632 c 128,-1,51
 405 632 405 632 387.5 616.5 c 128,-1,52
EndSplineSet
EndChar

StartChar: quotesingle
Encoding: 39 39 10
Width: 236
GlyphClass: 2
Flags: W
LayerCount: 2
Fore
SplineSet
148 732 m 0,0,1
 239 732 239 732 239 674 c 0,2,3
 239 645 239 645 209 564 c 128,-1,4
 179 483 179 483 153 427 c 1,5,-1
 91 438 l 1,6,-1
 110 730 l 1,7,8
 136 732 136 732 148 732 c 0,0,1
EndSplineSet
EndChar

StartChar: parenleft
Encoding: 40 40 11
Width: 379
GlyphClass: 2
Flags: W
LayerCount: 2
Fore
SplineSet
243.5 212 m 128,-1,1
 236 132 236 132 236 49 c 128,-1,2
 236 -34 236 -34 247.5 -89 c 128,-1,3
 259 -144 259 -144 288 -185 c 1,4,-1
 249 -224 l 1,5,6
 242 -220 242 -220 230.5 -212.5 c 128,-1,7
 219 -205 219 -205 189 -173 c 128,-1,8
 159 -141 159 -141 136 -100.5 c 128,-1,9
 113 -60 113 -60 94.5 12.5 c 128,-1,10
 76 85 76 85 76 184 c 128,-1,11
 76 283 76 283 108 383 c 128,-1,12
 140 483 140 483 184 544.5 c 128,-1,13
 228 606 228 606 275 651 c 128,-1,14
 322 696 322 696 351.5 715 c 128,-1,15
 381 734 381 734 385 734 c 1,16,-1
 416 687 l 1,17,18
 363 639 363 639 325 558 c 128,-1,19
 287 477 287 477 269 384.5 c 128,-1,0
 251 292 251 292 243.5 212 c 128,-1,1
EndSplineSet
EndChar

StartChar: parenright
Encoding: 41 41 12
Width: 403
GlyphClass: 2
Flags: W
LayerCount: 2
Fore
SplineSet
175.5 298 m 128,-1,1
 183 378 183 378 183 461 c 128,-1,2
 183 544 183 544 171.5 599 c 128,-1,3
 160 654 160 654 131 695 c 1,4,-1
 170 734 l 1,5,6
 177 730 177 730 188.5 722.5 c 128,-1,7
 200 715 200 715 230 683 c 128,-1,8
 260 651 260 651 283 610.5 c 128,-1,9
 306 570 306 570 324.5 497.5 c 128,-1,10
 343 425 343 425 343 326 c 128,-1,11
 343 227 343 227 311 127 c 128,-1,12
 279 27 279 27 235 -34.5 c 128,-1,13
 191 -96 191 -96 144 -141 c 128,-1,14
 97 -186 97 -186 67.5 -205 c 128,-1,15
 38 -224 38 -224 34 -224 c 1,16,-1
 3 -177 l 1,17,18
 56 -129 56 -129 94 -48 c 128,-1,19
 132 33 132 33 150 125.5 c 128,-1,0
 168 218 168 218 175.5 298 c 128,-1,1
EndSplineSet
EndChar

StartChar: asterisk
Encoding: 42 42 13
Width: 420
GlyphClass: 2
Flags: W
LayerCount: 2
Fore
SplineSet
319 471 m 0,0,1
 324 469 324 469 339 469 c 128,-1,2
 354 469 354 469 385 478 c 1,3,4
 399 471 399 471 409 448.5 c 128,-1,5
 419 426 419 426 419 411 c 128,-1,6
 419 396 419 396 418 392 c 1,7,8
 389 360 389 360 347 360 c 0,9,10
 335 360 335 360 326 363 c 1,11,12
 310 371 310 371 286.5 410.5 c 128,-1,13
 263 450 263 450 249 491 c 1,14,15
 221 451 221 451 221 436 c 0,16,17
 221 408 221 408 238 378 c 1,18,-1
 243 368 l 1,19,20
 231 350 231 350 207 335 c 128,-1,21
 183 320 183 320 163 320 c 1,22,23
 145 331 145 331 131 352 c 128,-1,24
 117 373 117 373 117 395 c 128,-1,25
 117 417 117 417 147 453.5 c 128,-1,26
 177 490 177 490 213 517 c 1,27,28
 187 525 187 525 175 525 c 128,-1,29
 163 525 163 525 154 523 c 0,30,31
 136 519 136 519 112 495 c 2,32,-1
 104 487 l 1,33,34
 85 490 85 490 61 508 c 128,-1,35
 37 526 37 526 35 548 c 1,36,37
 39 571 39 571 60 592.5 c 128,-1,38
 81 614 81 614 100 614 c 128,-1,39
 119 614 119 614 159 594 c 128,-1,40
 199 574 199 574 229 549 c 1,41,42
 227 595 227 595 217 611 c 1,43,44
 209 630 209 630 178 649 c 2,45,-1
 168 655 l 1,46,47
 168 682 168 682 180 706 c 128,-1,48
 192 730 192 730 208 736 c 1,49,50
 234 736 234 736 258.5 723 c 128,-1,51
 283 710 283 710 290 692 c 1,52,53
 292 682 292 682 292 671 c 0,54,55
 292 604 292 604 272 547 c 1,56,57
 312 568 312 568 320 578 c 1,58,59
 334 599 334 599 338 631 c 1,60,-1
 340 642 l 1,61,62
 366 649 366 649 392.5 649 c 128,-1,63
 419 649 419 649 432 636 c 1,64,65
 441 614 441 614 441 588 c 128,-1,66
 441 562 441 562 426.5 547.5 c 128,-1,67
 412 533 412 533 368.5 520.5 c 128,-1,68
 325 508 325 508 285 505 c 1,69,70
 305 477 305 477 319 471 c 0,0,1
EndSplineSet
EndChar

StartChar: plus
Encoding: 43 43 14
Width: 528
GlyphClass: 2
Flags: W
LayerCount: 2
Fore
SplineSet
310 232 m 1,0,-1
 310 98 l 1,1,2
 273 82 273 82 230 82 c 2,3,-1
 214 82 l 1,4,-1
 214 232 l 1,5,-1
 61 232 l 1,6,7
 61 289 61 289 65 324 c 1,8,-1
 214 324 l 1,9,-1
 214 455 l 1,10,11
 265 469 265 469 309 469 c 1,12,-1
 309 324 l 1,13,-1
 470 324 l 1,14,15
 470 249 470 249 465 232 c 1,16,-1
 310 232 l 1,0,-1
EndSplineSet
EndChar

StartChar: comma
Encoding: 44 44 15
Width: 255
GlyphClass: 2
Flags: W
LayerCount: 2
Fore
SplineSet
203.5 116 m 128,-1,1
 234 83 234 83 234 38.5 c 128,-1,2
 234 -6 234 -6 190 -78.5 c 128,-1,3
 146 -151 146 -151 108 -190 c 1,4,-1
 57 -159 l 1,5,6
 102 -90 102 -90 111 -35 c 1,7,-1
 32 19 l 1,8,9
 32 59 32 59 53.5 98 c 128,-1,10
 75 137 75 137 109 161 c 1,11,0
 173 149 173 149 203.5 116 c 128,-1,1
EndSplineSet
EndChar

StartChar: hyphen
Encoding: 45 45 16
Width: 423
GlyphClass: 2
Flags: W
LayerCount: 2
Fore
SplineSet
51 241 m 1,0,1
 51 299 51 299 58 329 c 1,2,-1
 389 329 l 1,3,4
 389 274 389 274 382 241 c 1,5,-1
 51 241 l 1,0,1
EndSplineSet
EndChar

StartChar: period
Encoding: 46 46 17
Width: 272
GlyphClass: 2
Flags: W
LayerCount: 2
Fore
SplineSet
62.5 11.5 m 128,-1,1
 40 35 40 35 40 73.5 c 128,-1,2
 40 112 40 112 70.5 139.5 c 128,-1,3
 101 167 101 167 143.5 167 c 128,-1,4
 186 167 186 167 208.5 144.5 c 128,-1,5
 231 122 231 122 231 84 c 128,-1,6
 231 46 231 46 200.5 17 c 128,-1,7
 170 -12 170 -12 127.5 -12 c 128,-1,0
 85 -12 85 -12 62.5 11.5 c 128,-1,1
EndSplineSet
EndChar

StartChar: slash
Encoding: 47 47 18
Width: 373
GlyphClass: 2
Flags: W
LayerCount: 2
Fore
SplineSet
396 710 m 1,0,1
 247 343 247 343 76 -112 c 1,2,3
 26 -112 26 -112 -8 -78 c 1,4,5
 140 313 140 313 313 747 c 1,6,7
 347 739 347 739 396 710 c 1,0,1
EndSplineSet
EndChar

StartChar: zero
Encoding: 48 48 19
Width: 617
GlyphClass: 2
Flags: W
LayerCount: 2
Fore
SplineSet
615 457 m 0,0,1
 615 314 615 314 563 200 c 0,2,3
 535 138 535 138 494.5 91.5 c 128,-1,4
 454 45 454 45 393 16.5 c 128,-1,5
 332 -12 332 -12 257 -12 c 0,6,7
 157 -12 157 -12 102.5 63 c 128,-1,8
 48 138 48 138 48 254 c 0,9,10
 48 462 48 462 146 586 c 128,-1,11
 244 710 244 710 408 710 c 0,12,13
 509 710 509 710 562 636 c 128,-1,14
 615 562 615 562 615 457 c 0,0,1
293 65 m 0,15,16
 330 65 330 65 361 146 c 128,-1,17
 392 227 392 227 407 331 c 128,-1,18
 422 435 422 435 422 525 c 0,19,20
 422 634 422 634 377 634 c 0,21,22
 345 634 345 634 318 591 c 128,-1,23
 291 548 291 548 276 484 c 0,24,25
 244 346 244 346 244 205.5 c 128,-1,26
 244 65 244 65 293 65 c 0,15,16
EndSplineSet
EndChar

StartChar: one
Encoding: 49 49 20
Width: 398
GlyphClass: 2
Flags: W
LayerCount: 2
Fore
SplineSet
94 -7 m 2,0,-1
 88 -7 l 1,1,2
 88 78 88 78 115.5 202 c 128,-1,3
 143 326 143 326 170.5 436.5 c 128,-1,4
 198 547 198 547 198 599 c 1,5,6
 134 558 134 558 90 513 c 1,7,8
 71 523 71 523 56 542.5 c 128,-1,9
 41 562 41 562 35 576 c 2,10,-1
 29 590 l 1,11,-1
 206 697 l 1,12,13
 282 710 282 710 380 710 c 1,14,15
 391 683 391 683 391 642 c 128,-1,16
 391 601 391 601 364.5 487.5 c 128,-1,17
 338 374 338 374 311 240.5 c 128,-1,18
 284 107 284 107 284 17 c 1,19,20
 239 -7 239 -7 94 -7 c 2,0,-1
EndSplineSet
EndChar

StartChar: two
Encoding: 50 50 21
Width: 531
GlyphClass: 2
Flags: W
LayerCount: 2
Fore
SplineSet
398 -23 m 0,0,1
 365 -23 365 -23 319 -1 c 128,-1,2
 273 21 273 21 234.5 45 c 128,-1,3
 196 69 196 69 180 71 c 1,4,5
 141 36 141 36 104 12 c 128,-1,6
 67 -12 67 -12 54 -12 c 128,-1,7
 41 -12 41 -12 6.5 24 c 128,-1,8
 -28 60 -28 60 -28 80 c 128,-1,9
 -28 100 -28 100 8 139.5 c 128,-1,10
 44 179 44 179 91 179 c 0,11,12
 107 179 107 179 149 173 c 1,13,14
 217 230 217 230 274.5 327 c 128,-1,15
 332 424 332 424 332 505 c 0,16,17
 332 548 332 548 310 572 c 128,-1,18
 288 596 288 596 255 596 c 128,-1,19
 222 596 222 596 186 573.5 c 128,-1,20
 150 551 150 551 121 508 c 1,21,-1
 61 537 l 1,22,23
 88 604 88 604 159.5 657 c 128,-1,24
 231 710 231 710 326.5 710 c 128,-1,25
 422 710 422 710 476 661 c 128,-1,26
 530 612 530 612 530 540 c 0,27,28
 530 489 530 489 500.5 430 c 128,-1,29
 471 371 471 371 424 318 c 0,30,31
 337 220 337 220 249 151 c 1,32,33
 354 119 354 119 418 119 c 0,34,35
 437 119 437 119 449 129 c 128,-1,36
 461 139 461 139 481 175 c 1,37,-1
 534 157 l 1,38,39
 520 58 520 58 489 18 c 0,40,41
 458 -23 458 -23 398 -23 c 0,0,1
EndSplineSet
EndChar

StartChar: three
Encoding: 51 51 22
Width: 513
GlyphClass: 2
Flags: W
LayerCount: 2
Fore
SplineSet
316 710 m 128,-1,1
 405 710 405 710 457.5 667 c 128,-1,2
 510 624 510 624 510 560 c 128,-1,3
 510 496 510 496 462.5 448 c 128,-1,4
 415 400 415 400 342 384 c 1,5,6
 415 372 415 372 460 328 c 128,-1,7
 505 284 505 284 505 214 c 0,8,9
 505 118 505 118 422 53 c 128,-1,10
 339 -12 339 -12 227 -12 c 0,11,12
 139 -12 139 -12 65.5 26.5 c 128,-1,13
 -8 65 -8 65 -8 130 c 0,14,15
 -8 181 -8 181 21 207 c 1,16,17
 33 209 33 209 51 209 c 0,18,19
 133 209 133 209 182 169 c 1,20,-1
 169 66 l 1,21,22
 180 55 180 55 204 55 c 0,23,24
 249 55 249 55 279 105.5 c 128,-1,25
 309 156 309 156 309 222.5 c 128,-1,26
 309 289 309 289 279.5 317 c 128,-1,27
 250 345 250 345 187 345 c 1,28,-1
 147 343 l 1,29,-1
 152 407 l 1,30,31
 215 412 215 412 250 431 c 0,32,33
 321 470 321 470 321 539 c 0,34,35
 321 575 321 575 301.5 594.5 c 128,-1,36
 282 614 282 614 252.5 614 c 128,-1,37
 223 614 223 614 189.5 592 c 128,-1,38
 156 570 156 570 130 530 c 1,39,-1
 70 558 l 1,40,41
 101 625 101 625 164 667.5 c 128,-1,0
 227 710 227 710 316 710 c 128,-1,1
EndSplineSet
EndChar

StartChar: four
Encoding: 52 52 23
Width: 581
GlyphClass: 2
Flags: W
LayerCount: 2
Fore
SplineSet
486 130 m 0,0,1
 460 130 460 130 436 134 c 1,2,3
 427 70 427 70 427 21 c 1,4,5
 377 -5 377 -5 239 -5 c 2,6,-1
 226 -5 l 1,7,8
 226 48 226 48 252 171 c 1,9,10
 213 176 213 176 162 176 c 128,-1,11
 111 176 111 176 75.5 166 c 128,-1,12
 40 156 40 156 38 156 c 0,13,14
 23 156 23 156 3 178.5 c 128,-1,15
 -17 201 -17 201 -17.5 217 c 128,-1,16
 -18 233 -18 233 -6 250 c 0,17,18
 216 562 216 562 315 693 c 1,19,20
 393 707 393 707 516 710 c 1,21,22
 531 690 531 690 531 653 c 128,-1,23
 531 616 531 616 521.5 564 c 128,-1,24
 512 512 512 512 491 420.5 c 128,-1,25
 470 329 470 329 460 278 c 1,26,27
 484 276 484 276 505.5 276 c 128,-1,28
 527 276 527 276 537 291 c 2,29,-1
 553 318 l 1,30,-1
 605 299 l 1,31,32
 586 197 586 197 561 165 c 0,33,34
 534 130 534 130 486 130 c 0,0,1
146 296 m 1,35,36
 157 297 157 297 184.5 297 c 128,-1,37
 212 297 212 297 278 293 c 1,38,39
 339 530 339 530 340 596 c 1,40,41
 253 489 253 489 146 296 c 1,35,36
EndSplineSet
EndChar

StartChar: five
Encoding: 53 53 24
Width: 515
GlyphClass: 2
Flags: W
LayerCount: 2
Fore
SplineSet
218 699 m 1,0,-1
 424 709 l 1,1,2
 489 709 489 709 535 688 c 1,3,4
 541 675 541 675 541 652 c 0,5,6
 541 607 541 607 516 550 c 1,7,-1
 507 531 l 1,8,9
 446 562 446 562 402.5 562 c 128,-1,10
 359 562 359 562 214 555 c 1,11,12
 202 511 202 511 194 463 c 1,13,14
 331 456 331 456 416 402 c 128,-1,15
 501 348 501 348 501 240.5 c 128,-1,16
 501 133 501 133 419.5 59 c 128,-1,17
 338 -15 338 -15 223 -15 c 0,18,19
 139 -15 139 -15 72 25.5 c 128,-1,20
 5 66 5 66 5 132 c 0,21,22
 5 175 5 175 24 206 c 1,23,24
 44 209 44 209 58 209 c 0,25,26
 144 209 144 209 192 161 c 1,27,-1
 176 62 l 1,28,29
 192 51 192 51 206 51 c 0,30,31
 252 51 252 51 279.5 106.5 c 128,-1,32
 307 162 307 162 307 240.5 c 128,-1,33
 307 319 307 319 260.5 357.5 c 128,-1,34
 214 396 214 396 132 396 c 1,35,-1
 103 398 l 1,36,-1
 79 430 l 1,37,38
 89 465 89 465 109.5 562 c 128,-1,39
 130 659 130 659 142 702 c 1,40,41
 173 699 173 699 218 699 c 1,0,-1
EndSplineSet
EndChar

StartChar: six
Encoding: 54 54 25
Width: 585
GlyphClass: 2
Flags: W
LayerCount: 2
Fore
SplineSet
391 637 m 0,0,1
 345 637 345 637 312 572 c 128,-1,2
 279 507 279 507 262 401 c 1,3,4
 316 424 316 424 370 424 c 0,5,6
 453 424 453 424 509.5 375 c 128,-1,7
 566 326 566 326 566 232.5 c 128,-1,8
 566 139 566 139 485.5 63.5 c 128,-1,9
 405 -12 405 -12 286 -12 c 0,10,11
 48 -12 48 -12 48 253 c 0,12,13
 48 442 48 442 147.5 576 c 128,-1,14
 247 710 247 710 397 710 c 0,15,16
 481 710 481 710 533.5 677 c 128,-1,17
 586 644 586 644 586 575 c 0,18,19
 586 533 586 533 556 503 c 1,20,21
 538 500 538 500 527 500 c 0,22,23
 442 500 442 500 396 545 c 1,24,-1
 411 630 l 1,25,26
 409 637 409 637 391 637 c 0,0,1
353.5 313.5 m 128,-1,28
 340 340 340 340 309 340 c 128,-1,29
 278 340 278 340 251 322 c 1,30,31
 242 266 242 266 242 204 c 0,32,33
 242 64 242 64 289 64 c 0,34,35
 327 64 327 64 347 116.5 c 128,-1,36
 367 169 367 169 367 228 c 128,-1,27
 367 287 367 287 353.5 313.5 c 128,-1,28
EndSplineSet
EndChar

StartChar: seven
Encoding: 55 55 26
Width: 460
GlyphClass: 2
Flags: W
LayerCount: 2
Fore
SplineSet
106 -7 m 2,0,-1
 81 -7 l 1,1,2
 91 74 91 74 115 147 c 0,3,4
 161 282 161 282 335 541 c 1,5,6
 224 550 224 550 222 550 c 0,7,8
 137 550 137 550 77 518 c 1,9,10
 53 584 53 584 53 643 c 1,11,-1
 58 690 l 1,12,13
 107 709 107 709 189 709 c 0,14,15
 224 709 224 709 292 701.5 c 128,-1,16
 360 694 360 694 407.5 694 c 128,-1,17
 455 694 455 694 511 702 c 1,18,-1
 528 656 l 1,19,-1
 482 588 l 1,20,21
 384 431 384 431 331.5 268.5 c 128,-1,22
 279 106 279 106 279 19 c 1,23,24
 267 10 267 10 209 1.5 c 128,-1,25
 151 -7 151 -7 106 -7 c 2,0,-1
EndSplineSet
EndChar

StartChar: eight
Encoding: 56 56 27
Width: 513
GlyphClass: 2
Flags: W
LayerCount: 2
Fore
SplineSet
231 -12 m 0,0,1
 148 -12 148 -12 92.5 31 c 128,-1,2
 37 74 37 74 37 141 c 0,3,4
 37 244 37 244 199 362 c 1,5,6
 119 471 119 471 119 542.5 c 128,-1,7
 119 614 119 614 186.5 661.5 c 128,-1,8
 254 709 254 709 334.5 709 c 128,-1,9
 415 709 415 709 465.5 676 c 128,-1,10
 516 643 516 643 516 575 c 0,11,12
 516 493 516 493 405 392 c 1,13,14
 454 326 454 326 477 281 c 128,-1,15
 500 236 500 236 500 196 c 0,16,17
 500 103 500 103 419 45.5 c 128,-1,18
 338 -12 338 -12 231 -12 c 0,0,1
157 146 m 0,19,20
 157 106 157 106 181 85 c 128,-1,21
 205 64 205 64 237.5 64 c 128,-1,22
 270 64 270 64 295.5 82.5 c 128,-1,23
 321 101 321 101 321 132 c 0,24,25
 321 179 321 179 246 289 c 1,26,27
 157 219 157 219 157 146 c 0,19,20
300 582 m 0,28,29
 300 537 300 537 354 460 c 1,30,31
 381 483 381 483 398.5 516.5 c 128,-1,32
 416 550 416 550 416 578.5 c 128,-1,33
 416 607 416 607 399.5 620.5 c 128,-1,34
 383 634 383 634 360.5 634 c 128,-1,35
 338 634 338 634 319 621.5 c 128,-1,36
 300 609 300 609 300 582 c 0,28,29
EndSplineSet
EndChar

StartChar: nine
Encoding: 57 57 28
Width: 560
GlyphClass: 2
Flags: W
LayerCount: 2
Fore
SplineSet
71 147 m 1,0,1
 138 87 138 87 198 87 c 0,2,3
 324 87 324 87 349 287 c 1,4,5
 292 268 292 268 238 268 c 0,6,7
 146 268 146 268 94.5 322 c 128,-1,8
 43 376 43 376 43 461 c 0,9,10
 43 568 43 568 121 639 c 128,-1,11
 199 710 199 710 318 710 c 0,12,13
 558 710 558 710 558 430 c 0,14,15
 558 316 558 316 521 216.5 c 128,-1,16
 484 117 484 117 408.5 52.5 c 128,-1,17
 333 -12 333 -12 234 -12 c 0,18,19
 96 -12 96 -12 23 98 c 1,20,-1
 71 147 l 1,0,1
301 355 m 0,21,22
 329 355 329 355 356 373 c 1,23,24
 365 429 365 429 365 494 c 0,25,26
 365 634 365 634 315 634 c 0,27,28
 281 634 281 634 260.5 579.5 c 128,-1,29
 240 525 240 525 240 460 c 0,30,31
 240 355 240 355 301 355 c 0,21,22
EndSplineSet
EndChar

StartChar: colon
Encoding: 58 58 29
Width: 341
GlyphClass: 2
Flags: W
LayerCount: 2
Fore
SplineSet
120.5 287.5 m 128,-1,1
 98 311 98 311 98 349.5 c 128,-1,2
 98 388 98 388 128.5 415.5 c 128,-1,3
 159 443 159 443 201.5 443 c 128,-1,4
 244 443 244 443 266.5 420.5 c 128,-1,5
 289 398 289 398 289 360 c 128,-1,6
 289 322 289 322 258.5 293 c 128,-1,7
 228 264 228 264 185.5 264 c 128,-1,0
 143 264 143 264 120.5 287.5 c 128,-1,1
84.5 11.5 m 128,-1,9
 62 35 62 35 62 73.5 c 128,-1,10
 62 112 62 112 92.5 139.5 c 128,-1,11
 123 167 123 167 165.5 167 c 128,-1,12
 208 167 208 167 230.5 144.5 c 128,-1,13
 253 122 253 122 253 84 c 128,-1,14
 253 46 253 46 222.5 17 c 128,-1,15
 192 -12 192 -12 149.5 -12 c 128,-1,8
 107 -12 107 -12 84.5 11.5 c 128,-1,9
EndSplineSet
EndChar

StartChar: semicolon
Encoding: 59 59 30
Width: 341
GlyphClass: 2
Flags: W
LayerCount: 2
Fore
SplineSet
225.5 116 m 128,-1,1
 256 83 256 83 256 38.5 c 128,-1,2
 256 -6 256 -6 212 -78.5 c 128,-1,3
 168 -151 168 -151 130 -190 c 1,4,-1
 79 -159 l 1,5,6
 124 -90 124 -90 133 -35 c 1,7,-1
 54 19 l 1,8,9
 54 59 54 59 75.5 98 c 128,-1,10
 97 137 97 137 131 161 c 1,11,0
 195 149 195 149 225.5 116 c 128,-1,1
118.5 287.5 m 128,-1,13
 96 311 96 311 96 349.5 c 128,-1,14
 96 388 96 388 126.5 415.5 c 128,-1,15
 157 443 157 443 199.5 443 c 128,-1,16
 242 443 242 443 264.5 420.5 c 128,-1,17
 287 398 287 398 287 360 c 128,-1,18
 287 322 287 322 256.5 293 c 128,-1,19
 226 264 226 264 183.5 264 c 128,-1,12
 141 264 141 264 118.5 287.5 c 128,-1,13
EndSplineSet
EndChar

StartChar: less
Encoding: 60 60 31
Width: 446
GlyphClass: 2
Flags: W
LayerCount: 2
Fore
SplineSet
187 278 m 1,0,-1
 419 187 l 1,1,2
 419 135 419 135 404 87 c 1,3,-1
 37 245 l 1,4,-1
 37 309 l 1,5,-1
 403 485 l 1,6,7
 419 438 419 438 419 385 c 1,8,-1
 187 278 l 1,0,-1
EndSplineSet
EndChar

StartChar: equal
Encoding: 61 61 32
Width: 512
GlyphClass: 2
Flags: W
LayerCount: 2
Fore
SplineSet
82 152 m 1,0,1
 82 205 82 205 91 244 c 1,2,-1
 448 244 l 1,3,4
 448 182 448 182 442 152 c 1,5,-1
 82 152 l 1,0,1
82 305 m 1,6,7
 82 355 82 355 91 397 c 1,8,-1
 448 397 l 1,9,10
 448 342 448 342 443 305 c 1,11,-1
 82 305 l 1,6,7
EndSplineSet
EndChar

StartChar: greater
Encoding: 62 62 33
Width: 430
GlyphClass: 2
Flags: W
LayerCount: 2
Fore
SplineSet
52 187 m 1,0,-1
 283 278 l 1,1,-1
 52 385 l 1,2,3
 52 425 52 425 72 483 c 1,4,-1
 434 309 l 1,5,-1
 434 245 l 1,6,-1
 67 87 l 1,7,8
 52 135 52 135 52 187 c 1,0,-1
EndSplineSet
EndChar

StartChar: question
Encoding: 63 63 34
Width: 407
GlyphClass: 2
Flags: W
LayerCount: 2
Fore
SplineSet
264 283 m 0,0,1
 264 273 264 273 285 266 c 0,2,3
 288 265 288 265 295.5 262 c 128,-1,4
 303 259 303 259 308.5 257.5 c 128,-1,5
 314 256 314 256 317 255 c 1,6,7
 310 224 310 224 294 202 c 1,8,9
 207 202 207 202 154.5 232.5 c 128,-1,10
 102 263 102 263 102 321 c 0,11,12
 102 358 102 358 140 409 c 0,13,14
 154 427 154 427 180 459 c 0,15,16
 281 583 281 583 281 618 c 0,17,18
 281 636 281 636 249 636 c 1,19,20
 208 564 208 564 171 529 c 1,21,22
 136 534 136 534 92.5 569.5 c 128,-1,23
 49 605 49 605 49 625.5 c 128,-1,24
 49 646 49 646 95 678 c 128,-1,25
 141 710 141 710 204 710 c 0,26,27
 299 710 299 710 354.5 661.5 c 128,-1,28
 410 613 410 613 410 538 c 0,29,30
 410 508 410 508 393.5 472.5 c 128,-1,31
 377 437 377 437 363.5 418 c 128,-1,32
 350 399 350 399 323 367 c 1,33,34
 264 302 264 302 264 283 c 0,0,1
95.5 10 m 128,-1,36
 71 32 71 32 71 68 c 128,-1,37
 71 104 71 104 103.5 130 c 128,-1,38
 136 156 136 156 180.5 156 c 128,-1,39
 225 156 225 156 246 134 c 128,-1,40
 267 112 267 112 267 78 c 128,-1,41
 267 44 267 44 237.5 16 c 128,-1,42
 208 -12 208 -12 164 -12 c 128,-1,35
 120 -12 120 -12 95.5 10 c 128,-1,36
EndSplineSet
EndChar

StartChar: at
Encoding: 64 64 35
Width: 832
GlyphClass: 2
Flags: W
LayerCount: 2
Fore
SplineSet
548 8 m 1,0,1
 465 -23 465 -23 386 -23 c 128,-1,2
 307 -23 307 -23 239 4.5 c 128,-1,3
 171 32 171 32 130 78 c 0,4,5
 45 173 45 173 45 304 c 0,6,7
 45 385 45 385 76 459.5 c 128,-1,8
 107 534 107 534 162 591 c 128,-1,9
 217 648 217 648 300 681.5 c 128,-1,10
 383 715 383 715 480 715 c 0,11,12
 635 715 635 715 727.5 636 c 128,-1,13
 820 557 820 557 820 434 c 0,14,15
 820 363 820 363 791.5 305 c 128,-1,16
 763 247 763 247 722 214 c 0,17,18
 638 148 638 148 575 148 c 0,19,20
 527 148 527 148 502 193 c 1,21,22
 437 148 437 148 388 148 c 128,-1,23
 339 148 339 148 299.5 186.5 c 128,-1,24
 260 225 260 225 260 311 c 0,25,26
 260 422 260 422 317 488.5 c 128,-1,27
 374 555 374 555 469 555 c 0,28,29
 534 555 534 555 633 518 c 1,30,31
 605 398 605 398 605 251 c 0,32,33
 605 226 605 226 614 226 c 0,34,35
 626 226 626 226 646 246 c 128,-1,36
 666 266 666 266 684.5 315.5 c 128,-1,37
 703 365 703 365 703 418.5 c 128,-1,38
 703 472 703 472 691 509.5 c 128,-1,39
 679 547 679 547 654 579 c 0,40,41
 602 647 602 647 483 647 c 0,42,43
 413 647 413 647 355 619 c 128,-1,44
 297 591 297 591 260 544 c 0,45,46
 183 448 183 448 183 327 c 128,-1,47
 183 206 183 206 239.5 128 c 128,-1,48
 296 50 296 50 401 50 c 0,49,50
 464 50 464 50 518 76 c 1,51,52
 538 48 538 48 546 18 c 1,53,-1
 548 8 l 1,0,1
428 232 m 0,54,55
 439 232 439 232 453.5 241.5 c 128,-1,56
 468 251 468 251 474 261 c 1,57,58
 485 420 485 420 500 481 c 1,59,60
 488 489 488 489 473 489 c 0,61,62
 438 489 438 489 419.5 442 c 128,-1,63
 401 395 401 395 401 313.5 c 128,-1,64
 401 232 401 232 428 232 c 0,54,55
EndSplineSet
EndChar

StartChar: A
Encoding: 65 65 36
Width: 611
GlyphClass: 2
Flags: W
LayerCount: 2
Fore
SplineSet
95 13 m 0,0,1
 88 -9 88 -9 48.5 -9 c 128,-1,2
 9 -9 9 -9 -30 18 c 1,3,4
 1 102 1 102 93.5 297.5 c 128,-1,5
 186 493 186 493 217 589 c 0,6,7
 220 601 220 601 220 609.5 c 128,-1,8
 220 618 220 618 213 633 c 128,-1,9
 206 648 206 648 198 657 c 2,10,-1
 191 666 l 1,11,-1
 195 686 l 1,12,13
 284 710 284 710 406 710 c 1,14,-1
 483 706 l 1,15,16
 493 697 493 697 503 659 c 128,-1,17
 513 621 513 621 516 545 c 128,-1,18
 519 469 519 469 520 260 c 0,19,20
 521 99 521 99 560 99 c 0,21,22
 570 99 570 99 603 109 c 2,23,-1
 613 112 l 1,24,-1
 634 55 l 1,25,26
 593 24 593 24 538 6 c 128,-1,27
 483 -12 483 -12 439 -12 c 0,28,29
 375 -12 375 -12 351.5 27.5 c 128,-1,30
 328 67 328 67 328 129.5 c 128,-1,31
 328 192 328 192 329 216 c 1,32,33
 310 220 310 220 255 220 c 128,-1,34
 200 220 200 220 160 209 c 1,35,36
 123 110 123 110 95 13 c 0,0,1
333 300 m 1,37,38
 338 387 338 387 338 475 c 128,-1,39
 338 563 338 563 328 603 c 1,40,41
 318 603 318 603 314 601 c 1,42,43
 292 534 292 534 196 300 c 1,44,-1
 333 300 l 1,37,38
EndSplineSet
EndChar

StartChar: B
Encoding: 66 66 37
Width: 631
GlyphClass: 2
Flags: W
LayerCount: 2
Fore
SplineSet
366 -12 m 0,0,1
 286 -12 286 -12 206 16 c 1,2,3
 148 -6 148 -6 72 -6 c 0,4,5
 55 -6 55 -6 41 -4 c 1,6,7
 41 56 41 56 96 292 c 128,-1,8
 151 528 151 528 151 559 c 128,-1,9
 151 590 151 590 139.5 614 c 128,-1,10
 128 638 128 638 116 650 c 2,11,-1
 105 661 l 1,12,-1
 109 686 l 1,13,14
 134 691 134 691 224.5 700.5 c 128,-1,15
 315 710 315 710 378 710 c 0,16,17
 622 710 622 710 622 553 c 0,18,19
 622 480 622 480 572.5 434 c 128,-1,20
 523 388 523 388 450 372 c 1,21,22
 519 364 519 364 566 322.5 c 128,-1,23
 613 281 613 281 613 205 c 0,24,25
 613 111 613 111 543 49.5 c 128,-1,26
 473 -12 473 -12 366 -12 c 0,0,1
332 338 m 0,27,28
 314 338 314 338 292 335 c 1,29,30
 253 164 253 164 242 87 c 1,31,32
 264 74 264 74 302 74 c 0,33,34
 360 74 360 74 389 122 c 128,-1,35
 418 170 418 170 418 230.5 c 128,-1,36
 418 291 418 291 396.5 314.5 c 128,-1,37
 375 338 375 338 332 338 c 0,27,28
319 411 m 2,38,39
 363 411 363 411 388 444 c 0,40,41
 433 501 433 501 433 570.5 c 128,-1,42
 433 640 433 640 385 640 c 1,43,-1
 352 636 l 1,44,45
 351 597 351 597 310 411 c 1,46,-1
 319 411 l 2,38,39
EndSplineSet
EndChar

StartChar: C
Encoding: 67 67 38
Width: 578
GlyphClass: 2
Flags: W
LayerCount: 2
Fore
SplineSet
290 -12 m 0,0,1
 182 -12 182 -12 115 66 c 128,-1,2
 48 144 48 144 48 285 c 0,3,4
 48 398 48 398 91.5 494.5 c 128,-1,5
 135 591 135 591 217.5 650.5 c 128,-1,6
 300 710 300 710 395.5 710 c 128,-1,7
 491 710 491 710 553.5 672 c 128,-1,8
 616 634 616 634 616 572.5 c 128,-1,9
 616 511 616 511 582 475 c 1,10,11
 542 475 542 475 490 491 c 128,-1,12
 438 507 438 507 412 530 c 1,13,-1
 431 627 l 1,14,15
 410 637 410 637 390 637 c 0,16,17
 332 637 332 637 288 536.5 c 128,-1,18
 244 436 244 436 244 301 c 0,19,20
 244 99 244 99 358 99 c 0,21,22
 426 99 426 99 510 173 c 1,23,-1
 557 126 l 1,24,25
 549 113 549 113 516 83.5 c 128,-1,26
 483 54 483 54 453.5 36 c 128,-1,27
 424 18 424 18 379.5 3 c 128,-1,28
 335 -12 335 -12 290 -12 c 0,0,1
EndSplineSet
EndChar

StartChar: D
Encoding: 68 68 39
Width: 681
GlyphClass: 2
Flags: W
LayerCount: 2
Fore
SplineSet
339 -12 m 0,0,1
 272 -12 272 -12 213 14 c 1,2,3
 162 -5 162 -5 103.5 -5 c 128,-1,4
 45 -5 45 -5 41 -4 c 1,5,6
 41 65 41 65 96 294.5 c 128,-1,7
 151 524 151 524 151 555.5 c 128,-1,8
 151 587 151 587 139.5 612 c 128,-1,9
 128 637 128 637 116 650 c 2,10,-1
 105 662 l 1,11,-1
 108 685 l 1,12,13
 137 692 137 692 224.5 701 c 128,-1,14
 312 710 312 710 376 710 c 0,15,16
 530 710 530 710 604.5 646.5 c 128,-1,17
 679 583 679 583 679 443 c 0,18,19
 679 334 679 334 639.5 231.5 c 128,-1,20
 600 129 600 129 520 58.5 c 128,-1,21
 440 -12 440 -12 339 -12 c 0,0,1
390 639 m 0,22,23
 372 639 372 639 351 636 c 1,24,25
 348 578 348 578 300 369.5 c 128,-1,26
 252 161 252 161 241 84 c 1,27,28
 259 75 259 75 284 75 c 0,29,30
 337 75 337 75 378.5 123 c 128,-1,31
 420 171 420 171 442 243 c 0,32,33
 485 389 485 389 485 508 c 0,34,35
 485 580 485 580 463.5 609.5 c 128,-1,36
 442 639 442 639 390 639 c 0,22,23
EndSplineSet
EndChar

StartChar: E
Encoding: 69 69 40
Width: 545
GlyphClass: 2
Flags: W
LayerCount: 2
Fore
SplineSet
270 -13 m 0,0,1
 144 -13 144 -13 76 68 c 0,2,3
 39 112 39 112 39 175 c 0,4,5
 39 260 39 260 99 314.5 c 128,-1,6
 159 369 159 369 241 378 c 1,7,8
 115 412 115 412 115 523 c 0,9,10
 115 609 115 609 189 659.5 c 128,-1,11
 263 710 263 710 357.5 710 c 128,-1,12
 452 710 452 710 515 671 c 128,-1,13
 578 632 578 632 578 568 c 0,14,15
 578 531 578 531 558 498 c 2,16,-1
 551 487 l 1,17,18
 510 487 510 487 463 499.5 c 128,-1,19
 416 512 416 512 392 532 c 1,20,-1
 402 634 l 1,21,22
 387 641 387 641 372 641 c 0,23,24
 341 641 341 641 324.5 608 c 128,-1,25
 308 575 308 575 308 531 c 128,-1,26
 308 487 308 487 317.5 461 c 128,-1,27
 327 435 327 435 347.5 421.5 c 128,-1,28
 368 408 368 408 383.5 402.5 c 128,-1,29
 399 397 399 397 427 391 c 1,30,-1
 419 333 l 1,31,32
 350 333 350 333 292 294 c 128,-1,33
 234 255 234 255 234 189 c 0,34,35
 234 142 234 142 264 120.5 c 128,-1,36
 294 99 294 99 335.5 99 c 128,-1,37
 377 99 377 99 423 120 c 128,-1,38
 469 141 469 141 502 173 c 1,39,-1
 547 128 l 1,40,41
 504 69 504 69 428 28 c 128,-1,42
 352 -13 352 -13 270 -13 c 0,0,1
EndSplineSet
EndChar

StartChar: F
Encoding: 70 70 41
Width: 517
GlyphClass: 2
Flags: W
LayerCount: 2
Fore
SplineSet
258 705 m 1,0,-1
 494 699 l 1,1,2
 545 699 545 699 573 701 c 1,3,4
 576 683 576 683 576 657 c 128,-1,5
 576 631 576 631 562 617 c 128,-1,6
 548 603 548 603 513 603 c 1,7,-1
 360 615 l 1,8,9
 345 615 345 615 335 614 c 1,10,11
 333 576 333 576 293 392 c 1,12,13
 350 397 350 397 407 397 c 128,-1,14
 464 397 464 397 490 388 c 1,15,16
 486 342 486 342 471 314 c 2,17,-1
 466 304 l 1,18,19
 438 313 438 313 380.5 313 c 128,-1,20
 323 313 323 313 275 309 c 1,21,22
 238 130 238 130 238 34 c 2,23,-1
 238 20 l 1,24,25
 185 -6 185 -6 52 -6 c 2,26,-1
 41 -6 l 1,27,28
 41 82 41 82 85 290 c 128,-1,29
 129 498 129 498 138 581 c 1,30,31
 138 601 138 601 127 622.5 c 128,-1,32
 116 644 116 644 105 656 c 2,33,-1
 94 667 l 1,34,-1
 96 690 l 1,35,36
 170 705 170 705 258 705 c 1,0,-1
EndSplineSet
EndChar

StartChar: G
Encoding: 71 71 42
Width: 610
GlyphClass: 2
Flags: W
LayerCount: 2
Fore
SplineSet
229 -224 m 0,0,1
 172 -224 172 -224 133.5 -199.5 c 128,-1,2
 95 -175 95 -175 95 -127 c 0,3,4
 95 -99 95 -99 108 -78 c 128,-1,5
 121 -57 121 -57 135 -46 c 128,-1,6
 149 -35 149 -35 160.5 -27 c 128,-1,7
 172 -19 172 -19 191 -11 c 128,-1,8
 210 -3 210 -3 222 1.5 c 128,-1,9
 234 6 234 6 254.5 12 c 128,-1,10
 275 18 275 18 284 20.5 c 128,-1,11
 293 23 293 23 312 27 c 128,-1,12
 331 31 331 31 333 32 c 1,13,14
 338 47 338 47 343 67 c 1,15,16
 301 54 301 54 264 54 c 0,17,18
 175 54 175 54 111.5 120.5 c 128,-1,19
 48 187 48 187 48 311 c 0,20,21
 48 412 48 412 91 502.5 c 128,-1,22
 134 593 134 593 217.5 651.5 c 128,-1,23
 301 710 301 710 400 710 c 128,-1,24
 499 710 499 710 563.5 664.5 c 128,-1,25
 628 619 628 619 628 549 c 0,26,27
 628 517 628 517 611 480 c 1,28,29
 597 478 597 478 575 478 c 0,30,31
 481 478 481 478 431 515 c 1,32,-1
 431 624 l 1,33,34
 415 637 415 637 390 637 c 0,35,36
 330 637 330 637 287 548 c 128,-1,37
 244 459 244 459 244 332 c 0,38,39
 244 157 244 157 335 157 c 0,40,41
 387 157 387 157 434 211 c 128,-1,42
 481 265 481 265 506 347 c 1,43,-1
 572 337 l 1,44,45
 544 59 544 59 454.5 -82.5 c 128,-1,46
 365 -224 365 -224 229 -224 c 0,0,1
178 -111 m 0,47,48
 178 -121 178 -121 186 -128.5 c 128,-1,49
 194 -136 194 -136 209 -136 c 0,50,51
 266 -136 266 -136 310 -45 c 1,52,-1
 311 -42 l 1,53,54
 245 -52 245 -52 211.5 -70.5 c 128,-1,55
 178 -89 178 -89 178 -111 c 0,47,48
EndSplineSet
EndChar

StartChar: H
Encoding: 72 72 43
Width: 712
GlyphClass: 2
Flags: W
LayerCount: 2
Fore
SplineSet
438 14 m 128,-1,1
 407 40 407 40 407 89 c 128,-1,2
 407 138 407 138 449 310 c 1,3,4
 419 317 419 317 377 317 c 128,-1,5
 335 317 335 317 288 305 c 1,6,7
 241 102 241 102 239 23 c 1,8,9
 195 -3 195 -3 60 -3 c 2,10,-1
 41 -3 l 1,11,12
 41 54 41 54 98 285 c 128,-1,13
 155 516 155 516 155 587 c 0,14,15
 155 604 155 604 144.5 624.5 c 128,-1,16
 134 645 134 645 123 657 c 2,17,-1
 112 669 l 1,18,-1
 114 689 l 1,19,20
 181 710 181 710 338 710 c 1,21,22
 354 688 354 688 354 642 c 128,-1,23
 354 596 354 596 309 397 c 1,24,-1
 469 397 l 1,25,26
 506 554 506 554 506 646 c 0,27,28
 506 664 506 664 505 675 c 1,29,30
 603 710 603 710 694 710 c 1,31,32
 701 703 701 703 701 659.5 c 128,-1,33
 701 616 701 616 651.5 399 c 128,-1,34
 602 182 602 182 602 120 c 0,35,36
 602 99 602 99 615 99 c 0,37,38
 640 99 640 99 669 112 c 1,39,-1
 691 56 l 1,40,41
 655 25 655 25 605.5 6.5 c 128,-1,42
 556 -12 556 -12 512.5 -12 c 128,-1,0
 469 -12 469 -12 438 14 c 128,-1,1
EndSplineSet
EndChar

StartChar: I
Encoding: 73 73 44
Width: 361
GlyphClass: 2
Flags: W
LayerCount: 2
Fore
SplineSet
245 127 m 0,0,1
 245 99 245 99 258 99 c 0,2,3
 280 99 280 99 312 112 c 1,4,-1
 334 56 l 1,5,6
 242 -12 242 -12 156 -12 c 0,7,8
 106 -12 106 -12 76.5 16.5 c 128,-1,9
 47 45 47 45 47 97 c 128,-1,10
 47 149 47 149 98 332.5 c 128,-1,11
 149 516 149 516 154 588 c 1,12,13
 154 605 154 605 143 625 c 128,-1,14
 132 645 132 645 122 657 c 2,15,-1
 111 669 l 1,16,-1
 113 689 l 1,17,18
 176 710 176 710 336 710 c 1,19,20
 352 680 352 680 352 646 c 0,21,22
 352 588 352 588 298.5 393 c 128,-1,23
 245 198 245 198 245 127 c 0,0,1
EndSplineSet
EndChar

StartChar: J
Encoding: 74 74 45
Width: 437
GlyphClass: 2
Flags: W
LayerCount: 2
Fore
SplineSet
195 709 m 2,0,-1
 408 707 l 1,1,-1
 501 709 l 1,2,3
 503 687 503 687 503 662 c 128,-1,4
 503 637 503 637 492.5 627.5 c 128,-1,5
 482 618 482 618 454.5 618 c 128,-1,6
 427 618 427 618 410 619 c 1,7,8
 372 228 372 228 335 126 c 0,9,10
 303 36 303 36 248 6 c 0,11,12
 214 -13 214 -13 166.5 -13 c 128,-1,13
 119 -13 119 -13 66 14.5 c 128,-1,14
 13 42 13 42 -18 79 c 1,15,-1
 18 130 l 1,16,17
 30 121 30 121 55.5 108.5 c 128,-1,18
 81 96 81 96 99.5 96 c 128,-1,19
 118 96 118 96 134 116 c 0,20,21
 170 163 170 163 197 370 c 0,22,23
 216 512 216 512 216 609 c 2,24,-1
 216 626 l 1,25,26
 147 624 147 624 112 613 c 1,27,28
 98 655 98 655 96 698 c 1,29,30
 118 709 118 709 195 709 c 2,0,-1
EndSplineSet
EndChar

StartChar: K
Encoding: 75 75 46
Width: 652
GlyphClass: 2
Flags: W
LayerCount: 2
Fore
SplineSet
237 20 m 1,0,1
 189 -6 189 -6 97 -6 c 0,2,3
 68 -6 68 -6 41 -2 c 1,4,5
 41 51 41 51 96.5 276 c 128,-1,6
 152 501 152 501 152 579 c 0,7,8
 152 599 152 599 142 621.5 c 128,-1,9
 132 644 132 644 122 656 c 2,10,-1
 111 669 l 1,11,-1
 115 689 l 1,12,13
 186 710 186 710 338 710 c 1,14,15
 352 682 352 682 352 639 c 128,-1,16
 352 596 352 596 310 401 c 1,17,-1
 316 401 l 2,18,19
 388 401 388 401 424.5 466.5 c 128,-1,20
 461 532 461 532 481 683 c 1,21,22
 570 710 570 710 657 710 c 1,23,24
 659 702 659 702 658 666.5 c 128,-1,25
 657 631 657 631 639.5 572 c 128,-1,26
 622 513 622 513 577 450.5 c 128,-1,27
 532 388 532 388 467 355 c 1,28,29
 543 93 543 93 585 93 c 0,30,31
 601 93 601 93 636 105 c 2,32,-1
 647 109 l 1,33,-1
 671 54 l 1,34,35
 578 -12 578 -12 483 -12 c 128,-1,36
 388 -12 388 -12 358 86 c 0,37,38
 328 186 328 186 313 321 c 1,39,-1
 292 321 l 1,40,41
 237 77 237 77 237 20 c 1,0,1
EndSplineSet
EndChar

StartChar: L
Encoding: 76 76 47
Width: 524
GlyphClass: 2
Flags: W
LayerCount: 2
Fore
SplineSet
387 -24 m 0,0,1
 345 -24 345 -24 264.5 20 c 128,-1,2
 184 64 184 64 171 67 c 1,3,4
 111 -12 111 -12 59 -12 c 0,5,6
 45 -12 45 -12 17 27 c 128,-1,7
 -11 66 -11 66 -11 100 c 0,8,9
 -11 115 -11 115 20 137.5 c 128,-1,10
 51 160 51 160 91 169 c 1,11,12
 118 232 118 232 144.5 360 c 128,-1,13
 171 488 171 488 171 585 c 0,14,15
 171 601 171 601 160.5 621 c 128,-1,16
 150 641 150 641 140 653 c 2,17,-1
 129 665 l 1,18,-1
 132 685 l 1,19,20
 187 710 187 710 360 710 c 1,21,22
 376 685 376 685 376 625 c 128,-1,23
 376 565 376 565 323 417 c 128,-1,24
 270 269 270 269 217 160 c 1,25,26
 317 134 317 134 408 134 c 0,27,28
 429 134 429 134 442.5 144 c 128,-1,29
 456 154 456 154 472 186 c 1,30,-1
 527 167 l 1,31,32
 511 72 511 72 478.5 24 c 128,-1,33
 446 -24 446 -24 387 -24 c 0,0,1
EndSplineSet
EndChar

StartChar: M
Encoding: 77 77 48
Width: 997
GlyphClass: 2
Flags: W
LayerCount: 2
Fore
SplineSet
53 -6 m 2,0,-1
 41 -6 l 1,1,2
 41 52 41 52 97 301 c 128,-1,3
 153 550 153 550 153 576 c 0,4,5
 153 618 153 618 122 656 c 1,6,-1
 112 669 l 1,7,-1
 115 689 l 1,8,9
 174 709 174 709 331 709 c 1,10,11
 347 673 347 673 348 624 c 1,12,13
 465 710 465 710 548 710 c 0,14,15
 643 710 643 710 661 628 c 1,16,17
 774 710 774 710 858 710 c 0,18,19
 915 710 915 710 951 678.5 c 128,-1,20
 987 647 987 647 987 587.5 c 128,-1,21
 987 528 987 528 943.5 361.5 c 128,-1,22
 900 195 900 195 900 125 c 0,23,24
 900 99 900 99 911 99 c 0,25,26
 932 99 932 99 962 111 c 1,27,-1
 983 54 l 1,28,29
 890 -12 890 -12 799 -12 c 0,30,31
 756 -12 756 -12 730 14 c 128,-1,32
 704 40 704 40 704 90.5 c 128,-1,33
 704 141 704 141 745.5 310.5 c 128,-1,34
 787 480 787 480 787 517 c 128,-1,35
 787 554 787 554 778 566.5 c 128,-1,36
 769 579 769 579 743 579 c 128,-1,37
 717 579 717 579 661 541 c 1,38,39
 654 495 654 495 630 392 c 0,40,41
 567 129 567 129 567 19 c 1,42,43
 518 -7 518 -7 398 -7 c 2,44,-1
 371 -7 l 1,45,46
 371 85 371 85 418 281 c 128,-1,47
 465 477 465 477 465 516 c 128,-1,48
 465 555 465 555 456.5 567 c 128,-1,49
 448 579 448 579 421.5 579 c 128,-1,50
 395 579 395 579 338 540 c 1,51,52
 329 490 329 490 301 374 c 0,53,54
 236 103 236 103 236 20 c 1,55,56
 192 -6 192 -6 53 -6 c 2,0,-1
EndSplineSet
EndChar

StartChar: N
Encoding: 78 78 49
Width: 689
GlyphClass: 2
Flags: W
LayerCount: 2
Fore
SplineSet
58 -6 m 2,0,-1
 41 -6 l 1,1,2
 41 54 41 54 97 300 c 128,-1,3
 153 546 153 546 153 585 c 0,4,5
 153 602 153 602 142.5 623 c 128,-1,6
 132 644 132 644 122 656 c 2,7,-1
 112 669 l 1,8,-1
 115 689 l 1,9,10
 177 710 177 710 331 710 c 1,11,12
 349 672 349 672 349 624 c 2,13,-1
 349 622 l 1,14,15
 469 710 469 710 559 710 c 0,16,17
 612 710 612 710 646 678.5 c 128,-1,18
 680 647 680 647 680 588.5 c 128,-1,19
 680 530 680 530 634 353 c 128,-1,20
 588 176 588 176 588 137.5 c 128,-1,21
 588 99 588 99 601 99 c 0,22,23
 619 99 619 99 655 112 c 1,24,-1
 676 55 l 1,25,26
 578 -12 578 -12 494 -12 c 0,27,28
 446 -12 446 -12 420.5 13.5 c 128,-1,29
 395 39 395 39 395 98 c 128,-1,30
 395 157 395 157 438.5 322.5 c 128,-1,31
 482 488 482 488 482 528 c 0,32,33
 482 579 482 579 437 579 c 0,34,35
 404 579 404 579 338 538 c 1,36,37
 329 490 329 490 300 372 c 0,38,39
 236 103 236 103 236 20 c 1,40,41
 192 -6 192 -6 58 -6 c 2,0,-1
EndSplineSet
EndChar

StartChar: O
Encoding: 79 79 50
Width: 675
GlyphClass: 2
Flags: W
LayerCount: 2
Fore
SplineSet
659 536 m 128,-1,1
 673 491 673 491 673 429 c 128,-1,2
 673 367 673 367 651.5 291 c 128,-1,3
 630 215 630 215 587.5 145.5 c 128,-1,4
 545 76 545 76 470 32 c 128,-1,5
 395 -12 395 -12 299 -12 c 0,6,7
 182 -12 182 -12 115 67 c 128,-1,8
 48 146 48 146 48 266 c 128,-1,9
 48 386 48 386 93.5 485.5 c 128,-1,10
 139 585 139 585 223.5 647.5 c 128,-1,11
 308 710 308 710 412 710 c 0,12,13
 482 710 482 710 534.5 686 c 128,-1,14
 587 662 587 662 616 621.5 c 128,-1,0
 645 581 645 581 659 536 c 128,-1,1
281 78 m 0,15,16
 299 64 299 64 333.5 64 c 128,-1,17
 368 64 368 64 398.5 104.5 c 128,-1,18
 429 145 429 145 446 209 c 0,19,20
 478 335 478 335 478 470 c 0,21,22
 478 634 478 634 398 634 c 0,23,24
 360 634 360 634 329.5 598.5 c 128,-1,25
 299 563 299 563 281 506 c 0,26,27
 244 390 244 390 244 257 c 0,28,29
 244 108 244 108 281 78 c 0,15,16
EndSplineSet
EndChar

StartChar: P
Encoding: 80 80 51
Width: 583
GlyphClass: 2
Flags: W
LayerCount: 2
Fore
SplineSet
317 263 m 0,0,1
 289 263 289 263 276 264 c 1,2,3
 236 82 236 82 236 20 c 1,4,5
 180 -6 180 -6 89 -6 c 0,6,7
 64 -6 64 -6 41 -3 c 1,8,9
 41 60 41 60 96 289.5 c 128,-1,10
 151 519 151 519 151 574 c 0,11,12
 151 591 151 591 139.5 613 c 128,-1,13
 128 635 128 635 116 648 c 1,14,-1
 105 662 l 1,15,-1
 109 686 l 1,16,17
 147 693 147 693 237.5 701.5 c 128,-1,18
 328 710 328 710 404 710 c 0,19,20
 516 710 516 710 570 664 c 128,-1,21
 624 618 624 618 624 540 c 0,22,23
 624 419 624 419 546.5 341 c 128,-1,24
 469 263 469 263 317 263 c 0,0,1
315 349 m 2,25,26
 371 349 371 349 401.5 413 c 128,-1,27
 432 477 432 477 432 567 c 0,28,29
 432 640 432 640 384 640 c 1,30,-1
 352 636 l 1,31,32
 352 597 352 597 296 349 c 1,33,-1
 315 349 l 2,25,26
EndSplineSet
EndChar

StartChar: Q
Encoding: 81 81 52
Width: 670
GlyphClass: 2
Flags: W
LayerCount: 2
Fore
SplineSet
515 -224 m 0,0,1
 473 -224 473 -224 385.5 -170.5 c 128,-1,2
 298 -117 298 -117 270 -117 c 1,3,4
 208 -201 208 -201 173 -201 c 0,5,6
 155 -201 155 -201 126.5 -166.5 c 128,-1,7
 98 -132 98 -132 98 -94 c 0,8,9
 98 -85 98 -85 113.5 -70 c 128,-1,10
 129 -55 129 -55 163 -41.5 c 128,-1,11
 197 -28 197 -28 241.5 -28 c 128,-1,12
 286 -28 286 -28 386 -52 c 128,-1,13
 486 -76 486 -76 539 -76 c 0,14,15
 551 -76 551 -76 558 -74 c 0,16,17
 577 -67 577 -67 606 -26 c 1,18,-1
 663 -45 l 1,19,20
 633 -224 633 -224 515 -224 c 0,0,1
659 536 m 128,-1,22
 673 491 673 491 673 429 c 128,-1,23
 673 367 673 367 651.5 291 c 128,-1,24
 630 215 630 215 587.5 145.5 c 128,-1,25
 545 76 545 76 470 32 c 128,-1,26
 395 -12 395 -12 299 -12 c 0,27,28
 182 -12 182 -12 115 67 c 128,-1,29
 48 146 48 146 48 266 c 128,-1,30
 48 386 48 386 93.5 485.5 c 128,-1,31
 139 585 139 585 223.5 647.5 c 128,-1,32
 308 710 308 710 412 710 c 0,33,34
 482 710 482 710 534.5 686 c 128,-1,35
 587 662 587 662 616 621.5 c 128,-1,21
 645 581 645 581 659 536 c 128,-1,22
281 78 m 0,36,37
 299 64 299 64 333.5 64 c 128,-1,38
 368 64 368 64 398.5 104.5 c 128,-1,39
 429 145 429 145 446 209 c 0,40,41
 478 335 478 335 478 470 c 0,42,43
 478 634 478 634 398 634 c 0,44,45
 360 634 360 634 329.5 598.5 c 128,-1,46
 299 563 299 563 281 506 c 0,47,48
 244 390 244 390 244 257 c 0,49,50
 244 108 244 108 281 78 c 0,36,37
EndSplineSet
EndChar

StartChar: R
Encoding: 82 82 53
Width: 651
GlyphClass: 2
Flags: W
LayerCount: 2
Fore
SplineSet
237 19 m 1,0,1
 178 -7 178 -7 93 -7 c 0,2,3
 64 -7 64 -7 41 -2 c 1,4,5
 41 64 41 64 97.5 295.5 c 128,-1,6
 154 527 154 527 154 587 c 0,7,8
 154 611 154 611 118 651 c 1,9,-1
 107 664 l 1,10,-1
 110 686 l 1,11,12
 246 710 246 710 412 710 c 0,13,14
 512 710 512 710 570 671.5 c 128,-1,15
 628 633 628 633 628 559.5 c 128,-1,16
 628 486 628 486 588 425.5 c 128,-1,17
 548 365 548 365 474 331 c 1,18,19
 507 219 507 219 537 156 c 128,-1,20
 567 93 567 93 586 93 c 0,21,22
 602 93 602 93 636 105 c 2,23,-1
 648 109 l 1,24,-1
 672 55 l 1,25,26
 584 -12 584 -12 486.5 -12 c 128,-1,27
 389 -12 389 -12 359 86 c 0,28,29
 333 172 333 172 317 299 c 1,30,-1
 282 299 l 1,31,32
 237 89 237 89 237 19 c 1,0,1
323 386 m 0,33,34
 355 386 355 386 378.5 406 c 128,-1,35
 402 426 402 426 414 458 c 0,36,37
 436 521 436 521 436 580 c 128,-1,38
 436 639 436 639 383 639 c 0,39,40
 367 639 367 639 351 636 c 1,41,42
 350 605 350 605 302 388 c 1,43,44
 309 386 309 386 323 386 c 0,33,34
EndSplineSet
EndChar

StartChar: S
Encoding: 83 83 54
Width: 508
GlyphClass: 2
Flags: W
LayerCount: 2
Fore
SplineSet
473 183 m 0,0,1
 473 100 473 100 393.5 44 c 128,-1,2
 314 -12 314 -12 209 -12 c 0,3,4
 127 -12 127 -12 70.5 23 c 128,-1,5
 14 58 14 58 14 90 c 1,6,7
 30 129 30 129 75 174 c 128,-1,8
 120 219 120 219 158 221 c 1,9,10
 183 210 183 210 204.5 166.5 c 128,-1,11
 226 123 226 123 239 66 c 1,12,13
 293 68 293 68 293 127 c 0,14,15
 293 166 293 166 263.5 222.5 c 128,-1,16
 234 279 234 279 199 328 c 128,-1,17
 164 377 164 377 134.5 437 c 128,-1,18
 105 497 105 497 105 542 c 0,19,20
 105 616 105 616 173 663 c 128,-1,21
 241 710 241 710 324.5 710 c 128,-1,22
 408 710 408 710 454.5 674 c 128,-1,23
 501 638 501 638 501 591 c 0,24,25
 501 552 501 552 485 528.5 c 128,-1,26
 469 505 469 505 459.5 492.5 c 128,-1,27
 450 480 450 480 434 466 c 0,28,29
 404 440 404 440 388 428 c 2,30,-1
 373 417 l 1,31,32
 432 344 432 344 462 247 c 0,33,34
 473 212 473 212 473 183 c 0,0,1
421 584 m 0,35,36
 421 631 421 631 361 631 c 0,37,38
 326 631 326 631 304.5 616 c 128,-1,39
 283 601 283 601 283 578.5 c 128,-1,40
 283 556 283 556 301.5 524 c 128,-1,41
 320 492 320 492 331 479 c 1,42,43
 355 491 355 491 388 523 c 128,-1,44
 421 555 421 555 421 584 c 0,35,36
EndSplineSet
EndChar

StartChar: T
Encoding: 84 84 55
Width: 529
GlyphClass: 2
Flags: W
LayerCount: 2
Fore
SplineSet
135 -7 m 2,0,-1
 112 -7 l 1,1,2
 112 76 112 76 159 296 c 128,-1,3
 206 516 206 516 211.5 559.5 c 128,-1,4
 217 603 217 603 218 625 c 1,5,6
 124 623 124 623 68 596 c 1,7,8
 39 629 39 629 32 693 c 1,9,10
 81 710 81 710 200 710 c 1,11,-1
 515 700 l 2,12,13
 538 700 538 700 588 702 c 1,14,15
 592 670 592 670 592 648 c 0,16,17
 592 601 592 601 533 601 c 0,18,19
 515 601 515 601 476.5 607 c 128,-1,20
 438 613 438 613 409 614 c 1,21,22
 406 582 406 582 357.5 354 c 128,-1,23
 309 126 309 126 309 19 c 1,24,25
 265 -7 265 -7 135 -7 c 2,0,-1
EndSplineSet
EndChar

StartChar: U
Encoding: 85 85 56
Width: 705
GlyphClass: 2
Flags: W
LayerCount: 2
Fore
SplineSet
306 120 m 0,0,1
 347 120 347 120 410 156 c 1,2,3
 412 170 412 170 456 361.5 c 128,-1,4
 500 553 500 553 500 634 c 0,5,6
 500 664 500 664 499 675 c 1,7,8
 599 710 599 710 690 710 c 1,9,10
 696 703 696 703 696 676 c 0,11,12
 696 616 696 616 646.5 396 c 128,-1,13
 597 176 597 176 597 137.5 c 128,-1,14
 597 99 597 99 611 99 c 0,15,16
 620 99 620 99 665 112 c 1,17,-1
 686 56 l 1,18,19
 592 -12 592 -12 505 -12 c 0,20,21
 464 -12 464 -12 438 11 c 128,-1,22
 412 34 412 34 406 73 c 1,23,24
 283 -12 283 -12 195 -12 c 0,25,26
 138 -12 138 -12 101.5 19.5 c 128,-1,27
 65 51 65 51 65 105.5 c 128,-1,28
 65 160 65 160 108 330 c 128,-1,29
 151 500 151 500 151 588 c 0,30,31
 151 605 151 605 140.5 625 c 128,-1,32
 130 645 130 645 120 657 c 2,33,-1
 109 669 l 1,34,-1
 112 689 l 1,35,36
 175 710 175 710 329 710 c 1,37,38
 348 684 348 684 348 622 c 128,-1,39
 348 560 348 560 305 383 c 128,-1,40
 262 206 262 206 262 170 c 0,41,42
 262 120 262 120 306 120 c 0,0,1
EndSplineSet
EndChar

StartChar: V
Encoding: 86 86 57
Width: 603
GlyphClass: 2
Flags: W
LayerCount: 2
Fore
SplineSet
95 128 m 0,0,1
 95 168 95 168 112.5 292 c 128,-1,2
 130 416 130 416 130 484 c 128,-1,3
 130 552 130 552 124 576 c 1,4,5
 114 610 114 610 84 654 c 1,6,-1
 74 667 l 1,7,-1
 78 687 l 1,8,9
 174 707 174 707 322 707 c 1,10,11
 339 673 339 673 339 624 c 0,12,13
 339 528 339 528 314 372 c 128,-1,14
 289 216 289 216 289 189 c 0,15,16
 289 132 289 132 315 132 c 0,17,18
 345 132 345 132 391 183.5 c 128,-1,19
 437 235 437 235 474.5 313.5 c 128,-1,20
 512 392 512 392 517 458 c 1,21,-1
 410 530 l 1,22,23
 418 588 418 588 439 631.5 c 128,-1,24
 460 675 460 675 479 692 c 128,-1,25
 498 709 498 709 509 709 c 0,26,27
 573 709 573 709 609 671.5 c 128,-1,28
 645 634 645 634 645 584 c 0,29,30
 645 509 645 509 606.5 406 c 128,-1,31
 568 303 568 303 509 210.5 c 128,-1,32
 450 118 450 118 371 53 c 128,-1,33
 292 -12 292 -12 226.5 -12 c 128,-1,34
 161 -12 161 -12 128 27 c 128,-1,35
 95 66 95 66 95 128 c 0,0,1
EndSplineSet
EndChar

StartChar: W
Encoding: 87 87 58
Width: 920
GlyphClass: 2
Flags: W
LayerCount: 2
Fore
SplineSet
145.5 28.5 m 128,-1,1
 112 69 112 69 112 131 c 128,-1,2
 112 193 112 193 120 291 c 128,-1,3
 128 389 128 389 128 472 c 128,-1,4
 128 555 128 555 112 594 c 0,5,6
 105 609 105 609 70 651 c 1,7,-1
 57 666 l 1,8,-1
 61 686 l 1,9,10
 149 709 149 709 301 709 c 1,11,12
 326 680 326 680 326 595 c 128,-1,13
 326 510 326 510 314 391.5 c 128,-1,14
 302 273 302 273 302 219 c 128,-1,15
 302 165 302 165 310 148 c 128,-1,16
 318 131 318 131 336 131 c 128,-1,17
 354 131 354 131 383 150.5 c 128,-1,18
 412 170 412 170 429 192 c 1,19,20
 429 198 429 198 443.5 321.5 c 128,-1,21
 458 445 458 445 458 526 c 128,-1,22
 458 607 458 607 439 669 c 1,23,24
 526 709 526 709 648 710 c 1,25,26
 665 674 665 674 665 600 c 128,-1,27
 665 526 665 526 639.5 371 c 128,-1,28
 614 216 614 216 614 188 c 0,29,30
 614 132 614 132 642.5 132 c 128,-1,31
 671 132 671 132 715.5 182 c 128,-1,32
 760 232 760 232 796.5 310.5 c 128,-1,33
 833 389 833 389 837 458 c 1,34,-1
 724 534 l 1,35,36
 733 624 733 624 788 686 c 0,37,38
 800 699 800 699 816 709 c 1,39,40
 888 709 888 709 925 671 c 128,-1,41
 962 633 962 633 962 587 c 0,42,43
 962 505 962 505 925 400.5 c 128,-1,44
 888 296 888 296 830.5 205 c 128,-1,45
 773 114 773 114 694.5 51 c 128,-1,46
 616 -12 616 -12 541 -12 c 0,47,48
 501 -12 501 -12 470 14 c 128,-1,49
 439 40 439 40 428 93 c 1,50,51
 328 -12 328 -12 236 -12 c 0,52,0
 179 -12 179 -12 145.5 28.5 c 128,-1,1
EndSplineSet
EndChar

StartChar: X
Encoding: 88 88 59
Width: 627
GlyphClass: 2
Flags: W
LayerCount: 2
Fore
SplineSet
534 681 m 0,0,1
 552 709 552 709 581 709 c 128,-1,2
 610 709 610 709 663 664 c 1,3,4
 565 538 565 538 422 382 c 1,5,6
 498 155 498 155 528 116 c 0,7,8
 541 99 541 99 552 99 c 0,9,10
 573 99 573 99 602 110 c 1,11,-1
 611 113 l 1,12,-1
 634 59 l 1,13,14
 623 51 623 51 605 39 c 128,-1,15
 587 27 587 27 539.5 7.5 c 128,-1,16
 492 -12 492 -12 446 -12 c 128,-1,17
 400 -12 400 -12 368.5 13 c 128,-1,18
 337 38 337 38 318 95 c 128,-1,19
 299 152 299 152 271 242 c 1,20,21
 192 139 192 139 116 6 c 1,22,23
 101 -12 101 -12 82 -12 c 0,24,25
 50 -12 50 -12 -8 33 c 1,26,27
 42 121 42 121 240 335 c 1,28,29
 184 506 184 506 141 584 c 0,30,31
 123 617 123 617 76 654 c 1,32,-1
 79 676 l 1,33,34
 180 703 180 703 288 707 c 1,35,36
 322 689 322 689 339 640 c 1,37,-1
 391 476 l 1,38,39
 459 563 459 563 534 681 c 0,0,1
EndSplineSet
EndChar

StartChar: Y
Encoding: 89 89 60
Width: 670
GlyphClass: 2
Flags: W
LayerCount: 2
Fore
SplineSet
303.5 -215 m 128,-1,1
 270 -224 270 -224 229.5 -224 c 128,-1,2
 189 -224 189 -224 155.5 -197 c 128,-1,3
 122 -170 122 -170 122 -131 c 128,-1,4
 122 -92 122 -92 141.5 -64.5 c 128,-1,5
 161 -37 161 -37 198 -18 c 0,6,7
 263 16 263 16 362 37 c 1,8,9
 369 53 369 53 385 110 c 1,10,11
 345 89 345 89 284.5 71 c 128,-1,12
 224 53 224 53 177 53 c 128,-1,13
 130 53 130 53 97.5 84.5 c 128,-1,14
 65 116 65 116 65 171.5 c 128,-1,15
 65 227 65 227 101.5 373.5 c 128,-1,16
 138 520 138 520 138 583 c 0,17,18
 138 602 138 602 128 623.5 c 128,-1,19
 118 645 118 645 108 658 c 2,20,-1
 99 670 l 1,21,-1
 102 690 l 1,22,23
 164 710 164 710 316 710 c 1,24,25
 335 677 335 677 335 621.5 c 128,-1,26
 335 566 335 566 297 409 c 128,-1,27
 259 252 259 252 259 223 c 0,28,29
 259 173 259 173 294 173 c 0,30,31
 342 173 342 173 409 209 c 1,32,33
 442 349 442 349 465 484 c 128,-1,34
 488 619 488 619 488 680 c 1,35,36
 520 693 520 693 574 701 c 128,-1,37
 628 709 628 709 663 709 c 2,38,-1
 685 709 l 1,39,40
 685 632 685 632 644 438 c 0,41,42
 629 371 629 371 600.5 239.5 c 128,-1,43
 572 108 572 108 535.5 25.5 c 128,-1,44
 499 -57 499 -57 461.5 -102.5 c 128,-1,45
 424 -148 424 -148 380.5 -177 c 128,-1,0
 337 -206 337 -206 303.5 -215 c 128,-1,1
196 -113 m 0,46,47
 196 -135 196 -135 225 -135 c 128,-1,48
 254 -135 254 -135 289 -101.5 c 128,-1,49
 324 -68 324 -68 339 -33 c 1,50,51
 281 -42 281 -42 238.5 -64.5 c 128,-1,52
 196 -87 196 -87 196 -113 c 0,46,47
EndSplineSet
EndChar

StartChar: Z
Encoding: 90 90 61
Width: 580
GlyphClass: 2
Flags: W
LayerCount: 2
Fore
SplineSet
504.5 -7 m 128,-1,1
 477 -25 477 -25 434.5 -25 c 128,-1,2
 392 -25 392 -25 293.5 16.5 c 128,-1,3
 195 58 195 58 147 58 c 1,4,5
 138 50 138 50 124 32 c 1,6,7
 93 -12 93 -12 77 -12 c 128,-1,8
 61 -12 61 -12 39 4.5 c 128,-1,9
 17 21 17 21 2 41 c 1,10,11
 40 116 40 116 105 191.5 c 128,-1,12
 170 267 170 267 247 354.5 c 128,-1,13
 324 442 324 442 380 530 c 1,14,15
 291 537 291 537 236 537 c 0,16,17
 154 537 154 537 112 512 c 2,18,-1
 98 504 l 1,19,20
 90 521 90 521 78 564.5 c 128,-1,21
 66 608 66 608 66 637 c 128,-1,22
 66 666 66 666 71 684 c 1,23,24
 132 711 132 711 193.5 711 c 128,-1,25
 255 711 255 711 344.5 699 c 128,-1,26
 434 687 434 687 477.5 687 c 128,-1,27
 521 687 521 687 573 698 c 1,28,-1
 596 647 l 1,29,30
 532 545 532 545 411.5 409.5 c 128,-1,31
 291 274 291 274 241 204 c 1,32,33
 280 201 280 201 363 178 c 128,-1,34
 446 155 446 155 470 155 c 0,35,36
 505 155 505 155 536 201 c 1,37,-1
 587 181 l 1,38,39
 571 98 571 98 551.5 54.5 c 128,-1,0
 532 11 532 11 504.5 -7 c 128,-1,1
EndSplineSet
EndChar

StartChar: bracketleft
Encoding: 91 91 62
Width: 394
GlyphClass: 2
Flags: W
LayerCount: 2
Fore
SplineSet
222 -133 m 0,0,1
 222 -142 222 -142 288 -163 c 2,2,-1
 309 -170 l 1,3,-1
 301 -223 l 1,4,5
 287 -224 287 -224 275 -224 c 0,6,7
 161 -224 161 -224 82 -210 c 1,8,9
 65 -187 65 -187 63 -169 c 1,10,11
 123 420 123 420 162 690 c 0,12,13
 164 706 164 706 177.5 720 c 128,-1,14
 191 734 191 734 206 734 c 0,15,16
 291 734 291 734 417 713 c 1,17,-1
 413 654 l 1,18,19
 316 652 316 652 312 633 c 0,20,21
 307 609 307 609 288 479.5 c 128,-1,22
 269 350 269 350 262 287.5 c 128,-1,23
 255 225 255 225 247 156 c 128,-1,24
 239 87 239 87 234 47 c 0,25,26
 222 -64 222 -64 222 -133 c 0,0,1
EndSplineSet
EndChar

StartChar: backslash
Encoding: 92 92 63
Width: 378
GlyphClass: 2
Flags: W
LayerCount: 2
Fore
SplineSet
9 710 m 1,0,1
 51 737 51 737 92 747 c 1,2,3
 265 313 265 313 413 -78 c 1,4,5
 379 -112 379 -112 329 -112 c 1,6,7
 158 343 158 343 9 710 c 1,0,1
EndSplineSet
EndChar

StartChar: bracketright
Encoding: 93 93 64
Width: 426
GlyphClass: 2
Flags: W
LayerCount: 2
Fore
SplineSet
210 643 m 0,0,1
 210 652 210 652 145 673 c 2,2,-1
 123 680 l 1,3,-1
 131 733 l 1,4,5
 145 734 145 734 157 734 c 0,6,7
 271 734 271 734 350 720 c 1,8,9
 367 697 367 697 369 679 c 1,10,11
 309 90 309 90 270 -180 c 0,12,13
 268 -196 268 -196 254.5 -210 c 128,-1,14
 241 -224 241 -224 226 -224 c 0,15,16
 141 -224 141 -224 15 -203 c 1,17,-1
 19 -144 l 1,18,19
 116 -142 116 -142 120 -123 c 0,20,21
 125 -99 125 -99 144 30.5 c 128,-1,22
 163 160 163 160 170 222.5 c 128,-1,23
 177 285 177 285 185 354 c 128,-1,24
 193 423 193 423 198 463 c 0,25,26
 210 574 210 574 210 643 c 0,0,1
EndSplineSet
EndChar

StartChar: asciicircum
Encoding: 94 94 65
Width: 471
GlyphClass: 2
Flags: W
LayerCount: 2
Fore
SplineSet
453 291 m 1,0,1
 429 284 429 284 395.5 284 c 128,-1,2
 362 284 362 284 322 288 c 1,3,-1
 237 523 l 1,4,-1
 149 288 l 1,5,6
 109 284 109 284 75 284 c 1,7,-1
 18 288 l 1,8,9
 175 642 175 642 190 674 c 1,10,-1
 285 674 l 1,11,12
 307 623 307 623 338 550 c 0,13,14
 404 397 404 397 453 291 c 1,0,1
EndSplineSet
EndChar

StartChar: underscore
Encoding: 95 95 66
Width: 614
GlyphClass: 2
Flags: W
LayerCount: 2
Fore
SplineSet
49 0 m 1,0,1
 49 59 49 59 52 81 c 1,2,-1
 566 81 l 1,3,4
 566 16 566 16 563 0 c 1,5,-1
 49 0 l 1,0,1
EndSplineSet
EndChar

StartChar: grave
Encoding: 96 96 67
Width: 636
GlyphClass: 2
Flags: W
LayerCount: 2
Fore
SplineSet
230 696 m 0,0,1
 276 696 276 696 489 547 c 1,2,-1
 463 499 l 1,3,4
 317 551 317 551 154 590 c 1,5,6
 190 696 190 696 230 696 c 0,0,1
EndSplineSet
EndChar

StartChar: a
Encoding: 97 97 68
Width: 531
GlyphClass: 2
Flags: W
LayerCount: 2
Fore
SplineSet
482 250.5 m 128,-1,1
 467 161 467 161 467 125.5 c 128,-1,2
 467 90 467 90 478 90 c 1,3,-1
 528 104 l 1,4,-1
 546 54 l 1,5,6
 514 29 514 29 464.5 8.5 c 128,-1,7
 415 -12 415 -12 377 -12 c 0,8,9
 312 -12 312 -12 295 44 c 1,10,11
 216 -12 216 -12 155.5 -12 c 128,-1,12
 95 -12 95 -12 62 32 c 128,-1,13
 29 76 29 76 29 158 c 0,14,15
 29 271 29 271 87 357 c 128,-1,16
 145 443 145 443 240 443 c 0,17,18
 292 443 292 443 346 414 c 1,19,20
 354 432 354 432 359 440 c 1,21,22
 431 440 431 440 518 405 c 1,23,0
 497 340 497 340 482 250.5 c 128,-1,1
224 107 m 128,-1,25
 231 94 231 94 250 94 c 128,-1,26
 269 94 269 94 287 109 c 1,27,28
 291 225 291 225 325 352 c 1,29,30
 310 361 310 361 290.5 361 c 128,-1,31
 271 361 271 361 255.5 339 c 128,-1,32
 240 317 240 317 232 284 c 0,33,34
 217 221 217 221 217 170.5 c 128,-1,24
 217 120 217 120 224 107 c 128,-1,25
EndSplineSet
EndChar

StartChar: b
Encoding: 98 98 69
Width: 520
GlyphClass: 2
Flags: W
LayerCount: 2
Fore
SplineSet
327 692 m 0,0,1
 327 619 327 619 278 408 c 1,2,3
 336 443 336 443 385 443 c 128,-1,4
 434 443 434 443 471 402 c 128,-1,5
 508 361 508 361 508 252.5 c 128,-1,6
 508 144 508 144 448.5 66 c 128,-1,7
 389 -12 389 -12 302 -12 c 0,8,9
 250 -12 250 -12 199 16 c 1,10,11
 99 -8 99 -8 30 -8 c 1,12,13
 25 -5 25 -5 25 26 c 0,14,15
 25 99 25 99 83.5 339 c 128,-1,16
 142 579 142 579 142 665 c 0,17,18
 142 687 142 687 140 707 c 1,19,20
 237 734 237 734 321 734 c 1,21,22
 327 724 327 724 327 692 c 0,0,1
296 343 m 0,23,24
 282 343 282 343 260 332 c 1,25,26
 217 147 217 147 210 83 c 1,27,28
 228 74 228 74 243 74 c 0,29,30
 277 74 277 74 298.5 147 c 128,-1,31
 320 220 320 220 320 281.5 c 128,-1,32
 320 343 320 343 296 343 c 0,23,24
EndSplineSet
EndChar

StartChar: c
Encoding: 99 99 70
Width: 424
GlyphClass: 2
Flags: W
LayerCount: 2
Fore
SplineSet
282 376 m 0,0,1
 251 376 251 376 229 321 c 128,-1,2
 207 266 207 266 207 210 c 0,3,4
 207 87 207 87 278 87 c 0,5,6
 323 87 323 87 380 130 c 1,7,-1
 412 86 l 1,8,9
 370 40 370 40 311.5 14 c 128,-1,10
 253 -12 253 -12 195 -12 c 0,11,12
 117 -12 117 -12 68.5 35.5 c 128,-1,13
 20 83 20 83 20 179 c 0,14,15
 20 295 20 295 91.5 369 c 128,-1,16
 163 443 163 443 279 443 c 0,17,18
 354 443 354 443 397 412.5 c 128,-1,19
 440 382 440 382 440 335.5 c 128,-1,20
 440 289 440 289 412 255 c 1,21,22
 379 255 379 255 340.5 267.5 c 128,-1,23
 302 280 302 280 279 299 c 1,24,-1
 294 374 l 1,25,26
 288 376 288 376 282 376 c 0,0,1
EndSplineSet
EndChar

StartChar: d
Encoding: 100 100 71
Width: 542
GlyphClass: 2
Flags: W
LayerCount: 2
Fore
SplineSet
377 -12 m 0,0,1
 315 -12 315 -12 297 36 c 1,2,3
 221 -12 221 -12 161.5 -12 c 128,-1,4
 102 -12 102 -12 65.5 28.5 c 128,-1,5
 29 69 29 69 29 160 c 0,6,7
 29 279 29 279 89.5 361 c 128,-1,8
 150 443 150 443 246 443 c 0,9,10
 293 443 293 443 340 421 c 1,11,12
 377 590 377 590 377 664 c 0,13,14
 377 686 377 686 374 708 c 1,15,16
 467 734 467 734 553 734 c 1,17,18
 561 721 561 721 561 672.5 c 128,-1,19
 561 624 561 624 515.5 412 c 128,-1,20
 470 200 470 200 470 128 c 0,21,22
 470 90 470 90 483 90 c 1,23,-1
 526 104 l 1,24,-1
 544 53 l 1,25,26
 456 -12 456 -12 377 -12 c 0,0,1
246 89 m 0,27,28
 264 89 264 89 286 101 c 1,29,-1
 286 102 l 1,30,31
 290 183 290 183 325 357 c 1,32,33
 305 363 305 363 296 363 c 0,34,35
 275 363 275 363 259 342 c 128,-1,36
 243 321 243 321 234 288 c 0,37,38
 217 220 217 220 217 154.5 c 128,-1,39
 217 89 217 89 246 89 c 0,27,28
EndSplineSet
EndChar

StartChar: e
Encoding: 101 101 72
Width: 436
GlyphClass: 2
Flags: W
LayerCount: 2
Fore
SplineSet
20 181 m 0,0,1
 20 305 20 305 95.5 374 c 128,-1,2
 171 443 171 443 282 443 c 0,3,4
 359 443 359 443 405.5 409.5 c 128,-1,5
 452 376 452 376 452 320 c 0,6,7
 452 279 452 279 427 247 c 128,-1,8
 402 215 402 215 366 198 c 0,9,10
 290 164 290 164 234 157 c 2,11,-1
 209 154 l 1,12,13
 220 88 220 88 275 88 c 0,14,15
 299 88 299 88 328 98.5 c 128,-1,16
 357 109 357 109 374 120 c 2,17,-1
 391 130 l 1,18,-1
 423 87 l 1,19,20
 423 87 423 87 412 76 c 0,21,22
 406 70 406 70 383.5 52.5 c 128,-1,23
 361 35 361 35 336.5 22 c 128,-1,24
 312 9 312 9 274 -1.5 c 128,-1,25
 236 -12 236 -12 198 -12 c 0,26,27
 113 -12 113 -12 66.5 37.5 c 128,-1,28
 20 87 20 87 20 181 c 0,0,1
263 267.5 m 128,-1,30
 292 311 292 311 292 340.5 c 128,-1,31
 292 370 292 370 275 370 c 0,32,33
 250 370 250 370 229 331 c 128,-1,34
 208 292 208 292 205 220 c 1,35,29
 234 224 234 224 263 267.5 c 128,-1,30
EndSplineSet
EndChar

StartChar: f
Encoding: 102 102 73
Width: 326
GlyphClass: 2
Flags: W
LayerCount: 2
Fore
SplineSet
358 354 m 1,0,-1
 270 361 l 1,1,2
 261 192 261 192 230.5 38 c 128,-1,3
 200 -116 200 -116 170 -155 c 1,4,5
 120 -154 120 -154 73 -143.5 c 128,-1,6
 26 -133 26 -133 9 -123 c 1,7,8
 47 5 47 5 63 98.5 c 128,-1,9
 79 192 79 192 95 357 c 1,10,-1
 29 350 l 1,11,12
 25 369 25 369 25 388.5 c 128,-1,13
 25 408 25 408 30 431 c 1,14,-1
 102 431 l 1,15,16
 117 580 117 580 144 632 c 0,17,18
 179 701 179 701 228 720 c 1,19,20
 258 733 258 733 304 733 c 128,-1,21
 350 733 350 733 381.5 706.5 c 128,-1,22
 413 680 413 680 413 635.5 c 128,-1,23
 413 591 413 591 372 533 c 128,-1,24
 331 475 331 475 273 431 c 1,25,-1
 374 431 l 1,26,27
 374 386 374 386 358 354 c 1,0,-1
329 658 m 0,28,29
 287 658 287 658 276 511 c 1,30,31
 311 539 311 539 332.5 572.5 c 128,-1,32
 354 606 354 606 354 632 c 128,-1,33
 354 658 354 658 329 658 c 0,28,29
EndSplineSet
EndChar

StartChar: g
Encoding: 103 103 74
Width: 508
GlyphClass: 2
Flags: W
LayerCount: 2
Fore
SplineSet
281 43 m 1,0,1
 211 5 211 5 156.5 5 c 128,-1,2
 102 5 102 5 65.5 48.5 c 128,-1,3
 29 92 29 92 29 178 c 0,4,5
 29 293 29 293 91.5 368 c 128,-1,6
 154 443 154 443 241 443 c 0,7,8
 283 443 283 443 336 420 c 1,9,10
 398 439 398 439 477 439 c 2,11,-1
 494 439 l 1,12,13
 499 429 499 429 499 394.5 c 128,-1,14
 499 360 499 360 486.5 259 c 128,-1,15
 474 158 474 158 459 90 c 0,16,17
 427 -55 427 -55 359.5 -139.5 c 128,-1,18
 292 -224 292 -224 190 -224 c 0,19,20
 140 -224 140 -224 108.5 -202 c 128,-1,21
 77 -180 77 -180 77 -146 c 128,-1,22
 77 -112 77 -112 93.5 -89.5 c 128,-1,23
 110 -67 110 -67 141 -52 c 0,24,25
 194 -26 194 -26 271 -9 c 1,26,-1
 281 43 l 1,0,1
287 362 m 0,27,28
 252 362 252 362 233.5 302 c 128,-1,29
 215 242 215 242 215 172 c 128,-1,30
 215 102 215 102 248 102 c 0,31,32
 262 102 262 102 289 116 c 1,33,34
 297 197 297 197 315 356 c 1,35,36
 300 362 300 362 287 362 c 0,27,28
173 -150 m 0,37,38
 192 -150 192 -150 216.5 -131 c 128,-1,39
 241 -112 241 -112 257 -69 c 1,40,41
 148 -88 148 -88 148 -127 c 1,42,43
 150 -150 150 -150 173 -150 c 0,37,38
EndSplineSet
EndChar

StartChar: h
Encoding: 104 104 75
Width: 544
GlyphClass: 2
Flags: W
LayerCount: 2
Fore
SplineSet
329 681 m 0,0,1
 329 611 329 611 278 393 c 1,2,3
 364 442 364 442 413.5 442 c 128,-1,4
 463 442 463 442 487 415.5 c 128,-1,5
 511 389 511 389 511 349.5 c 128,-1,6
 511 310 511 310 489 225.5 c 128,-1,7
 467 141 467 141 467 115 c 128,-1,8
 467 89 467 89 475 89 c 1,9,-1
 527 103 l 1,10,-1
 545 53 l 1,11,12
 514 30 514 30 459.5 9 c 128,-1,13
 405 -12 405 -12 363 -12 c 0,14,15
 282 -12 282 -12 282 80 c 0,16,17
 282 122 282 122 303 204 c 128,-1,18
 324 286 324 286 324 307.5 c 128,-1,19
 324 329 324 329 309 329 c 0,20,21
 288 329 288 329 258 309 c 1,22,23
 213 118 213 118 213 43 c 1,24,-1
 214 19 l 1,25,26
 112 -8 112 -8 31 -8 c 1,27,28
 25 -5 25 -5 25 24 c 0,29,30
 25 86 25 86 84.5 331 c 128,-1,31
 144 576 144 576 144 661 c 0,32,33
 144 687 144 687 140 707 c 1,34,35
 237 734 237 734 322 734 c 1,36,37
 329 717 329 717 329 681 c 0,0,1
EndSplineSet
EndChar

StartChar: i
Encoding: 105 105 76
Width: 300
GlyphClass: 2
Flags: W
LayerCount: 2
Fore
SplineSet
244 238.5 m 128,-1,1
 219 146 219 146 219 118 c 128,-1,2
 219 90 219 90 230 90 c 128,-1,3
 241 90 241 90 270 100 c 1,4,-1
 279 104 l 1,5,-1
 297 54 l 1,6,7
 263 28 263 28 212.5 8 c 128,-1,8
 162 -12 162 -12 121 -12 c 128,-1,9
 80 -12 80 -12 56.5 11 c 128,-1,10
 33 34 33 34 33 77.5 c 128,-1,11
 33 121 33 121 57.5 210.5 c 128,-1,12
 82 300 82 300 82 324 c 0,13,14
 82 361 82 361 56 394 c 1,15,-1
 48 405 l 1,16,-1
 51 422 l 1,17,18
 103 438 103 438 253 438 c 1,19,20
 269 420 269 420 269 375.5 c 128,-1,0
 269 331 269 331 244 238.5 c 128,-1,1
123.5 540 m 128,-1,22
 98 564 98 564 98 601.5 c 128,-1,23
 98 639 98 639 129.5 664.5 c 128,-1,24
 161 690 161 690 206 690 c 128,-1,25
 251 690 251 690 276 669 c 128,-1,26
 301 648 301 648 301 610 c 128,-1,27
 301 572 301 572 270.5 544 c 128,-1,28
 240 516 240 516 194.5 516 c 128,-1,21
 149 516 149 516 123.5 540 c 128,-1,22
EndSplineSet
EndChar

StartChar: j
Encoding: 106 106 77
Width: 298
GlyphClass: 2
Flags: W
LayerCount: 2
Fore
SplineSet
13 -224 m 0,0,1
 -74 -224 -74 -224 -142 -154 c 1,2,-1
 -115 -111 l 1,3,4
 -83 -130 -83 -130 -48 -130 c 128,-1,5
 -13 -130 -13 -130 12 -83.5 c 128,-1,6
 37 -37 37 -37 63 109.5 c 128,-1,7
 89 256 89 256 89 326 c 0,8,9
 89 341 89 341 79 360.5 c 128,-1,10
 69 380 69 380 59 392 c 2,11,-1
 49 404 l 1,12,-1
 51 420 l 1,13,14
 123 438 123 438 261 438 c 1,15,16
 276 421 276 421 276 371.5 c 128,-1,17
 276 322 276 322 258 207 c 128,-1,18
 240 92 240 92 218 7 c 0,19,20
 157 -224 157 -224 13 -224 c 0,0,1
139.5 540 m 128,-1,22
 114 564 114 564 114 601.5 c 128,-1,23
 114 639 114 639 145.5 664.5 c 128,-1,24
 177 690 177 690 222 690 c 128,-1,25
 267 690 267 690 292 669 c 128,-1,26
 317 648 317 648 317 610 c 128,-1,27
 317 572 317 572 286.5 544 c 128,-1,28
 256 516 256 516 210.5 516 c 128,-1,21
 165 516 165 516 139.5 540 c 128,-1,22
EndSplineSet
EndChar

StartChar: k
Encoding: 107 107 78
Width: 551
GlyphClass: 2
Flags: W
LayerCount: 2
Fore
SplineSet
143 661 m 0,0,1
 143 687 143 687 138 707 c 1,2,3
 237 734 237 734 318 734 c 1,4,5
 328 722 328 722 328 681 c 0,6,7
 328 608 328 608 283 401 c 1,8,9
 363 443 363 443 424.5 443 c 128,-1,10
 486 443 486 443 518.5 418 c 128,-1,11
 551 393 551 393 551 348 c 0,12,13
 551 261 551 261 422 224 c 1,14,15
 454 86 454 86 484 86 c 1,16,-1
 532 99 l 1,17,-1
 554 50 l 1,18,19
 529 30 529 30 477 9 c 128,-1,20
 425 -12 425 -12 377 -12 c 128,-1,21
 329 -12 329 -12 304 24 c 128,-1,22
 279 60 279 60 272 118 c 128,-1,23
 265 176 265 176 265 248 c 1,24,25
 313 260 313 260 341 282.5 c 128,-1,26
 369 305 369 305 369 327.5 c 128,-1,27
 369 350 369 350 345 350 c 0,28,29
 326 350 326 350 300.5 339 c 128,-1,30
 275 328 275 328 263 318 c 1,31,32
 209 90 209 90 209 13 c 1,33,34
 132 -4 132 -4 26 -4 c 1,35,36
 25 4 25 4 25 15 c 0,37,38
 25 67 25 67 84 319.5 c 128,-1,39
 143 572 143 572 143 661 c 0,0,1
EndSplineSet
EndChar

StartChar: l
Encoding: 108 108 79
Width: 297
GlyphClass: 2
Flags: W
LayerCount: 2
Fore
SplineSet
216 8 m 128,-1,1
 164 -12 164 -12 121.5 -12 c 128,-1,2
 79 -12 79 -12 52 12.5 c 128,-1,3
 25 37 25 37 25 83 c 128,-1,4
 25 129 25 129 75.5 339.5 c 128,-1,5
 126 550 126 550 126 652 c 0,6,7
 126 674 126 674 120 708 c 1,8,9
 214 734 214 734 302 734 c 1,10,11
 311 718 311 718 311 682 c 0,12,13
 311 614 311 614 260.5 385.5 c 128,-1,14
 210 157 210 157 210 122 c 128,-1,15
 210 87 210 87 222 87 c 0,16,17
 232 87 232 87 265 100 c 1,18,-1
 276 105 l 1,19,-1
 300 56 l 1,20,0
 268 28 268 28 216 8 c 128,-1,1
EndSplineSet
EndChar

StartChar: m
Encoding: 109 109 80
Width: 790
GlyphClass: 2
Flags: W
LayerCount: 2
Fore
SplineSet
60 -6 m 2,0,-1
 35 -6 l 1,1,2
 35 65 35 65 62.5 192.5 c 128,-1,3
 90 320 90 320 90 334 c 128,-1,4
 90 348 90 348 81 365 c 128,-1,5
 72 382 72 382 63 391 c 2,6,-1
 54 400 l 1,7,-1
 56 415 l 1,8,9
 114 434 114 434 261 434 c 1,10,11
 272 411 272 411 276 385 c 1,12,13
 363 442 363 442 423 442 c 0,14,15
 455 442 455 442 477.5 425 c 128,-1,16
 500 408 500 408 509 380 c 1,17,18
 592 442 592 442 661 442 c 0,19,20
 706 442 706 442 731.5 414.5 c 128,-1,21
 757 387 757 387 757 348.5 c 128,-1,22
 757 310 757 310 735 224 c 128,-1,23
 713 138 713 138 713 113.5 c 128,-1,24
 713 89 713 89 721 89 c 1,25,-1
 773 102 l 1,26,-1
 791 52 l 1,27,28
 761 28 761 28 708.5 8 c 128,-1,29
 656 -12 656 -12 614 -12 c 0,30,31
 528 -12 528 -12 528 75 c 0,32,33
 528 112 528 112 549 201 c 128,-1,34
 570 290 570 290 570 309.5 c 128,-1,35
 570 329 570 329 555 329 c 0,36,37
 534 329 534 329 510 312 c 1,38,39
 507 297 507 297 494 240 c 0,40,41
 466 112 466 112 466 13 c 1,42,43
 420 -4 420 -4 287 -4 c 1,44,45
 284 7 284 7 284 48 c 128,-1,46
 284 89 284 89 306 193 c 128,-1,47
 328 297 328 297 328 313 c 128,-1,48
 328 329 328 329 314 329 c 0,49,50
 297 329 297 329 270 313 c 1,51,52
 267 296 267 296 251 226 c 0,53,54
 217 79 217 79 217 12 c 1,55,56
 170 -6 170 -6 60 -6 c 2,0,-1
EndSplineSet
EndChar

StartChar: n
Encoding: 110 110 81
Width: 554
GlyphClass: 2
Flags: W
LayerCount: 2
Fore
SplineSet
52 -6 m 2,0,-1
 35 -6 l 1,1,2
 35 56 35 56 63.5 182 c 128,-1,3
 92 308 92 308 92 327 c 128,-1,4
 92 346 92 346 83 364 c 128,-1,5
 74 382 74 382 65 391 c 2,6,-1
 56 400 l 1,7,-1
 58 415 l 1,8,9
 117 434 117 434 264 434 c 1,10,11
 274 411 274 411 278 386 c 1,12,13
 369 442 369 442 431 442 c 0,14,15
 473 442 473 442 497 414.5 c 128,-1,16
 521 387 521 387 521 348.5 c 128,-1,17
 521 310 521 310 499 225 c 128,-1,18
 477 140 477 140 477 114.5 c 128,-1,19
 477 89 477 89 484 89 c 1,20,-1
 537 103 l 1,21,-1
 555 53 l 1,22,23
 523 29 523 29 471.5 8.5 c 128,-1,24
 420 -12 420 -12 377 -12 c 0,25,26
 292 -12 292 -12 292 76 c 0,27,28
 292 114 292 114 313 200 c 128,-1,29
 334 286 334 286 334 307.5 c 128,-1,30
 334 329 334 329 320 329 c 0,31,32
 302 329 302 329 272 309 c 1,33,34
 268 291 268 291 252 222 c 0,35,36
 220 77 220 77 220 13 c 1,37,38
 171 -6 171 -6 52 -6 c 2,0,-1
EndSplineSet
EndChar

StartChar: o
Encoding: 111 111 82
Width: 446
GlyphClass: 2
Flags: W
LayerCount: 2
Fore
SplineSet
188 -12 m 0,0,1
 110 -12 110 -12 65 37.5 c 128,-1,2
 20 87 20 87 20 177 c 0,3,4
 20 287 20 287 85 363.5 c 128,-1,5
 150 440 150 440 256 440 c 1,6,-1
 301 436 l 1,7,8
 325 443 325 443 346 443 c 0,9,10
 396 443 396 443 417.5 409 c 128,-1,11
 439 375 439 375 442 312 c 1,12,13
 484 314 484 314 522 325 c 2,14,-1
 536 329 l 1,15,16
 543 322 543 322 546 287 c 2,17,-1
 547 276 l 1,18,19
 502 253 502 253 437 240 c 1,20,21
 415 134 415 134 350 61 c 128,-1,22
 285 -12 285 -12 188 -12 c 0,0,1
208 181 m 0,23,24
 208 88 208 88 255 88 c 0,25,26
 288 88 288 88 322.5 130 c 128,-1,27
 357 172 357 172 370 232 c 1,28,29
 268 232 268 232 268 330 c 0,30,31
 268 347 268 347 271 365 c 1,32,33
 261 365 261 365 256 362 c 1,34,35
 239 344 239 344 223.5 289.5 c 128,-1,36
 208 235 208 235 208 181 c 0,23,24
EndSplineSet
EndChar

StartChar: p
Encoding: 112 112 83
Width: 512
GlyphClass: 2
Flags: W
LayerCount: 2
Fore
SplineSet
-2 -224 m 1,0,1
 -10 -211 -10 -211 -10 -169 c 128,-1,2
 -10 -127 -10 -127 28.5 59 c 128,-1,3
 67 245 67 245 67 292 c 128,-1,4
 67 339 67 339 58 363.5 c 128,-1,5
 49 388 49 388 40 395 c 2,6,-1
 31 402 l 1,7,-1
 33 417 l 1,8,9
 93 436 93 436 236 436 c 1,10,11
 244 421 244 421 249 397 c 1,12,13
 313 443 313 443 370 443 c 128,-1,14
 427 443 427 443 463.5 399.5 c 128,-1,15
 500 356 500 356 500 252 c 128,-1,16
 500 148 500 148 445.5 68 c 128,-1,17
 391 -12 391 -12 286 -12 c 0,18,19
 240 -12 240 -12 196 6 c 1,20,21
 173 -107 173 -107 173 -193 c 1,22,23
 101 -219 101 -219 -2 -224 c 1,0,1
240 72 m 0,24,25
 267 72 267 72 286 112 c 0,26,27
 320 182 320 182 320 282 c 0,28,29
 320 341 320 341 291 341 c 0,30,31
 276 341 276 341 251 330 c 1,32,33
 245 246 245 246 211 77 c 1,34,35
 228 72 228 72 240 72 c 0,24,25
EndSplineSet
EndChar

StartChar: q
Encoding: 113 113 84
Width: 518
GlyphClass: 2
Flags: W
LayerCount: 2
Fore
SplineSet
231 -224 m 2,0,-1
 220 -224 l 1,1,2
 219 -215 219 -215 219 -194 c 0,3,4
 219 -138 219 -138 256 20 c 1,5,6
 202 -12 202 -12 149.5 -12 c 128,-1,7
 97 -12 97 -12 63 28.5 c 128,-1,8
 29 69 29 69 29 157 c 0,9,10
 29 279 29 279 91.5 361 c 128,-1,11
 154 443 154 443 241 443 c 0,12,13
 295 443 295 443 336 420 c 1,14,15
 421 441 421 441 498 441 c 1,16,17
 506 430 506 430 506 399 c 0,18,19
 506 336 506 336 454.5 111 c 128,-1,20
 403 -114 403 -114 403 -193 c 1,21,22
 336 -224 336 -224 231 -224 c 2,0,-1
294 361 m 0,23,24
 257 361 257 361 237 289 c 128,-1,25
 217 217 217 217 217 142 c 0,26,27
 217 114 217 114 222 102 c 128,-1,28
 227 90 227 90 242.5 90 c 128,-1,29
 258 90 258 90 275 98 c 1,30,31
 318 279 318 279 320 356 c 1,32,33
 305 361 305 361 294 361 c 0,23,24
EndSplineSet
EndChar

StartChar: r
Encoding: 114 114 85
Width: 392
GlyphClass: 2
Flags: W
LayerCount: 2
Fore
SplineSet
49 -6 m 2,0,-1
 41 -6 l 1,1,2
 38 8 38 8 38 37.5 c 128,-1,3
 38 67 38 67 62.5 190.5 c 128,-1,4
 87 314 87 314 87 330.5 c 128,-1,5
 87 347 87 347 78 364.5 c 128,-1,6
 69 382 69 382 60 391 c 2,7,-1
 51 400 l 1,8,-1
 53 415 l 1,9,10
 113 434 113 434 252 434 c 1,11,12
 265 409 265 409 268 375 c 1,13,14
 329 443 329 443 376 443 c 0,15,16
 437 443 437 443 443 340 c 1,17,18
 441 338 441 338 438 333.5 c 128,-1,19
 435 329 435 329 424 318 c 128,-1,20
 413 307 413 307 401 298 c 0,21,22
 367 275 367 275 329 271 c 0,23,24
 328 271 328 271 315.5 293 c 128,-1,25
 303 315 303 315 294.5 315 c 128,-1,26
 286 315 286 315 263 297 c 1,27,28
 260 279 260 279 251.5 236 c 128,-1,29
 243 193 243 193 238 165 c 0,30,31
 223 91 223 91 223 41 c 1,32,-1
 224 11 l 1,33,34
 180 -6 180 -6 49 -6 c 2,0,-1
EndSplineSet
EndChar

StartChar: s
Encoding: 115 115 86
Width: 385
GlyphClass: 2
Flags: W
LayerCount: 2
Fore
SplineSet
368 135 m 0,0,1
 368 73 368 73 310.5 30.5 c 128,-1,2
 253 -12 253 -12 176 -12 c 128,-1,3
 99 -12 99 -12 49.5 14 c 128,-1,4
 0 40 0 40 0 63.5 c 128,-1,5
 0 87 0 87 30.5 123.5 c 128,-1,6
 61 160 61 160 93 166 c 1,7,8
 139 141 139 141 176 55 c 1,9,10
 205 55 205 55 205 74 c 0,11,12
 205 88 205 88 197 100 c 128,-1,13
 189 112 189 112 185 119 c 128,-1,14
 181 126 181 126 171 138.5 c 128,-1,15
 161 151 161 151 156 157 c 0,16,17
 131 187 131 187 111 212 c 0,18,19
 63 272 63 272 63 317.5 c 128,-1,20
 63 363 63 363 92 392 c 0,21,22
 142 443 142 443 239 443 c 0,23,24
 300 443 300 443 336 419.5 c 128,-1,25
 372 396 372 396 372 349.5 c 128,-1,26
 372 303 372 303 317 243 c 1,27,28
 368 184 368 184 368 135 c 0,0,1
313 352 m 128,-1,30
 313 367 313 367 300 375 c 128,-1,31
 287 383 287 383 269 383 c 128,-1,32
 251 383 251 383 241.5 374.5 c 128,-1,33
 232 366 232 366 232 352 c 128,-1,34
 232 338 232 338 275 290 c 1,35,36
 289 300 289 300 301 318.5 c 128,-1,29
 313 337 313 337 313 352 c 128,-1,30
EndSplineSet
EndChar

StartChar: t
Encoding: 116 116 87
Width: 338
GlyphClass: 2
Flags: W
LayerCount: 2
Fore
SplineSet
372 354 m 1,0,-1
 286 361 l 1,1,2
 246 182 246 182 242.5 153 c 128,-1,3
 239 124 239 124 239 105.5 c 128,-1,4
 239 87 239 87 251 87 c 0,5,6
 265 87 265 87 304 105 c 1,7,-1
 328 57 l 1,8,9
 296 28 296 28 247 8 c 128,-1,10
 198 -12 198 -12 152.5 -12 c 128,-1,11
 107 -12 107 -12 80 11.5 c 128,-1,12
 53 35 53 35 53 78 c 128,-1,13
 53 121 53 121 78 216 c 128,-1,14
 103 311 103 311 111 357 c 1,15,16
 87 355 87 355 40 350 c 1,17,18
 36 371 36 371 36 389.5 c 128,-1,19
 36 408 36 408 41 431 c 1,20,-1
 121 431 l 1,21,22
 122 444 122 444 122 518 c 1,23,-1
 120 559 l 1,24,25
 217 591 217 591 305 591 c 1,26,27
 312 575 312 575 312 535.5 c 128,-1,28
 312 496 312 496 299 431 c 1,29,-1
 389 431 l 1,30,31
 389 390 389 390 372 354 c 1,0,-1
EndSplineSet
EndChar

StartChar: u
Encoding: 117 117 88
Width: 542
GlyphClass: 2
Flags: W
LayerCount: 2
Fore
SplineSet
61.5 219 m 128,-1,1
 88 315 88 315 88 337 c 128,-1,2
 88 359 88 359 52 401 c 1,3,-1
 54 416 l 1,4,5
 145 436 145 436 267 436 c 1,6,7
 275 419 275 419 275 382 c 128,-1,8
 275 345 275 345 247.5 242 c 128,-1,9
 220 139 220 139 220 120 c 0,10,11
 220 94 220 94 245 94 c 0,12,13
 262 94 262 94 288 107 c 1,14,15
 291 123 291 123 306 191 c 0,16,17
 341 342 341 342 341 417 c 1,18,19
 387 437 387 437 498 437 c 2,20,-1
 525 437 l 1,21,22
 525 392 525 392 498.5 261 c 128,-1,23
 472 130 472 130 471.5 110 c 128,-1,24
 471 90 471 90 480 90 c 1,25,-1
 529 103 l 1,26,-1
 547 53 l 1,27,28
 518 30 518 30 463 9 c 128,-1,29
 408 -12 408 -12 366 -12 c 0,30,31
 304 -12 304 -12 289 38 c 1,32,33
 206 -12 206 -12 130 -12 c 0,34,35
 35 -12 35 -12 35 81 c 0,36,0
 35 123 35 123 61.5 219 c 128,-1,1
EndSplineSet
EndChar

StartChar: v
Encoding: 118 118 89
Width: 427
GlyphClass: 2
Flags: W
LayerCount: 2
Fore
SplineSet
49 114 m 1,0,-1
 62 323 l 1,1,2
 62 350 62 350 54.5 365.5 c 128,-1,3
 47 381 47 381 24 409 c 1,4,-1
 28 424 l 1,5,6
 105 442 105 442 156 442 c 128,-1,7
 207 442 207 442 227.5 418.5 c 128,-1,8
 248 395 248 395 248 352 c 128,-1,9
 248 309 248 309 232.5 226 c 128,-1,10
 217 143 217 143 217 116.5 c 128,-1,11
 217 90 217 90 232 90 c 0,12,13
 256 90 256 90 294.5 135.5 c 128,-1,14
 333 181 333 181 345 225 c 1,15,-1
 271 296 l 1,16,17
 275 338 275 338 289 374.5 c 128,-1,18
 303 411 303 411 314 426 c 2,19,-1
 326 442 l 1,20,21
 447 442 447 442 447 342 c 0,22,23
 447 277 447 277 407.5 195.5 c 128,-1,24
 368 114 368 114 297 51 c 128,-1,25
 226 -12 226 -12 150 -12 c 0,26,27
 49 -12 49 -12 49 114 c 1,0,-1
EndSplineSet
EndChar

StartChar: w
Encoding: 119 119 90
Width: 660
GlyphClass: 2
Flags: W
LayerCount: 2
Fore
SplineSet
49 109 m 1,0,-1
 59 329 l 2,1,2
 59 350 59 350 53 365.5 c 128,-1,3
 47 381 47 381 24 408 c 1,4,-1
 27 424 l 1,5,6
 103 443 103 443 153 443 c 128,-1,7
 203 443 203 443 224.5 419 c 128,-1,8
 246 395 246 395 246 352.5 c 128,-1,9
 246 310 246 310 231 228 c 128,-1,10
 216 146 216 146 216 117.5 c 128,-1,11
 216 89 216 89 232 89 c 0,12,13
 254 89 254 89 287 115 c 1,14,15
 288 132 288 132 296 213 c 128,-1,16
 304 294 304 294 304 333.5 c 128,-1,17
 304 373 304 373 298 403 c 1,18,19
 321 415 321 415 378 425 c 128,-1,20
 435 435 435 435 474 435 c 1,21,22
 483 417 483 417 483 378.5 c 128,-1,23
 483 340 483 340 466 244.5 c 128,-1,24
 449 149 449 149 449 119.5 c 128,-1,25
 449 90 449 90 465 90 c 0,26,27
 489 90 489 90 527 137.5 c 128,-1,28
 565 185 565 185 577 224 c 1,29,-1
 504 296 l 1,30,31
 508 337 508 337 522 373.5 c 128,-1,32
 536 410 536 410 548 426 c 2,33,-1
 559 442 l 1,34,35
 680 442 680 442 680 344 c 0,36,37
 680 297 680 297 654.5 235 c 128,-1,38
 629 173 629 173 590 118.5 c 128,-1,39
 551 64 551 64 497 26 c 128,-1,40
 443 -12 443 -12 392 -12 c 0,41,42
 321 -12 321 -12 295 49 c 1,43,44
 222 -11 222 -11 145 -11 c 0,45,46
 99 -11 99 -11 74 16 c 128,-1,47
 49 43 49 43 49 109 c 1,0,-1
EndSplineSet
EndChar

StartChar: x
Encoding: 120 120 91
Width: 424
GlyphClass: 2
Flags: W
LayerCount: 2
Fore
SplineSet
378 90 m 0,0,1
 390 90 390 90 422 105 c 1,2,-1
 444 56 l 1,3,4
 420 32 420 32 368.5 10 c 128,-1,5
 317 -12 317 -12 278 -12 c 128,-1,6
 239 -12 239 -12 217 4.5 c 128,-1,7
 195 21 195 21 180 62 c 0,8,9
 174 76 174 76 157 126 c 1,10,11
 119 81 119 81 84 -12 c 1,12,13
 62 -12 62 -12 30 -1.5 c 128,-1,14
 -2 9 -2 9 -20 22 c 1,15,16
 41 123 41 123 133 198 c 1,17,18
 99 301 99 301 79 340 c 1,19,20
 71 360 71 360 31 400 c 1,21,-1
 34 415 l 1,22,23
 105 434 105 434 221 438 c 1,24,25
 231 435 231 435 244 417.5 c 128,-1,26
 257 400 257 400 264 377 c 2,27,-1
 284 307 l 1,28,29
 302 334 302 334 309 348 c 2,30,-1
 319 368 l 2,31,32
 329 388 329 388 331 397 c 0,33,34
 337 423 337 423 344 441 c 1,35,36
 386 437 386 437 427 415 c 2,37,-1
 440 408 l 1,38,39
 391 315 391 315 305 237 c 1,40,41
 348 90 348 90 378 90 c 0,0,1
EndSplineSet
EndChar

StartChar: y
Encoding: 121 121 92
Width: 505
GlyphClass: 2
Flags: W
LayerCount: 2
Fore
SplineSet
499 436 m 2,0,-1
 507 436 l 1,1,2
 502 410 502 410 490 324 c 0,3,4
 463 128 463 128 432 28 c 0,5,6
 355 -224 355 -224 185 -224 c 0,7,8
 134 -224 134 -224 102.5 -202.5 c 128,-1,9
 71 -181 71 -181 71 -146.5 c 128,-1,10
 71 -112 71 -112 87.5 -89.5 c 128,-1,11
 104 -67 104 -67 135 -52 c 0,12,13
 188 -26 188 -26 265 -9 c 1,14,15
 273 29 273 29 275 40 c 1,16,17
 197 -2 197 -2 127 -2 c 0,18,19
 31 -2 31 -2 31 92 c 0,20,21
 31 125 31 125 53 221.5 c 128,-1,22
 75 318 75 318 75 355 c 128,-1,23
 75 392 75 392 70 410 c 1,24,25
 188 435 188 435 253 435 c 1,26,27
 261 423 261 423 261 387.5 c 128,-1,28
 261 352 261 352 238.5 250 c 128,-1,29
 216 148 216 148 216 130 c 0,30,31
 216 99 216 99 246 99 c 0,32,33
 263 99 263 99 285 108 c 1,34,35
 293 159 293 159 307.5 263.5 c 128,-1,36
 322 368 322 368 328 407 c 1,37,38
 354 419 354 419 406.5 427.5 c 128,-1,39
 459 436 459 436 499 436 c 2,0,-1
142 -127 m 0,40,41
 142 -150 142 -150 172 -150 c 0,42,43
 187 -150 187 -150 211.5 -129.5 c 128,-1,44
 236 -109 236 -109 251 -69 c 1,45,46
 142 -88 142 -88 142 -127 c 0,40,41
EndSplineSet
EndChar

StartChar: z
Encoding: 122 122 93
Width: 425
GlyphClass: 2
Flags: W
LayerCount: 2
Fore
SplineSet
150 440 m 1,0,-1
 355 435 l 2,1,2
 390 435 390 435 420 438 c 1,3,-1
 429 404 l 1,4,5
 284 236 284 236 222 150 c 1,6,7
 321 124 321 124 347.5 123.5 c 128,-1,8
 374 123 374 123 391 165 c 1,9,-1
 434 150 l 1,10,11
 416 -26 416 -26 319 -26 c 0,12,13
 285 -26 285 -26 226.5 7 c 128,-1,14
 168 40 168 40 151 46 c 1,15,16
 103 -5 103 -5 79.5 -5 c 128,-1,17
 56 -5 56 -5 28 22.5 c 128,-1,18
 0 50 0 50 0 74 c 128,-1,19
 0 98 0 98 35.5 133 c 128,-1,20
 71 168 71 168 111 168 c 0,21,22
 121 168 121 168 141 166 c 1,23,24
 200 221 200 221 245 311 c 1,25,26
 123 311 123 311 61 275 c 1,27,28
 49 323 49 323 49 358 c 128,-1,29
 49 393 49 393 51 419 c 1,30,31
 67 440 67 440 150 440 c 1,0,-1
EndSplineSet
EndChar

StartChar: braceleft
Encoding: 123 123 94
Width: 468
GlyphClass: 2
Flags: W
LayerCount: 2
Fore
SplineSet
222 390 m 2,0,-1
 219 596 l 2,1,2
 219 661 219 661 257 698 c 128,-1,3
 295 735 295 735 358.5 735 c 128,-1,4
 422 735 422 735 487 708 c 1,5,-1
 479 658 l 1,6,7
 475 658 475 658 471 658 c 0,8,9
 412 658 412 658 400 644 c 128,-1,10
 388 630 388 630 380 572 c 128,-1,11
 372 514 372 514 365.5 433 c 128,-1,12
 359 352 359 352 355 325 c 0,13,14
 348 273 348 273 286 251 c 1,15,16
 309 243 309 243 322.5 223 c 128,-1,17
 336 203 336 203 336 172.5 c 128,-1,18
 336 142 336 142 318 29 c 128,-1,19
 300 -84 300 -84 300 -104 c 128,-1,20
 300 -124 300 -124 303 -131 c 0,21,22
 308 -145 308 -145 327 -154.5 c 128,-1,23
 346 -164 346 -164 363 -166 c 2,24,-1
 380 -169 l 1,25,-1
 374 -219 l 1,26,27
 345 -224 345 -224 307 -224 c 0,28,29
 130 -224 130 -224 130 -112 c 0,30,31
 130 -76 130 -76 164.5 42.5 c 128,-1,32
 199 161 199 161 207 206 c 1,33,34
 197 218 197 218 108 226 c 1,35,-1
 78 228 l 1,36,37
 79 275 79 275 88 313 c 1,38,39
 174 299 174 299 207 299 c 1,40,-1
 218 300 l 1,41,42
 222 337 222 337 222 390 c 2,0,-1
EndSplineSet
EndChar

StartChar: bar
Encoding: 124 124 95
Width: 268
GlyphClass: 2
Flags: W
LayerCount: 2
Fore
SplineSet
204 796 m 1,0,-1
 204 -143 l 1,1,2
 160 -149 160 -149 109 -149 c 1,3,-1
 109 791 l 1,4,5
 172 796 172 796 204 796 c 1,0,-1
EndSplineSet
EndChar

StartChar: braceright
Encoding: 125 125 96
Width: 471
GlyphClass: 2
Flags: W
LayerCount: 2
Fore
SplineSet
293 121 m 2,0,-1
 296 -85 l 2,1,2
 296 -150 296 -150 258 -187 c 128,-1,3
 220 -224 220 -224 156 -224 c 128,-1,4
 92 -224 92 -224 28 -197 c 1,5,-1
 36 -147 l 1,6,7
 102 -147 102 -147 115 -133.5 c 128,-1,8
 128 -120 128 -120 135.5 -62 c 128,-1,9
 143 -4 143 -4 149.5 77.5 c 128,-1,10
 156 159 156 159 160 186 c 0,11,12
 167 238 167 238 229 260 c 1,13,14
 206 268 206 268 192.5 288 c 128,-1,15
 179 308 179 308 179 338.5 c 128,-1,16
 179 369 179 369 197 482.5 c 128,-1,17
 215 596 215 596 215 615 c 128,-1,18
 215 634 215 634 211 645 c 128,-1,19
 207 656 207 656 188 665.5 c 128,-1,20
 169 675 169 675 152 678 c 2,21,-1
 135 680 l 1,22,-1
 141 730 l 1,23,24
 170 735 170 735 208 735 c 0,25,26
 385 735 385 735 385 623 c 0,27,28
 385 587 385 587 350.5 468.5 c 128,-1,29
 316 350 316 350 308 305 c 1,30,31
 318 293 318 293 407 286 c 1,32,-1
 437 283 l 1,33,34
 436 236 436 236 427 198 c 1,35,36
 341 212 341 212 308 212 c 1,37,-1
 297 211 l 1,38,39
 293 174 293 174 293 121 c 2,0,-1
EndSplineSet
EndChar

StartChar: asciitilde
Encoding: 126 126 97
Width: 540
GlyphClass: 2
Flags: W
LayerCount: 2
Fore
SplineSet
384 224 m 0,0,1
 360 224 360 224 275.5 237.5 c 128,-1,2
 191 251 191 251 166.5 251 c 128,-1,3
 142 251 142 251 126.5 243 c 128,-1,4
 111 235 111 235 95 211 c 1,5,-1
 44 224 l 1,6,7
 60 376 60 376 181 376 c 0,8,9
 206 376 206 376 288.5 362.5 c 128,-1,10
 371 349 371 349 406.5 349 c 128,-1,11
 442 349 442 349 465 382 c 1,12,-1
 513 370 l 1,13,14
 497 224 497 224 384 224 c 0,0,1
EndSplineSet
EndChar

StartChar: exclamdown
Encoding: 161 161 99
Width: 311
GlyphClass: 2
Flags: W
LayerCount: 2
Fore
SplineSet
286 430 m 128,-1,1
 309 408 309 408 309 370 c 128,-1,2
 309 332 309 332 278 303.5 c 128,-1,3
 247 275 247 275 203.5 275 c 128,-1,4
 160 275 160 275 136.5 298.5 c 128,-1,5
 113 322 113 322 113 359 c 128,-1,6
 113 396 113 396 145 424 c 128,-1,7
 177 452 177 452 220 452 c 128,-1,0
 263 452 263 452 286 430 c 128,-1,1
13 -231 m 0,8,9
 13 -158 13 -158 60.5 9.5 c 128,-1,10
 108 177 108 177 129 213 c 1,11,12
 160 224 160 224 188 224 c 128,-1,13
 216 224 216 224 236 220 c 1,14,15
 210 -25 210 -25 210 -163 c 1,16,-1
 216 -250 l 1,17,18
 106 -284 106 -284 26 -284 c 1,19,20
 13 -268 13 -268 13 -231 c 0,8,9
EndSplineSet
EndChar

StartChar: cent
Encoding: 162 162 100
Width: 415
GlyphClass: 2
Flags: W
LayerCount: 2
Fore
SplineSet
282 376 m 0,0,1
 251 376 251 376 229 321 c 128,-1,2
 207 266 207 266 207 210 c 0,3,4
 207 87 207 87 278 87 c 0,5,6
 323 87 323 87 380 130 c 1,7,-1
 412 86 l 1,8,9
 332 -1 332 -1 216 -11 c 1,10,11
 211 -51 211 -51 211 -116 c 1,12,13
 172 -116 172 -116 127 -102 c 1,14,-1
 145 -6 l 1,15,16
 87 7 87 7 53.5 53.5 c 128,-1,17
 20 100 20 100 20 179 c 0,18,19
 20 282 20 282 76.5 352.5 c 128,-1,20
 133 423 133 423 229 439 c 1,21,22
 234 488 234 488 238 562 c 1,23,24
 274 562 274 562 319 548 c 1,25,-1
 298 442 l 1,26,27
 365 438 365 438 402.5 408 c 128,-1,28
 440 378 440 378 440 333.5 c 128,-1,29
 440 289 440 289 412 255 c 1,30,31
 379 255 379 255 340.5 267.5 c 128,-1,32
 302 280 302 280 279 299 c 1,33,-1
 294 374 l 1,34,35
 288 376 288 376 282 376 c 0,0,1
EndSplineSet
EndChar

StartChar: sterling
Encoding: 163 163 101
Width: 551
GlyphClass: 2
Flags: W
LayerCount: 2
Fore
SplineSet
385 733 m 0,0,1
 468 733 468 733 523.5 698.5 c 128,-1,2
 579 664 579 664 579 610 c 0,3,4
 579 570 579 570 546 528 c 1,5,6
 451 528 451 528 408 566 c 1,7,-1
 419 653 l 1,8,9
 410 662 410 662 395 662 c 128,-1,10
 380 662 380 662 370 652 c 1,11,12
 355 634 355 634 347 604 c 128,-1,13
 339 574 339 574 330 519 c 128,-1,14
 321 464 321 464 310 411 c 1,15,-1
 468 411 l 1,16,17
 466 388 466 388 452 356 c 1,18,-1
 447 346 l 1,19,20
 374 352 374 352 295 352 c 1,21,22
 263 235 263 235 225 158 c 1,23,24
 351 123 351 123 414 123 c 0,25,26
 440 123 440 123 457 144 c 0,27,28
 472 162 472 162 484 185 c 1,29,-1
 538 164 l 1,30,31
 518 70 518 70 485 26 c 128,-1,32
 452 -18 452 -18 403 -18 c 0,33,34
 371 -18 371 -18 337.5 -5 c 128,-1,35
 304 8 304 8 257.5 32.5 c 128,-1,36
 211 57 211 57 183 69 c 1,37,38
 155 34 155 34 120 11.5 c 128,-1,39
 85 -11 85 -11 70.5 -11 c 128,-1,40
 56 -11 56 -11 22.5 33.5 c 128,-1,41
 -11 78 -11 78 -11 99 c 0,42,43
 -11 109 -11 109 26 135.5 c 128,-1,44
 63 162 63 162 97 169 c 1,45,46
 113 218 113 218 127 343 c 1,47,48
 108 341 108 341 78 335 c 1,49,50
 75 349 75 349 75 368.5 c 128,-1,51
 75 388 75 388 78 411 c 1,52,-1
 135 411 l 1,53,-1
 146 505 l 2,54,55
 162 646 162 646 227 692 c 0,56,57
 260 716 260 716 296.5 724.5 c 128,-1,58
 333 733 333 733 385 733 c 0,0,1
EndSplineSet
EndChar

StartChar: currency
Encoding: 164 164 102
Width: 696
GlyphClass: 2
Flags: W
LayerCount: 2
Fore
SplineSet
152 222 m 1,0,1
 123 276 123 276 123 345.5 c 128,-1,2
 123 415 123 415 146 464 c 1,3,4
 83 518 83 518 44 568 c 1,5,6
 82 610 82 610 101.5 626 c 128,-1,7
 121 642 121 642 142.5 642.5 c 128,-1,8
 164 643 164 643 185 616 c 2,9,-1
 229 556 l 1,10,11
 283 587 283 587 360 587 c 128,-1,12
 437 587 437 587 493 555 c 1,13,14
 502 567 502 567 517 588 c 128,-1,15
 532 609 532 609 538 616 c 0,16,17
 559 643 559 643 583 643 c 1,18,19
 602 641 602 641 622 626 c 128,-1,20
 642 611 642 611 679 569 c 1,21,22
 644 524 644 524 576 464 c 1,23,24
 600 413 600 413 600 347 c 128,-1,25
 600 281 600 281 575 230 c 1,26,27
 643 170 643 170 681 123 c 1,28,29
 644 82 644 82 624.5 67.5 c 128,-1,30
 605 53 605 53 586 51 c 1,31,32
 562 51 562 51 541 78 c 0,33,34
 535 86 535 86 519 108 c 128,-1,35
 503 130 503 130 493 142 c 1,36,37
 439 111 439 111 364.5 111 c 128,-1,38
 290 111 290 111 238 137 c 1,39,40
 196 79 196 79 195 78 c 0,41,42
 174 51 174 51 150 51 c 1,43,44
 131 53 131 53 111.5 67.5 c 128,-1,45
 92 82 92 82 55 123 c 1,46,47
 88 165 88 165 152 222 c 1,0,1
361 468 m 0,48,49
 253 468 253 468 253 349.5 c 128,-1,50
 253 231 253 231 361 231 c 0,51,52
 417 231 417 231 443 263 c 128,-1,53
 469 295 469 295 469 349 c 128,-1,54
 469 403 469 403 443 435.5 c 128,-1,55
 417 468 417 468 361 468 c 0,48,49
EndSplineSet
EndChar

StartChar: yen
Encoding: 165 165 103
Width: 516
GlyphClass: 2
Flags: W
LayerCount: 2
Fore
SplineSet
60 270 m 128,-1,1
 60 289 60 289 63 310 c 1,2,-1
 185 310 l 1,3,4
 159 346 159 346 139 466 c 128,-1,5
 119 586 119 586 114 602 c 0,6,7
 104 630 104 630 70 657 c 1,8,-1
 58 666 l 1,9,-1
 61 689 l 1,10,11
 163 706 163 706 269 706 c 1,12,13
 296 687 296 687 302 647.5 c 128,-1,14
 308 608 308 608 313 526.5 c 128,-1,15
 318 445 318 445 322 424 c 1,16,-1
 327 424 l 1,17,18
 352 468 352 468 385.5 555.5 c 128,-1,19
 419 643 419 643 436 710 c 1,20,21
 464 710 464 710 504 702.5 c 128,-1,22
 544 695 544 695 562 685 c 1,23,24
 555 674 555 674 482 528 c 128,-1,25
 409 382 409 382 364 310 c 1,26,-1
 481 310 l 1,27,28
 479 283 479 283 466 256 c 1,29,-1
 462 246 l 1,30,31
 417 249 417 249 348 249 c 1,32,-1
 341 207 l 1,33,-1
 468 207 l 1,34,35
 466 180 466 180 454 153 c 1,36,-1
 449 143 l 1,37,38
 401 147 401 147 333 149 c 1,39,40
 326 79 326 79 326 28 c 1,41,42
 283 0 283 0 138 0 c 2,43,-1
 133 0 l 1,44,45
 133 44 133 44 152 144 c 1,46,47
 107 140 107 140 50 133 c 1,48,49
 47 149 47 149 47 168.5 c 128,-1,50
 47 188 47 188 50 207 c 1,51,-1
 165 207 l 1,52,-1
 174 247 l 1,53,54
 107 244 107 244 62 238 c 1,55,0
 60 251 60 251 60 270 c 128,-1,1
EndSplineSet
EndChar

StartChar: brokenbar
Encoding: 166 166 104
Width: 278
GlyphClass: 2
Flags: W
LayerCount: 2
Fore
SplineSet
109 -149 m 1,0,-1
 109 292 l 1,1,-1
 204 292 l 1,2,-1
 204 -143 l 1,3,4
 161 -149 161 -149 109 -149 c 1,0,-1
204 797 m 1,5,-1
 204 399 l 1,6,-1
 109 399 l 1,7,-1
 109 791 l 1,8,9
 136 797 136 797 204 797 c 1,5,-1
EndSplineSet
EndChar

StartChar: section
Encoding: 167 167 105
Width: 502
GlyphClass: 2
Flags: W
LayerCount: 2
Fore
SplineSet
347 666 m 0,0,1
 285 666 285 666 285 610 c 0,2,3
 285 557 285 557 387 455 c 0,4,5
 424 418 424 418 455 367 c 128,-1,6
 486 316 486 316 486 269 c 128,-1,7
 486 222 486 222 444 181 c 128,-1,8
 402 140 402 140 334 114 c 1,9,10
 391 42 391 42 391 -23.5 c 128,-1,11
 391 -89 391 -89 335 -131.5 c 128,-1,12
 279 -174 279 -174 199.5 -174 c 128,-1,13
 120 -174 120 -174 62.5 -144.5 c 128,-1,14
 5 -115 5 -115 5 -91 c 1,15,16
 7 -62 7 -62 43 -28.5 c 128,-1,17
 79 5 79 5 115 15 c 1,18,19
 152 -10 152 -10 176 -60 c 0,20,21
 183 -76 183 -76 194 -107 c 1,22,23
 214 -102 214 -102 221 -93 c 128,-1,24
 228 -84 228 -84 228 -61.5 c 128,-1,25
 228 -39 228 -39 207.5 -5.5 c 128,-1,26
 187 28 187 28 157.5 61 c 128,-1,27
 128 94 128 94 99 129 c 0,28,29
 29 213 29 213 29 286 c 0,30,31
 29 342 29 342 68.5 381.5 c 128,-1,32
 108 421 108 421 174 441 c 1,33,34
 117 514 117 514 117 580 c 128,-1,35
 117 646 117 646 184.5 690 c 128,-1,36
 252 734 252 734 329.5 734 c 128,-1,37
 407 734 407 734 451.5 698.5 c 128,-1,38
 496 663 496 663 496 609 c 128,-1,39
 496 555 496 555 436 504 c 1,40,41
 382 513 382 513 356 551 c 1,42,43
 372 563 372 563 385 582.5 c 128,-1,44
 398 602 398 602 398 622 c 128,-1,45
 398 642 398 642 383.5 654 c 128,-1,46
 369 666 369 666 347 666 c 0,0,1
296 285 m 128,-1,48
 281 307 281 307 274 316 c 0,49,50
 259 338 259 338 226 376 c 1,51,52
 199 354 199 354 199 315 c 0,53,54
 199 284 199 284 236 242 c 0,55,56
 246 230 246 230 251.5 223.5 c 128,-1,57
 257 217 257 217 270 203 c 128,-1,58
 283 189 283 189 288 183 c 1,59,60
 311 206 311 206 311 234.5 c 128,-1,47
 311 263 311 263 296 285 c 128,-1,48
EndSplineSet
EndChar

StartChar: dieresis
Encoding: 168 168 106
Width: 548
GlyphClass: 2
Flags: W
LayerCount: 2
Fore
SplineSet
108 550 m 128,-1,1
 87 570 87 570 87 601.5 c 128,-1,2
 87 633 87 633 113 654.5 c 128,-1,3
 139 676 139 676 176 676 c 128,-1,4
 213 676 213 676 233.5 658.5 c 128,-1,5
 254 641 254 641 254 609 c 128,-1,6
 254 577 254 577 228.5 553.5 c 128,-1,7
 203 530 203 530 166 530 c 128,-1,0
 129 530 129 530 108 550 c 128,-1,1
319 550 m 128,-1,9
 298 570 298 570 298 601.5 c 128,-1,10
 298 633 298 633 324 654.5 c 128,-1,11
 350 676 350 676 387 676 c 128,-1,12
 424 676 424 676 444.5 658.5 c 128,-1,13
 465 641 465 641 465 609 c 128,-1,14
 465 577 465 577 439.5 553.5 c 128,-1,15
 414 530 414 530 377 530 c 128,-1,8
 340 530 340 530 319 550 c 128,-1,9
EndSplineSet
EndChar

StartChar: copyright
Encoding: 169 169 107
Width: 794
GlyphClass: 2
Flags: W
LayerCount: 2
Fore
SplineSet
552 388 m 0,0,1
 481 388 481 388 452 409 c 1,2,-1
 456 499 l 1,3,4
 453 505 453 505 436 505 c 0,5,6
 405 505 405 505 383.5 460 c 128,-1,7
 362 415 362 415 362 346 c 0,8,9
 362 218 362 218 442 218 c 0,10,11
 498 218 498 218 538 258 c 1,12,-1
 576 211 l 1,13,14
 573 208 573 208 568.5 202 c 128,-1,15
 564 196 564 196 546.5 182 c 128,-1,16
 529 168 529 168 510 157 c 0,17,18
 460 128 460 128 396 128 c 0,19,20
 312 128 312 128 252 180 c 128,-1,21
 192 232 192 232 192 328.5 c 128,-1,22
 192 425 192 425 264.5 498 c 128,-1,23
 337 571 337 571 445 571 c 0,24,25
 514 571 514 571 560.5 539.5 c 128,-1,26
 607 508 607 508 607 455 c 0,27,28
 607 435 607 435 601 413.5 c 128,-1,29
 595 392 595 392 589 390 c 1,30,31
 572 388 572 388 552 388 c 0,0,1
130 86.5 m 128,-1,33
 32 188 32 188 32 344 c 128,-1,34
 32 500 32 500 131 603.5 c 128,-1,35
 230 707 230 707 409 707 c 128,-1,36
 588 707 588 707 685 606 c 128,-1,37
 782 505 782 505 782 347 c 128,-1,38
 782 189 782 189 685 87 c 128,-1,39
 588 -15 588 -15 408 -15 c 128,-1,32
 228 -15 228 -15 130 86.5 c 128,-1,33
195 553.5 m 128,-1,41
 119 470 119 470 119 344.5 c 128,-1,42
 119 219 119 219 194 137 c 128,-1,43
 269 55 269 55 408.5 55 c 128,-1,44
 548 55 548 55 622.5 137.5 c 128,-1,45
 697 220 697 220 697 347.5 c 128,-1,46
 697 475 697 475 622.5 556 c 128,-1,47
 548 637 548 637 409.5 637 c 128,-1,40
 271 637 271 637 195 553.5 c 128,-1,41
EndSplineSet
EndChar

StartChar: ordfeminine
Encoding: 170 170 108
Width: 414
GlyphClass: 2
Flags: W
LayerCount: 2
Fore
SplineSet
236 339 m 1,0,1
 192 310 192 310 151 310 c 128,-1,2
 110 310 110 310 81.5 343 c 128,-1,3
 53 376 53 376 53 436 c 0,4,5
 53 532 53 532 105.5 598 c 128,-1,6
 158 664 158 664 245 664 c 0,7,8
 279 664 279 664 301 658 c 0,9,10
 356 643 356 643 392 631 c 1,11,12
 376 584 376 584 362.5 507.5 c 128,-1,13
 349 431 349 431 349 398 c 0,14,15
 349 388 349 388 357 388 c 1,16,-1
 385 396 l 1,17,-1
 399 361 l 1,18,19
 382 344 382 344 348.5 326.5 c 128,-1,20
 315 309 315 309 283 309 c 128,-1,21
 251 309 251 309 236 339 c 1,0,1
242 602 m 0,22,23
 219 602 219 602 203 547 c 128,-1,24
 187 492 187 492 187 441 c 128,-1,25
 187 390 187 390 204 390 c 0,26,27
 213 390 213 390 225 400 c 1,28,29
 232 485 232 485 261 599 c 1,30,31
 249 602 249 602 242 602 c 0,22,23
EndSplineSet
EndChar

StartChar: guillemotleft
Encoding: 171 171 109
Width: 523
GlyphClass: 2
Flags: W
LayerCount: 2
Fore
SplineSet
114 194.5 m 128,-1,1
 44 265 44 265 44 289.5 c 128,-1,2
 44 314 44 314 111 378 c 128,-1,3
 178 442 178 442 253 502 c 1,4,-1
 299 461 l 1,5,6
 221 350 221 350 194 295 c 1,7,8
 219 226 219 226 270 136 c 1,9,-1
 225 95 l 1,10,0
 184 124 184 124 114 194.5 c 128,-1,1
315 194.5 m 128,-1,12
 245 265 245 265 245 289.5 c 128,-1,13
 245 314 245 314 312 378 c 128,-1,14
 379 442 379 442 454 502 c 1,15,-1
 500 461 l 1,16,17
 422 350 422 350 395 295 c 1,18,19
 420 226 420 226 471 136 c 1,20,-1
 426 95 l 1,21,11
 385 124 385 124 315 194.5 c 128,-1,12
EndSplineSet
EndChar

StartChar: logicalnot
Encoding: 172 172 110
Width: 455
GlyphClass: 2
Flags: W
LayerCount: 2
Fore
SplineSet
404 389 m 1,0,-1
 404 169 l 1,1,2
 370 157 370 157 307 157 c 1,3,-1
 307 296 l 1,4,-1
 46 296 l 1,5,6
 46 357 46 357 52 389 c 1,7,-1
 404 389 l 1,0,-1
EndSplineSet
EndChar

StartChar: uni00AD
Encoding: 173 173 111
Width: 590
GlyphClass: 2
Flags: W
LayerCount: 2
Fore
SplineSet
493 234 m 1,0,-1
 124 234 l 1,1,2
 121 276 121 276 121 324 c 1,3,-1
 490 324 l 1,4,5
 493 269 493 269 493 234 c 1,0,-1
EndSplineSet
EndChar

StartChar: registered
Encoding: 174 174 112
Width: 794
GlyphClass: 2
Flags: W
LayerCount: 2
Fore
SplineSet
448 461 m 0,0,1
 448 504 448 504 420 504 c 1,2,-1
 403 503 l 1,3,4
 400 482 400 482 394.5 439.5 c 128,-1,5
 389 397 389 397 386 374 c 1,6,7
 448 378 448 378 448 461 c 0,0,1
261 469 m 0,8,9
 261 484 261 484 240 518 c 1,10,-1
 245 544 l 1,11,12
 339 567 339 567 446 567 c 0,13,14
 513 567 513 567 556.5 539.5 c 128,-1,15
 600 512 600 512 600 467.5 c 128,-1,16
 600 423 600 423 576.5 388.5 c 128,-1,17
 553 354 553 354 508 337 c 1,18,19
 525 296 525 296 547 258 c 128,-1,20
 569 220 569 220 581 220 c 1,21,-1
 603 222 l 1,22,-1
 618 187 l 1,23,24
 567 147 567 147 507 147 c 0,25,26
 462 147 462 147 436 170 c 0,27,28
 426 179 426 179 417.5 197.5 c 128,-1,29
 409 216 409 216 406 229 c 128,-1,30
 403 242 403 242 397 268.5 c 128,-1,31
 391 295 391 295 388 308 c 1,32,-1
 378 308 l 1,33,34
 363 216 363 216 362 167 c 1,35,36
 323 150 323 150 246 150 c 0,37,38
 230 150 230 150 210 155 c 1,39,40
 215 195 215 195 238 314.5 c 128,-1,41
 261 434 261 434 261 469 c 0,8,9
130 86.5 m 128,-1,43
 32 188 32 188 32 344 c 128,-1,44
 32 500 32 500 131 603.5 c 128,-1,45
 230 707 230 707 409 707 c 128,-1,46
 588 707 588 707 685 606 c 128,-1,47
 782 505 782 505 782 347 c 128,-1,48
 782 189 782 189 685 87 c 128,-1,49
 588 -15 588 -15 408 -15 c 128,-1,42
 228 -15 228 -15 130 86.5 c 128,-1,43
195 553.5 m 128,-1,51
 119 470 119 470 119 344.5 c 128,-1,52
 119 219 119 219 194 137 c 128,-1,53
 269 55 269 55 408.5 55 c 128,-1,54
 548 55 548 55 622.5 137.5 c 128,-1,55
 697 220 697 220 697 347.5 c 128,-1,56
 697 475 697 475 622.5 556 c 128,-1,57
 548 637 548 637 409.5 637 c 128,-1,50
 271 637 271 637 195 553.5 c 128,-1,51
EndSplineSet
EndChar

StartChar: macron
Encoding: 175 175 113
Width: 502
GlyphClass: 2
Flags: W
LayerCount: 2
Fore
SplineSet
135 575 m 1,0,1
 132 590 132 590 132 614 c 128,-1,2
 132 638 132 638 136 664 c 1,3,-1
 507 664 l 1,4,-1
 498 578 l 1,5,6
 434 582 434 582 312 582 c 128,-1,7
 190 582 190 582 135 575 c 1,0,1
EndSplineSet
EndChar

StartChar: degree
Encoding: 176 176 114
Width: 255
GlyphClass: 2
Flags: W
LayerCount: 2
Fore
SplineSet
287 687.5 m 128,-1,1
 325 658 325 658 325 608.5 c 128,-1,2
 325 559 325 559 287.5 518.5 c 128,-1,3
 250 478 250 478 172 478 c 0,4,5
 117 478 117 478 77 506 c 128,-1,6
 37 534 37 534 37 588.5 c 128,-1,7
 37 643 37 643 77 680 c 128,-1,8
 117 717 117 717 183 717 c 128,-1,0
 249 717 249 717 287 687.5 c 128,-1,1
146 558 m 128,-1,10
 155 544 155 544 177.5 544 c 128,-1,11
 200 544 200 544 211.5 565.5 c 128,-1,12
 223 587 223 587 223 605.5 c 128,-1,13
 223 624 223 624 214 637.5 c 128,-1,14
 205 651 205 651 183.5 651 c 128,-1,15
 162 651 162 651 149.5 631 c 128,-1,16
 137 611 137 611 137 591.5 c 128,-1,9
 137 572 137 572 146 558 c 128,-1,10
EndSplineSet
EndChar

StartChar: plusminus
Encoding: 177 177 115
Width: 583
GlyphClass: 2
Flags: W
LayerCount: 2
Fore
SplineSet
329 303 m 1,0,-1
 329 161 l 1,1,2
 299 153 299 153 239 153 c 2,3,-1
 232 153 l 1,4,-1
 232 303 l 1,5,-1
 77 303 l 1,6,7
 77 363 77 363 81 396 c 1,8,-1
 232 396 l 1,9,-1
 232 536 l 1,10,11
 264 541 264 541 328 541 c 1,12,-1
 328 396 l 1,13,-1
 498 396 l 1,14,15
 498 318 498 318 493 303 c 1,16,-1
 329 303 l 1,0,-1
77 9 m 1,17,18
 77 75 77 75 87 102 c 1,19,-1
 499 102 l 1,20,21
 499 33 499 33 494 9 c 1,22,-1
 77 9 l 1,17,18
EndSplineSet
EndChar

StartChar: twosuperior
Encoding: 178 178 116
Width: 397
GlyphClass: 2
Flags: W
LayerCount: 2
Fore
SplineSet
315 345 m 0,0,1
 277 345 277 345 230.5 365 c 128,-1,2
 184 385 184 385 173 389 c 1,3,4
 119 354 119 354 91 354 c 0,5,6
 79 354 79 354 60.5 374.5 c 128,-1,7
 42 395 42 395 42 405 c 128,-1,8
 42 415 42 415 66 439.5 c 128,-1,9
 90 464 90 464 108 464 c 128,-1,10
 126 464 126 464 138 462 c 1,11,12
 173 487 173 487 203.5 531 c 128,-1,13
 234 575 234 575 234 613.5 c 128,-1,14
 234 652 234 652 201.5 652 c 128,-1,15
 169 652 169 652 137 609 c 1,16,-1
 93 640 l 1,17,18
 123 683 123 683 158 708.5 c 128,-1,19
 193 734 193 734 248.5 734 c 128,-1,20
 304 734 304 734 339.5 705.5 c 128,-1,21
 375 677 375 677 375 631.5 c 128,-1,22
 375 586 375 586 329 534 c 128,-1,23
 283 482 283 482 227 447 c 1,24,25
 278 435 278 435 307 435 c 128,-1,26
 336 435 336 435 344.5 441.5 c 128,-1,27
 353 448 353 448 362 463 c 1,28,-1
 401 449 l 1,29,30
 392 345 392 345 315 345 c 0,0,1
EndSplineSet
EndChar

StartChar: threesuperior
Encoding: 179 179 117
Width: 356
GlyphClass: 2
Flags: W
LayerCount: 2
Fore
SplineSet
144.5 712.5 m 128,-1,1
 185 734 185 734 242.5 734 c 128,-1,2
 300 734 300 734 335.5 711 c 128,-1,3
 371 688 371 688 371 655 c 128,-1,4
 371 622 371 622 343.5 598.5 c 128,-1,5
 316 575 316 575 270 563 c 1,6,7
 374 551 374 551 374 469 c 0,8,9
 374 417 374 417 328.5 380.5 c 128,-1,10
 283 344 283 344 184 344 c 0,11,12
 130 344 130 344 86.5 367 c 128,-1,13
 43 390 43 390 43 431 c 0,14,15
 43 452 43 452 56 475 c 1,16,17
 115 475 115 475 168 450 c 1,18,-1
 160 397 l 1,19,20
 168 394 168 394 175 394 c 0,21,22
 198 394 198 394 207.5 419.5 c 128,-1,23
 217 445 217 445 217 476.5 c 128,-1,24
 217 508 217 508 196 519 c 128,-1,25
 175 530 175 530 131 531 c 1,26,-1
 130 571 l 1,27,28
 144 572 144 572 161 575 c 0,29,30
 219 585 219 585 219 635 c 0,31,32
 219 651 219 651 209 659 c 128,-1,33
 199 667 199 667 184 667 c 0,34,35
 147 667 147 667 120 632 c 1,36,-1
 82 661 l 1,37,0
 104 691 104 691 144.5 712.5 c 128,-1,1
EndSplineSet
EndChar

StartChar: acute
Encoding: 180 180 118
Width: 616
GlyphClass: 2
Flags: W
LayerCount: 2
Fore
SplineSet
459 614 m 0,0,1
 459 579 459 579 422 563 c 1,2,3
 366 537 366 537 162 501 c 1,4,-1
 145 551 l 1,5,6
 268 611 268 611 419 707 c 1,7,8
 430 692 430 692 444.5 660 c 128,-1,9
 459 628 459 628 459 614 c 0,0,1
EndSplineSet
EndChar

StartChar: mu
Encoding: 181 181 119
AltUni2: 0003bc.ffffffff.0
Width: 544
GlyphClass: 2
Flags: W
LayerCount: 2
Fore
SplineSet
1 -218 m 1,0,-1
 -2 -180 l 1,1,2
 -2 -18 -2 -18 69 230 c 0,3,4
 93 314 93 314 93 333 c 128,-1,5
 93 352 93 352 85.5 364.5 c 128,-1,6
 78 377 78 377 57 402 c 1,7,-1
 59 417 l 1,8,9
 141 435 141 435 272 435 c 1,10,11
 280 421 280 421 280 386.5 c 128,-1,12
 280 352 280 352 252.5 248 c 128,-1,13
 225 144 225 144 225 120 c 0,14,15
 225 89 225 89 255 89 c 0,16,17
 270 89 270 89 289 96 c 1,18,19
 289 98 289 98 317.5 226.5 c 128,-1,20
 346 355 346 355 346 414 c 1,21,22
 392 434 392 434 500 434 c 2,23,-1
 528 434 l 1,24,25
 528 389 528 389 501 258.5 c 128,-1,26
 474 128 474 128 473.5 108.5 c 128,-1,27
 473 89 473 89 481 89 c 1,28,-1
 531 103 l 1,29,-1
 549 53 l 1,30,31
 520 29 520 29 466.5 8.5 c 128,-1,32
 413 -12 413 -12 371 -12 c 0,33,34
 304 -12 304 -12 291 43 c 1,35,36
 217 -4 217 -4 148 -11 c 1,37,38
 147 -31 147 -31 147 -49 c 0,39,40
 147 -129 147 -129 172 -184 c 1,41,42
 107 -210 107 -210 1 -218 c 1,0,-1
EndSplineSet
EndChar

StartChar: paragraph
Encoding: 182 182 120
Width: 643
GlyphClass: 2
Flags: W
LayerCount: 2
Fore
SplineSet
198 -167 m 2,0,-1
 168 -167 l 1,1,2
 172 -94 172 -94 229 158 c 1,3,4
 148 161 148 161 101 214 c 128,-1,5
 54 267 54 267 54 362 c 0,6,7
 54 506 54 506 143 601.5 c 128,-1,8
 232 697 232 697 384 697 c 2,9,-1
 640 697 l 1,10,11
 647 666 647 666 647 634.5 c 128,-1,12
 647 603 647 603 644.5 577.5 c 128,-1,13
 642 552 642 552 635 519 c 128,-1,14
 628 486 628 486 623.5 466 c 128,-1,15
 619 446 619 446 607.5 402 c 128,-1,16
 596 358 596 358 592 340 c 128,-1,17
 588 322 588 322 571 256.5 c 128,-1,18
 554 191 554 191 546 157 c 128,-1,19
 538 123 538 123 526 68 c 0,20,21
 504 -33 504 -33 504 -116 c 1,22,23
 446 -142 446 -142 394 -142 c 2,24,-1
 364 -142 l 1,25,26
 366 -36 366 -36 454 304 c 0,27,28
 496 466 496 466 502.5 521 c 128,-1,29
 509 576 509 576 509 607 c 1,30,31
 468 607 468 607 455 603 c 1,32,33
 448 478 448 478 381 226.5 c 128,-1,34
 314 -25 314 -25 304 -144 c 1,35,36
 257 -167 257 -167 198 -167 c 2,0,-1
EndSplineSet
EndChar

StartChar: periodcentered
Encoding: 183 183 121
Width: 325
GlyphClass: 2
Flags: W
LayerCount: 2
Fore
SplineSet
93.5 265.5 m 128,-1,1
 71 289 71 289 71 327.5 c 128,-1,2
 71 366 71 366 101.5 393.5 c 128,-1,3
 132 421 132 421 174.5 421 c 128,-1,4
 217 421 217 421 239.5 398.5 c 128,-1,5
 262 376 262 376 262 338 c 128,-1,6
 262 300 262 300 231.5 271 c 128,-1,7
 201 242 201 242 158.5 242 c 128,-1,0
 116 242 116 242 93.5 265.5 c 128,-1,1
EndSplineSet
EndChar

StartChar: cedilla
Encoding: 184 184 122
Width: 512
GlyphClass: 2
Flags: W
LayerCount: 2
Fore
SplineSet
245 -95 m 0,0,1
 245 -113 245 -113 260 -113 c 0,2,3
 289 -113 289 -113 328 -90 c 1,4,-1
 356 -131 l 1,5,6
 335 -155 335 -155 290 -176.5 c 128,-1,7
 245 -198 245 -198 209.5 -198 c 128,-1,8
 174 -198 174 -198 152 -178.5 c 128,-1,9
 130 -159 130 -159 130 -123.5 c 128,-1,10
 130 -88 130 -88 169 -46.5 c 128,-1,11
 208 -5 208 -5 240 9 c 1,12,-1
 300 3 l 1,13,14
 245 -49 245 -49 245 -95 c 0,0,1
EndSplineSet
EndChar

StartChar: onesuperior
Encoding: 185 185 123
Width: 312
GlyphClass: 2
Flags: W
LayerCount: 2
Fore
SplineSet
286 733 m 1,0,-1
 303 734 l 1,1,2
 315 714 315 714 315 688 c 128,-1,3
 315 662 315 662 283 531.5 c 128,-1,4
 251 401 251 401 251 365 c 1,5,6
 214 349 214 349 135 349 c 2,7,-1
 103 349 l 1,8,9
 108 402 108 402 134.5 503.5 c 128,-1,10
 161 605 161 605 169 661 c 1,11,12
 162 661 162 661 136.5 639.5 c 128,-1,13
 111 618 111 618 106 614 c 1,14,-1
 70 662 l 1,15,-1
 156 725 l 1,16,17
 186 729 186 729 286 733 c 1,0,-1
EndSplineSet
EndChar

StartChar: ordmasculine
Encoding: 186 186 124
Width: 331
GlyphClass: 2
Flags: W
LayerCount: 2
Fore
SplineSet
185 546.5 m 128,-1,1
 171 500 171 500 171 453 c 128,-1,2
 171 406 171 406 176 389.5 c 128,-1,3
 181 373 181 373 195 373 c 0,4,5
 219 373 219 373 233 426 c 128,-1,6
 247 479 247 479 247 536 c 128,-1,7
 247 593 247 593 223 593 c 128,-1,0
 199 593 199 593 185 546.5 c 128,-1,1
373 531 m 0,8,9
 373 444 373 444 323 375 c 128,-1,10
 273 306 273 306 176 306 c 0,11,12
 112 306 112 306 78 342 c 128,-1,13
 44 378 44 378 44 436 c 0,14,15
 44 536 44 536 98.5 598 c 128,-1,16
 153 660 153 660 242 660 c 0,17,18
 309 660 309 660 341 623 c 128,-1,19
 373 586 373 586 373 531 c 0,8,9
EndSplineSet
EndChar

StartChar: guillemotright
Encoding: 187 187 125
Width: 554
GlyphClass: 2
Flags: W
LayerCount: 2
Fore
SplineSet
441 402.5 m 128,-1,1
 511 332 511 332 511 307.5 c 128,-1,2
 511 283 511 283 444 219 c 128,-1,3
 377 155 377 155 302 95 c 1,4,-1
 256 136 l 1,5,6
 334 247 334 247 361 302 c 1,7,8
 336 371 336 371 285 461 c 1,9,-1
 330 502 l 1,10,0
 371 473 371 473 441 402.5 c 128,-1,1
240 402.5 m 128,-1,12
 310 332 310 332 310 307.5 c 128,-1,13
 310 283 310 283 243 219 c 128,-1,14
 176 155 176 155 101 95 c 1,15,-1
 54 136 l 1,16,17
 132 247 132 247 159 302 c 1,18,19
 134 371 134 371 83 461 c 1,20,-1
 129 502 l 1,21,11
 170 473 170 473 240 402.5 c 128,-1,12
EndSplineSet
EndChar

StartChar: onequarter
Encoding: 188 188 126
Width: 790
GlyphClass: 2
Flags: W
LayerCount: 2
Fore
SplineSet
640 698 m 1,0,-1
 647 695 l 1,1,2
 604 596 604 596 526 473.5 c 128,-1,3
 448 351 448 351 376.5 229 c 128,-1,4
 305 107 305 107 263 -12 c 1,5,6
 232 -11 232 -11 193 0 c 128,-1,7
 154 11 154 11 130 29 c 1,8,9
 185 183 185 183 312 374 c 1,10,11
 441 570 441 570 508 735 c 1,12,13
 571 730 571 730 640 698 c 1,0,-1
712 139 m 2,14,15
 728 139 728 139 738 162 c 1,16,-1
 773 151 l 1,17,18
 769 119 769 119 750.5 92 c 128,-1,19
 732 65 732 65 692 65 c 2,20,-1
 681 65 l 1,21,22
 675 39 675 39 675 11 c 1,23,24
 638 -6 638 -6 557 -6 c 2,25,-1
 535 -6 l 1,26,27
 535 19 535 19 541.5 47 c 128,-1,28
 548 75 548 75 549 80 c 1,29,30
 504 85 504 85 481 85 c 128,-1,31
 458 85 458 85 420 75 c 1,32,33
 408 75 408 75 393 86 c 128,-1,34
 378 97 378 97 378 105.5 c 128,-1,35
 378 114 378 114 384 123 c 0,36,37
 479 245 479 245 502 280 c 1,38,39
 537 329 537 329 565 367 c 1,40,41
 623 379 623 379 713 380 c 1,42,43
 723 361 723 361 723 343 c 0,44,45
 723 284 723 284 692 139 c 1,46,-1
 712 139 l 2,14,15
283 733 m 1,47,-1
 300 734 l 1,48,49
 312 714 312 714 312 688 c 128,-1,50
 312 662 312 662 280 531.5 c 128,-1,51
 248 401 248 401 248 365 c 1,52,53
 211 349 211 349 132 349 c 2,54,-1
 100 349 l 1,55,56
 105 402 105 402 131.5 503.5 c 128,-1,57
 158 605 158 605 166 661 c 1,58,59
 159 661 159 661 133.5 639.5 c 128,-1,60
 108 618 108 618 103 614 c 1,61,-1
 67 662 l 1,62,-1
 153 725 l 1,63,64
 183 729 183 729 283 733 c 1,47,-1
509 155 m 1,65,66
 549 153 549 153 560 151 c 1,67,68
 588 271 588 271 587 290 c 1,69,70
 527 194 527 194 509 155 c 1,65,66
EndSplineSet
EndChar

StartChar: onehalf
Encoding: 189 189 127
Width: 791
GlyphClass: 2
Flags: W
LayerCount: 2
Fore
SplineSet
640 698 m 1,0,-1
 647 695 l 1,1,2
 604 596 604 596 526 473.5 c 128,-1,3
 448 351 448 351 376.5 229 c 128,-1,4
 305 107 305 107 263 -12 c 1,5,6
 232 -11 232 -11 193 0 c 128,-1,7
 154 11 154 11 130 29 c 1,8,9
 185 183 185 183 312 374 c 1,10,11
 441 570 441 570 508 735 c 1,12,13
 571 730 571 730 640 698 c 1,0,-1
673 -24 m 0,14,15
 635 -24 635 -24 588.5 -4 c 128,-1,16
 542 16 542 16 531 20 c 1,17,18
 477 -15 477 -15 449 -15 c 0,19,20
 437 -15 437 -15 418.5 5.5 c 128,-1,21
 400 26 400 26 400 36 c 128,-1,22
 400 46 400 46 424 70.5 c 128,-1,23
 448 95 448 95 467 95 c 128,-1,24
 486 95 486 95 496 93 c 1,25,26
 531 118 531 118 561.5 162 c 128,-1,27
 592 206 592 206 592 244.5 c 128,-1,28
 592 283 592 283 560 283 c 0,29,30
 526 283 526 283 494 240 c 1,31,-1
 451 271 l 1,32,33
 481 314 481 314 516 339.5 c 128,-1,34
 551 365 551 365 606.5 365 c 128,-1,35
 662 365 662 365 697.5 336.5 c 128,-1,36
 733 308 733 308 733 262.5 c 128,-1,37
 733 217 733 217 687 165 c 128,-1,38
 641 113 641 113 585 78 c 1,39,40
 636 66 636 66 665 66 c 128,-1,41
 694 66 694 66 702.5 72.5 c 128,-1,42
 711 79 711 79 720 94 c 1,43,-1
 759 80 l 1,44,45
 750 -24 750 -24 673 -24 c 0,14,15
283 733 m 1,46,-1
 300 734 l 1,47,48
 312 714 312 714 312 688 c 128,-1,49
 312 662 312 662 280 531.5 c 128,-1,50
 248 401 248 401 248 365 c 1,51,52
 211 349 211 349 132 349 c 2,53,-1
 100 349 l 1,54,55
 105 402 105 402 131.5 503.5 c 128,-1,56
 158 605 158 605 166 661 c 1,57,58
 159 661 159 661 133.5 639.5 c 128,-1,59
 108 618 108 618 103 614 c 1,60,-1
 67 662 l 1,61,-1
 153 725 l 1,62,63
 183 729 183 729 283 733 c 1,46,-1
EndSplineSet
EndChar

StartChar: threequarters
Encoding: 190 190 128
Width: 865
GlyphClass: 2
Flags: W
LayerCount: 2
Fore
SplineSet
715 698 m 1,0,-1
 722 695 l 1,1,2
 679 596 679 596 601 473.5 c 128,-1,3
 523 351 523 351 451.5 229 c 128,-1,4
 380 107 380 107 338 -12 c 1,5,6
 307 -11 307 -11 268 0 c 128,-1,7
 229 11 229 11 205 29 c 1,8,9
 260 183 260 183 387 374 c 1,10,11
 516 570 516 570 583 735 c 1,12,13
 646 730 646 730 715 698 c 1,0,-1
787 139 m 2,14,15
 803 139 803 139 813 162 c 1,16,-1
 848 151 l 1,17,18
 844 119 844 119 825.5 92 c 128,-1,19
 807 65 807 65 767 65 c 2,20,-1
 756 65 l 1,21,22
 750 39 750 39 750 11 c 1,23,24
 713 -6 713 -6 632 -6 c 2,25,-1
 610 -6 l 1,26,27
 610 19 610 19 616.5 47 c 128,-1,28
 623 75 623 75 624 80 c 1,29,30
 579 85 579 85 555.5 85 c 128,-1,31
 532 85 532 85 495 75 c 1,32,33
 483 75 483 75 468 86 c 128,-1,34
 453 97 453 97 453 105.5 c 128,-1,35
 453 114 453 114 459 123 c 0,36,37
 554 245 554 245 577 280 c 1,38,39
 612 329 612 329 640 367 c 1,40,41
 698 379 698 379 788 380 c 1,42,43
 798 361 798 361 798 343 c 0,44,45
 798 284 798 284 767 139 c 1,46,-1
 787 139 l 2,14,15
139.5 712.5 m 128,-1,48
 180 734 180 734 237.5 734 c 128,-1,49
 295 734 295 734 330.5 711 c 128,-1,50
 366 688 366 688 366 655 c 128,-1,51
 366 622 366 622 338.5 598.5 c 128,-1,52
 311 575 311 575 265 563 c 1,53,54
 369 551 369 551 369 469 c 0,55,56
 369 417 369 417 323.5 380.5 c 128,-1,57
 278 344 278 344 179 344 c 0,58,59
 137 344 137 344 100 359 c 128,-1,60
 63 374 63 374 45 403 c 0,61,62
 37 415 37 415 37 432.5 c 128,-1,63
 37 450 37 450 51 475 c 1,64,65
 110 475 110 475 163 450 c 1,66,-1
 155 397 l 1,67,68
 162 394 162 394 170 394 c 0,69,70
 193 394 193 394 202.5 419.5 c 128,-1,71
 212 445 212 445 212 476.5 c 128,-1,72
 212 508 212 508 191 519 c 128,-1,73
 170 530 170 530 126 531 c 1,74,-1
 125 571 l 1,75,76
 139 572 139 572 156 575 c 0,77,78
 214 585 214 585 214 635 c 0,79,80
 214 651 214 651 204 659 c 128,-1,81
 194 667 194 667 179 667 c 0,82,83
 142 667 142 667 115 632 c 1,84,-1
 77 661 l 1,85,47
 99 691 99 691 139.5 712.5 c 128,-1,48
584 155 m 1,86,87
 624 153 624 153 635 151 c 1,88,89
 663 271 663 271 662 290 c 1,90,91
 602 194 602 194 584 155 c 1,86,87
EndSplineSet
EndChar

StartChar: questiondown
Encoding: 191 191 129
Width: 368
GlyphClass: 2
Flags: W
LayerCount: 2
Fore
SplineSet
134 146 m 0,0,1
 134 156 134 156 113 163 c 0,2,3
 110 164 110 164 102.5 167 c 128,-1,4
 95 170 95 170 89.5 171.5 c 128,-1,5
 84 173 84 173 81 174 c 1,6,7
 88 205 88 205 104 227 c 1,8,9
 191 227 191 227 243.5 196.5 c 128,-1,10
 296 166 296 166 296 108 c 0,11,12
 296 71 296 71 258 20 c 0,13,14
 244 2 244 2 218 -30 c 0,15,16
 117 -154 117 -154 117 -189 c 0,17,18
 117 -207 117 -207 149 -207 c 1,19,20
 190 -135 190 -135 227 -100 c 1,21,22
 262 -105 262 -105 305.5 -140.5 c 128,-1,23
 349 -176 349 -176 349 -196.5 c 128,-1,24
 349 -217 349 -217 303 -249 c 128,-1,25
 257 -281 257 -281 194 -281 c 0,26,27
 99 -281 99 -281 43.5 -232.5 c 128,-1,28
 -12 -184 -12 -184 -12 -109 c 0,29,30
 -12 -79 -12 -79 4.5 -43.5 c 128,-1,31
 21 -8 21 -8 34.5 11 c 128,-1,32
 48 30 48 30 75 62 c 1,33,34
 134 127 134 127 134 146 c 0,0,1
302.5 419 m 128,-1,36
 327 397 327 397 327 361 c 128,-1,37
 327 325 327 325 294.5 299 c 128,-1,38
 262 273 262 273 217.5 273 c 128,-1,39
 173 273 173 273 152 295 c 128,-1,40
 131 317 131 317 131 351 c 128,-1,41
 131 385 131 385 160.5 413 c 128,-1,42
 190 441 190 441 234 441 c 128,-1,35
 278 441 278 441 302.5 419 c 128,-1,36
EndSplineSet
EndChar

StartChar: Agrave
Encoding: 192 192 130
Width: 604
GlyphClass: 2
Flags: W
LayerCount: 2
Fore
SplineSet
241 905 m 0,0,1
 272 905 272 905 353 869.5 c 128,-1,2
 434 834 434 834 517 788 c 1,3,-1
 495 735 l 1,4,5
 398 758 398 758 170 802 c 1,6,7
 201 905 201 905 241 905 c 0,0,1
95 13 m 0,8,9
 88 -9 88 -9 48.5 -9 c 128,-1,10
 9 -9 9 -9 -30 18 c 1,11,12
 1 102 1 102 93.5 297.5 c 128,-1,13
 186 493 186 493 217 589 c 0,14,15
 220 601 220 601 220 609.5 c 128,-1,16
 220 618 220 618 213 633 c 128,-1,17
 206 648 206 648 198 657 c 2,18,-1
 191 666 l 1,19,-1
 195 686 l 1,20,21
 284 710 284 710 406 710 c 1,22,-1
 483 706 l 1,23,24
 493 697 493 697 503 659 c 128,-1,25
 513 621 513 621 516 545 c 128,-1,26
 519 469 519 469 520 260 c 0,27,28
 521 99 521 99 560 99 c 0,29,30
 570 99 570 99 603 109 c 2,31,-1
 613 112 l 1,32,-1
 634 55 l 1,33,34
 593 24 593 24 538 6 c 128,-1,35
 483 -12 483 -12 439 -12 c 0,36,37
 375 -12 375 -12 351.5 27.5 c 128,-1,38
 328 67 328 67 328 129.5 c 128,-1,39
 328 192 328 192 329 216 c 1,40,41
 310 220 310 220 255 220 c 128,-1,42
 200 220 200 220 160 209 c 1,43,44
 123 110 123 110 95 13 c 0,8,9
333 300 m 1,45,46
 338 387 338 387 338 475 c 128,-1,47
 338 563 338 563 328 603 c 1,48,49
 318 603 318 603 314 601 c 1,50,51
 292 534 292 534 196 300 c 1,52,-1
 333 300 l 1,45,46
EndSplineSet
EndChar

StartChar: Aacute
Encoding: 193 193 131
Width: 604
GlyphClass: 2
Flags: W
LayerCount: 2
Fore
SplineSet
545 842 m 0,0,1
 545 810 545 810 507 796 c 1,2,3
 458 775 458 775 228 740 c 1,4,-1
 209 794 l 1,5,6
 236 806 236 806 286 828 c 128,-1,7
 336 850 336 850 365 863 c 0,8,9
 448 900 448 900 505 933 c 1,10,11
 516 917 516 917 530.5 886.5 c 128,-1,12
 545 856 545 856 545 842 c 0,0,1
95 13 m 0,13,14
 88 -9 88 -9 48.5 -9 c 128,-1,15
 9 -9 9 -9 -30 18 c 1,16,17
 1 102 1 102 93.5 297.5 c 128,-1,18
 186 493 186 493 217 589 c 0,19,20
 220 601 220 601 220 609.5 c 128,-1,21
 220 618 220 618 213 633 c 128,-1,22
 206 648 206 648 198 657 c 2,23,-1
 191 666 l 1,24,-1
 195 686 l 1,25,26
 284 710 284 710 406 710 c 1,27,-1
 483 706 l 1,28,29
 493 697 493 697 503 659 c 128,-1,30
 513 621 513 621 516 545 c 128,-1,31
 519 469 519 469 520 260 c 0,32,33
 521 99 521 99 560 99 c 0,34,35
 570 99 570 99 603 109 c 2,36,-1
 613 112 l 1,37,-1
 634 55 l 1,38,39
 593 24 593 24 538 6 c 128,-1,40
 483 -12 483 -12 439 -12 c 0,41,42
 375 -12 375 -12 351.5 27.5 c 128,-1,43
 328 67 328 67 328 129.5 c 128,-1,44
 328 192 328 192 329 216 c 1,45,46
 310 220 310 220 255 220 c 128,-1,47
 200 220 200 220 160 209 c 1,48,49
 123 110 123 110 95 13 c 0,13,14
333 300 m 1,50,51
 338 387 338 387 338 475 c 128,-1,52
 338 563 338 563 328 603 c 1,53,54
 318 603 318 603 314 601 c 1,55,56
 292 534 292 534 196 300 c 1,57,-1
 333 300 l 1,50,51
EndSplineSet
EndChar

StartChar: Acircumflex
Encoding: 194 194 132
Width: 604
GlyphClass: 2
Flags: W
LayerCount: 2
Fore
SplineSet
305 875 m 128,-1,1
 392 919 392 919 422.5 919 c 128,-1,2
 453 919 453 919 505.5 866 c 128,-1,3
 558 813 558 813 582 778 c 1,4,-1
 543 741 l 1,5,6
 434 786 434 786 389 800 c 1,7,8
 318 786 318 786 185 739 c 1,9,-1
 156 787 l 1,10,0
 218 831 218 831 305 875 c 128,-1,1
95 13 m 0,11,12
 88 -9 88 -9 48.5 -9 c 128,-1,13
 9 -9 9 -9 -30 18 c 1,14,15
 1 102 1 102 93.5 297.5 c 128,-1,16
 186 493 186 493 217 589 c 0,17,18
 220 601 220 601 220 609.5 c 128,-1,19
 220 618 220 618 213 633 c 128,-1,20
 206 648 206 648 198 657 c 2,21,-1
 191 666 l 1,22,-1
 195 686 l 1,23,24
 284 710 284 710 406 710 c 1,25,-1
 483 706 l 1,26,27
 493 697 493 697 503 659 c 128,-1,28
 513 621 513 621 516 545 c 128,-1,29
 519 469 519 469 520 260 c 0,30,31
 521 99 521 99 560 99 c 0,32,33
 570 99 570 99 603 109 c 2,34,-1
 613 112 l 1,35,-1
 634 55 l 1,36,37
 593 24 593 24 538 6 c 128,-1,38
 483 -12 483 -12 439 -12 c 0,39,40
 375 -12 375 -12 351.5 27.5 c 128,-1,41
 328 67 328 67 328 129.5 c 128,-1,42
 328 192 328 192 329 216 c 1,43,44
 310 220 310 220 255 220 c 128,-1,45
 200 220 200 220 160 209 c 1,46,47
 123 110 123 110 95 13 c 0,11,12
333 300 m 1,48,49
 338 387 338 387 338 475 c 128,-1,50
 338 563 338 563 328 603 c 1,51,52
 318 603 318 603 314 601 c 1,53,54
 292 534 292 534 196 300 c 1,55,-1
 333 300 l 1,48,49
EndSplineSet
EndChar

StartChar: Atilde
Encoding: 195 195 133
Width: 604
GlyphClass: 2
Flags: W
LayerCount: 2
Fore
SplineSet
460 761 m 0,0,1
 438 761 438 761 369 775.5 c 128,-1,2
 300 790 300 790 278 790 c 0,3,4
 236 790 236 790 210 753 c 1,5,-1
 156 767 l 1,6,7
 170 904 170 904 279 904 c 0,8,9
 302 904 302 904 370 889.5 c 128,-1,10
 438 875 438 875 462 875 c 128,-1,11
 486 875 486 875 497 881 c 128,-1,12
 508 887 508 887 521 905 c 1,13,-1
 576 893 l 1,14,15
 562 761 562 761 460 761 c 0,0,1
95 13 m 0,16,17
 88 -9 88 -9 48.5 -9 c 128,-1,18
 9 -9 9 -9 -30 18 c 1,19,20
 1 102 1 102 93.5 297.5 c 128,-1,21
 186 493 186 493 217 589 c 0,22,23
 220 601 220 601 220 609.5 c 128,-1,24
 220 618 220 618 213 633 c 128,-1,25
 206 648 206 648 198 657 c 2,26,-1
 191 666 l 1,27,-1
 195 686 l 1,28,29
 284 710 284 710 406 710 c 1,30,-1
 483 706 l 1,31,32
 493 697 493 697 503 659 c 128,-1,33
 513 621 513 621 516 545 c 128,-1,34
 519 469 519 469 520 260 c 0,35,36
 521 99 521 99 560 99 c 0,37,38
 570 99 570 99 603 109 c 2,39,-1
 613 112 l 1,40,-1
 634 55 l 1,41,42
 593 24 593 24 538 6 c 128,-1,43
 483 -12 483 -12 439 -12 c 0,44,45
 375 -12 375 -12 351.5 27.5 c 128,-1,46
 328 67 328 67 328 129.5 c 128,-1,47
 328 192 328 192 329 216 c 1,48,49
 310 220 310 220 255 220 c 128,-1,50
 200 220 200 220 160 209 c 1,51,52
 123 110 123 110 95 13 c 0,16,17
333 300 m 1,53,54
 338 387 338 387 338 475 c 128,-1,55
 338 563 338 563 328 603 c 1,56,57
 318 603 318 603 314 601 c 1,58,59
 292 534 292 534 196 300 c 1,60,-1
 333 300 l 1,53,54
EndSplineSet
EndChar

StartChar: Adieresis
Encoding: 196 196 134
Width: 604
GlyphClass: 2
Flags: W
LayerCount: 2
Fore
SplineSet
420 777 m 128,-1,1
 399 797 399 797 399 828.5 c 128,-1,2
 399 860 399 860 425 881.5 c 128,-1,3
 451 903 451 903 488 903 c 128,-1,4
 525 903 525 903 545.5 885.5 c 128,-1,5
 566 868 566 868 566 836 c 128,-1,6
 566 804 566 804 540.5 780.5 c 128,-1,7
 515 757 515 757 478 757 c 128,-1,0
 441 757 441 757 420 777 c 128,-1,1
193 777 m 128,-1,9
 172 797 172 797 172 828.5 c 128,-1,10
 172 860 172 860 198 881.5 c 128,-1,11
 224 903 224 903 261 903 c 128,-1,12
 298 903 298 903 318.5 885.5 c 128,-1,13
 339 868 339 868 339 836 c 128,-1,14
 339 804 339 804 313.5 780.5 c 128,-1,15
 288 757 288 757 251 757 c 128,-1,8
 214 757 214 757 193 777 c 128,-1,9
95 13 m 0,16,17
 88 -9 88 -9 48.5 -9 c 128,-1,18
 9 -9 9 -9 -30 18 c 1,19,20
 1 102 1 102 93.5 297.5 c 128,-1,21
 186 493 186 493 217 589 c 0,22,23
 220 601 220 601 220 609.5 c 128,-1,24
 220 618 220 618 213 633 c 128,-1,25
 206 648 206 648 198 657 c 2,26,-1
 191 666 l 1,27,-1
 195 686 l 1,28,29
 284 710 284 710 406 710 c 1,30,-1
 483 706 l 1,31,32
 493 697 493 697 503 659 c 128,-1,33
 513 621 513 621 516 545 c 128,-1,34
 519 469 519 469 520 260 c 0,35,36
 521 99 521 99 560 99 c 0,37,38
 570 99 570 99 603 109 c 2,39,-1
 613 112 l 1,40,-1
 634 55 l 1,41,42
 593 24 593 24 538 6 c 128,-1,43
 483 -12 483 -12 439 -12 c 0,44,45
 375 -12 375 -12 351.5 27.5 c 128,-1,46
 328 67 328 67 328 129.5 c 128,-1,47
 328 192 328 192 329 216 c 1,48,49
 310 220 310 220 255 220 c 128,-1,50
 200 220 200 220 160 209 c 1,51,52
 123 110 123 110 95 13 c 0,16,17
333 300 m 1,53,54
 338 387 338 387 338 475 c 128,-1,55
 338 563 338 563 328 603 c 1,56,57
 318 603 318 603 314 601 c 1,58,59
 292 534 292 534 196 300 c 1,60,-1
 333 300 l 1,53,54
EndSplineSet
EndChar

StartChar: Aring
Encoding: 197 197 135
Width: 604
GlyphClass: 2
Flags: W
LayerCount: 2
Fore
SplineSet
288 768 m 128,-1,1
 257 797 257 797 257 840.5 c 128,-1,2
 257 884 257 884 287.5 912.5 c 128,-1,3
 318 941 318 941 372.5 941 c 128,-1,4
 427 941 427 941 457.5 912.5 c 128,-1,5
 488 884 488 884 488 840.5 c 128,-1,6
 488 797 488 797 458 768 c 128,-1,7
 428 739 428 739 373.5 739 c 128,-1,0
 319 739 319 739 288 768 c 128,-1,1
341.5 867.5 m 128,-1,9
 330 857 330 857 330 840.5 c 128,-1,10
 330 824 330 824 341.5 813.5 c 128,-1,11
 353 803 353 803 372.5 803 c 128,-1,12
 392 803 392 803 402 813.5 c 128,-1,13
 412 824 412 824 412 840 c 0,14,15
 412 878 412 878 373 878 c 0,16,8
 353 878 353 878 341.5 867.5 c 128,-1,9
95 13 m 0,17,18
 88 -9 88 -9 48.5 -9 c 128,-1,19
 9 -9 9 -9 -30 18 c 1,20,21
 1 102 1 102 93.5 297.5 c 128,-1,22
 186 493 186 493 217 589 c 0,23,24
 220 601 220 601 220 609.5 c 128,-1,25
 220 618 220 618 213 633 c 128,-1,26
 206 648 206 648 198 657 c 2,27,-1
 191 666 l 1,28,-1
 195 686 l 1,29,30
 284 710 284 710 406 710 c 1,31,-1
 483 706 l 1,32,33
 493 697 493 697 503 659 c 128,-1,34
 513 621 513 621 516 545 c 128,-1,35
 519 469 519 469 520 260 c 0,36,37
 521 99 521 99 560 99 c 0,38,39
 570 99 570 99 603 109 c 2,40,-1
 613 112 l 1,41,-1
 634 55 l 1,42,43
 593 24 593 24 538 6 c 128,-1,44
 483 -12 483 -12 439 -12 c 0,45,46
 375 -12 375 -12 351.5 27.5 c 128,-1,47
 328 67 328 67 328 129.5 c 128,-1,48
 328 192 328 192 329 216 c 1,49,50
 310 220 310 220 255 220 c 128,-1,51
 200 220 200 220 160 209 c 1,52,53
 123 110 123 110 95 13 c 0,17,18
333 300 m 1,54,55
 338 387 338 387 338 475 c 128,-1,56
 338 563 338 563 328 603 c 1,57,58
 318 603 318 603 314 601 c 1,59,60
 292 534 292 534 196 300 c 1,61,-1
 333 300 l 1,54,55
EndSplineSet
EndChar

StartChar: AE
Encoding: 198 198 136
Width: 748
GlyphClass: 2
Flags: W
LayerCount: 2
Fore
SplineSet
503 375 m 1,0,1
 558 382 558 382 621.5 382 c 128,-1,2
 685 382 685 382 705 373 c 1,3,4
 705 342 705 342 692 303 c 2,5,-1
 688 291 l 1,6,7
 634 300 634 300 598 300 c 0,8,9
 541 300 541 300 508 294 c 2,10,-1
 497 292 l 1,11,12
 495 276 495 276 495 241 c 0,13,14
 495 153 495 153 511.5 123 c 128,-1,15
 528 93 528 93 564 93 c 0,16,17
 630 93 630 93 730 136 c 1,18,-1
 751 77 l 1,19,20
 622 -12 622 -12 487 -12 c 0,21,22
 392 -12 392 -12 348.5 41 c 128,-1,23
 305 94 305 94 305 197 c 0,24,25
 305 250 305 250 306 262 c 1,26,27
 278 261 278 261 233.5 248.5 c 128,-1,28
 189 236 189 236 162 220 c 1,29,30
 143 169 143 169 121 99.5 c 128,-1,31
 99 30 99 30 94 15 c 1,32,33
 84 -9 84 -9 47 -9 c 128,-1,34
 10 -9 10 -9 -30 18 c 1,35,36
 -17 70 -17 70 105 326 c 128,-1,37
 227 582 227 582 227 611 c 0,38,39
 227 630 227 630 208 657 c 1,40,-1
 201 666 l 1,41,-1
 206 686 l 1,42,43
 302 710 302 710 437 710 c 1,44,-1
 664 706 l 2,45,46
 696 706 696 706 738 708 c 1,47,48
 741 683 741 683 741 666 c 0,49,50
 741 617 741 617 705 617 c 0,51,52
 698 617 698 617 645.5 624.5 c 128,-1,53
 593 632 593 632 574 632 c 128,-1,54
 555 632 555 632 534 629 c 1,55,56
 503 445 503 445 503 375 c 1,0,1
319 601 m 1,57,58
 307 558 307 558 263 457 c 128,-1,59
 219 356 219 356 210 333 c 1,60,61
 281 348 281 348 311 351 c 1,62,63
 313 362 313 362 326 462 c 128,-1,64
 339 562 339 562 346 605 c 1,65,66
 328 605 328 605 319 601 c 1,57,58
EndSplineSet
EndChar

StartChar: Ccedilla
Encoding: 199 199 137
Width: 578
GlyphClass: 2
Flags: W
LayerCount: 2
Fore
SplineSet
294 -95 m 0,0,1
 294 -113 294 -113 309 -113 c 0,2,3
 338 -113 338 -113 377 -90 c 1,4,-1
 405 -131 l 1,5,6
 384 -155 384 -155 339 -176.5 c 128,-1,7
 294 -198 294 -198 258.5 -198 c 128,-1,8
 223 -198 223 -198 201 -178.5 c 128,-1,9
 179 -159 179 -159 179 -128 c 128,-1,10
 179 -97 179 -97 202.5 -65 c 128,-1,11
 226 -33 226 -33 257 -10 c 1,12,13
 164 1 164 1 106 77.5 c 128,-1,14
 48 154 48 154 48 274 c 128,-1,15
 48 394 48 394 91.5 492.5 c 128,-1,16
 135 591 135 591 215.5 650.5 c 128,-1,17
 296 710 296 710 394 710 c 128,-1,18
 492 710 492 710 554 671 c 128,-1,19
 616 632 616 632 616 571.5 c 128,-1,20
 616 511 616 511 582 475 c 1,21,22
 542 475 542 475 490 491 c 128,-1,23
 438 507 438 507 412 530 c 1,24,-1
 431 627 l 1,25,26
 413 637 413 637 387 637 c 0,27,28
 331 637 331 637 287.5 535.5 c 128,-1,29
 244 434 244 434 244 291 c 0,30,31
 244 194 244 194 275.5 146.5 c 128,-1,32
 307 99 307 99 356 99 c 0,33,34
 426 99 426 99 510 173 c 1,35,-1
 557 126 l 1,36,37
 529 88 529 88 474 50 c 0,38,39
 409 4 409 4 338 -7 c 1,40,41
 294 -56 294 -56 294 -95 c 0,0,1
EndSplineSet
EndChar

StartChar: Egrave
Encoding: 200 200 138
Width: 545
GlyphClass: 2
Flags: W
LayerCount: 2
Fore
SplineSet
254 905 m 0,0,1
 285 905 285 905 366 869.5 c 128,-1,2
 447 834 447 834 530 788 c 1,3,-1
 508 735 l 1,4,5
 411 758 411 758 183 802 c 1,6,7
 214 905 214 905 254 905 c 0,0,1
270 -13 m 0,8,9
 144 -13 144 -13 76 68 c 0,10,11
 39 112 39 112 39 175 c 0,12,13
 39 260 39 260 99 314.5 c 128,-1,14
 159 369 159 369 241 378 c 1,15,16
 115 412 115 412 115 523 c 0,17,18
 115 609 115 609 189 659.5 c 128,-1,19
 263 710 263 710 357.5 710 c 128,-1,20
 452 710 452 710 515 671 c 128,-1,21
 578 632 578 632 578 568 c 0,22,23
 578 531 578 531 558 498 c 2,24,-1
 551 487 l 1,25,26
 510 487 510 487 463 499.5 c 128,-1,27
 416 512 416 512 392 532 c 1,28,-1
 402 634 l 1,29,30
 387 641 387 641 372 641 c 0,31,32
 341 641 341 641 324.5 608 c 128,-1,33
 308 575 308 575 308 531 c 128,-1,34
 308 487 308 487 317.5 461 c 128,-1,35
 327 435 327 435 347.5 421.5 c 128,-1,36
 368 408 368 408 383.5 402.5 c 128,-1,37
 399 397 399 397 427 391 c 1,38,-1
 419 333 l 1,39,40
 350 333 350 333 292 294 c 128,-1,41
 234 255 234 255 234 189 c 0,42,43
 234 142 234 142 264 120.5 c 128,-1,44
 294 99 294 99 335.5 99 c 128,-1,45
 377 99 377 99 423 120 c 128,-1,46
 469 141 469 141 502 173 c 1,47,-1
 547 128 l 1,48,49
 504 69 504 69 428 28 c 128,-1,50
 352 -13 352 -13 270 -13 c 0,8,9
EndSplineSet
EndChar

StartChar: Eacute
Encoding: 201 201 139
Width: 545
GlyphClass: 2
Flags: W
LayerCount: 2
Fore
SplineSet
566 842 m 0,0,1
 566 810 566 810 528 796 c 1,2,3
 479 775 479 775 249 740 c 1,4,-1
 230 794 l 1,5,6
 257 806 257 806 307 828 c 128,-1,7
 357 850 357 850 386 863 c 0,8,9
 469 900 469 900 526 933 c 1,10,11
 537 917 537 917 551.5 886.5 c 128,-1,12
 566 856 566 856 566 842 c 0,0,1
270 -13 m 0,13,14
 144 -13 144 -13 76 68 c 0,15,16
 39 112 39 112 39 175 c 0,17,18
 39 260 39 260 99 314.5 c 128,-1,19
 159 369 159 369 241 378 c 1,20,21
 115 412 115 412 115 523 c 0,22,23
 115 609 115 609 189 659.5 c 128,-1,24
 263 710 263 710 357.5 710 c 128,-1,25
 452 710 452 710 515 671 c 128,-1,26
 578 632 578 632 578 568 c 0,27,28
 578 531 578 531 558 498 c 2,29,-1
 551 487 l 1,30,31
 510 487 510 487 463 499.5 c 128,-1,32
 416 512 416 512 392 532 c 1,33,-1
 402 634 l 1,34,35
 387 641 387 641 372 641 c 0,36,37
 341 641 341 641 324.5 608 c 128,-1,38
 308 575 308 575 308 531 c 128,-1,39
 308 487 308 487 317.5 461 c 128,-1,40
 327 435 327 435 347.5 421.5 c 128,-1,41
 368 408 368 408 383.5 402.5 c 128,-1,42
 399 397 399 397 427 391 c 1,43,-1
 419 333 l 1,44,45
 350 333 350 333 292 294 c 128,-1,46
 234 255 234 255 234 189 c 0,47,48
 234 142 234 142 264 120.5 c 128,-1,49
 294 99 294 99 335.5 99 c 128,-1,50
 377 99 377 99 423 120 c 128,-1,51
 469 141 469 141 502 173 c 1,52,-1
 547 128 l 1,53,54
 504 69 504 69 428 28 c 128,-1,55
 352 -13 352 -13 270 -13 c 0,13,14
EndSplineSet
EndChar

StartChar: Ecircumflex
Encoding: 202 202 140
Width: 545
GlyphClass: 2
Flags: W
LayerCount: 2
Fore
SplineSet
313 875 m 128,-1,1
 400 919 400 919 430.5 919 c 128,-1,2
 461 919 461 919 513.5 866 c 128,-1,3
 566 813 566 813 590 778 c 1,4,-1
 551 741 l 1,5,6
 442 786 442 786 397 800 c 1,7,8
 326 786 326 786 193 739 c 1,9,-1
 164 787 l 1,10,0
 226 831 226 831 313 875 c 128,-1,1
270 -13 m 0,11,12
 144 -13 144 -13 76 68 c 0,13,14
 39 112 39 112 39 175 c 0,15,16
 39 260 39 260 99 314.5 c 128,-1,17
 159 369 159 369 241 378 c 1,18,19
 115 412 115 412 115 523 c 0,20,21
 115 609 115 609 189 659.5 c 128,-1,22
 263 710 263 710 357.5 710 c 128,-1,23
 452 710 452 710 515 671 c 128,-1,24
 578 632 578 632 578 568 c 0,25,26
 578 531 578 531 558 498 c 2,27,-1
 551 487 l 1,28,29
 510 487 510 487 463 499.5 c 128,-1,30
 416 512 416 512 392 532 c 1,31,-1
 402 634 l 1,32,33
 387 641 387 641 372 641 c 0,34,35
 341 641 341 641 324.5 608 c 128,-1,36
 308 575 308 575 308 531 c 128,-1,37
 308 487 308 487 317.5 461 c 128,-1,38
 327 435 327 435 347.5 421.5 c 128,-1,39
 368 408 368 408 383.5 402.5 c 128,-1,40
 399 397 399 397 427 391 c 1,41,-1
 419 333 l 1,42,43
 350 333 350 333 292 294 c 128,-1,44
 234 255 234 255 234 189 c 0,45,46
 234 142 234 142 264 120.5 c 128,-1,47
 294 99 294 99 335.5 99 c 128,-1,48
 377 99 377 99 423 120 c 128,-1,49
 469 141 469 141 502 173 c 1,50,-1
 547 128 l 1,51,52
 504 69 504 69 428 28 c 128,-1,53
 352 -13 352 -13 270 -13 c 0,11,12
EndSplineSet
EndChar

StartChar: Edieresis
Encoding: 203 203 141
Width: 545
GlyphClass: 2
Flags: W
LayerCount: 2
Fore
SplineSet
207 777 m 128,-1,1
 186 797 186 797 186 828.5 c 128,-1,2
 186 860 186 860 212 881.5 c 128,-1,3
 238 903 238 903 275 903 c 128,-1,4
 312 903 312 903 332.5 885.5 c 128,-1,5
 353 868 353 868 353 836 c 128,-1,6
 353 804 353 804 327.5 780.5 c 128,-1,7
 302 757 302 757 265 757 c 128,-1,0
 228 757 228 757 207 777 c 128,-1,1
434 777 m 128,-1,9
 413 797 413 797 413 828.5 c 128,-1,10
 413 860 413 860 439 881.5 c 128,-1,11
 465 903 465 903 502 903 c 128,-1,12
 539 903 539 903 559.5 885.5 c 128,-1,13
 580 868 580 868 580 836 c 128,-1,14
 580 804 580 804 554.5 780.5 c 128,-1,15
 529 757 529 757 492 757 c 128,-1,8
 455 757 455 757 434 777 c 128,-1,9
270 -13 m 0,16,17
 144 -13 144 -13 76 68 c 0,18,19
 39 112 39 112 39 175 c 0,20,21
 39 260 39 260 99 314.5 c 128,-1,22
 159 369 159 369 241 378 c 1,23,24
 115 412 115 412 115 523 c 0,25,26
 115 609 115 609 189 659.5 c 128,-1,27
 263 710 263 710 357.5 710 c 128,-1,28
 452 710 452 710 515 671 c 128,-1,29
 578 632 578 632 578 568 c 0,30,31
 578 531 578 531 558 498 c 2,32,-1
 551 487 l 1,33,34
 510 487 510 487 463 499.5 c 128,-1,35
 416 512 416 512 392 532 c 1,36,-1
 402 634 l 1,37,38
 387 641 387 641 372 641 c 0,39,40
 341 641 341 641 324.5 608 c 128,-1,41
 308 575 308 575 308 531 c 128,-1,42
 308 487 308 487 317.5 461 c 128,-1,43
 327 435 327 435 347.5 421.5 c 128,-1,44
 368 408 368 408 383.5 402.5 c 128,-1,45
 399 397 399 397 427 391 c 1,46,-1
 419 333 l 1,47,48
 350 333 350 333 292 294 c 128,-1,49
 234 255 234 255 234 189 c 0,50,51
 234 142 234 142 264 120.5 c 128,-1,52
 294 99 294 99 335.5 99 c 128,-1,53
 377 99 377 99 423 120 c 128,-1,54
 469 141 469 141 502 173 c 1,55,-1
 547 128 l 1,56,57
 504 69 504 69 428 28 c 128,-1,58
 352 -13 352 -13 270 -13 c 0,16,17
EndSplineSet
EndChar

StartChar: Igrave
Encoding: 204 204 142
Width: 361
GlyphClass: 2
Flags: W
LayerCount: 2
Fore
SplineSet
114 908 m 0,0,1
 143 908 143 908 223 871.5 c 128,-1,2
 303 835 303 835 381 789 c 1,3,-1
 359 738 l 1,4,5
 305 752 305 752 47 805 c 1,6,7
 75 908 75 908 114 908 c 0,0,1
245 127 m 0,8,9
 245 99 245 99 258 99 c 0,10,11
 280 99 280 99 312 112 c 1,12,-1
 334 56 l 1,13,14
 242 -12 242 -12 156 -12 c 0,15,16
 106 -12 106 -12 76.5 16.5 c 128,-1,17
 47 45 47 45 47 97 c 128,-1,18
 47 149 47 149 98 332.5 c 128,-1,19
 149 516 149 516 154 588 c 1,20,21
 154 605 154 605 143 625 c 128,-1,22
 132 645 132 645 122 657 c 2,23,-1
 111 669 l 1,24,-1
 113 689 l 1,25,26
 176 710 176 710 336 710 c 1,27,28
 352 680 352 680 352 646 c 0,29,30
 352 588 352 588 298.5 393 c 128,-1,31
 245 198 245 198 245 127 c 0,8,9
EndSplineSet
EndChar

StartChar: Iacute
Encoding: 205 205 143
Width: 361
GlyphClass: 2
Flags: W
LayerCount: 2
Fore
SplineSet
425 845 m 0,0,1
 425 812 425 812 390 799 c 1,2,3
 349 781 349 781 119 743 c 1,4,-1
 103 794 l 1,5,6
 125 805 125 805 194 837 c 0,7,8
 324 897 324 897 388 936 c 1,9,10
 398 920 398 920 411.5 889.5 c 128,-1,11
 425 859 425 859 425 845 c 0,0,1
245 127 m 0,12,13
 245 99 245 99 258 99 c 0,14,15
 280 99 280 99 312 112 c 1,16,-1
 334 56 l 1,17,18
 242 -12 242 -12 156 -12 c 0,19,20
 106 -12 106 -12 76.5 16.5 c 128,-1,21
 47 45 47 45 47 97 c 128,-1,22
 47 149 47 149 98 332.5 c 128,-1,23
 149 516 149 516 154 588 c 1,24,25
 154 605 154 605 143 625 c 128,-1,26
 132 645 132 645 122 657 c 2,27,-1
 111 669 l 1,28,-1
 113 689 l 1,29,30
 176 710 176 710 336 710 c 1,31,32
 352 680 352 680 352 646 c 0,33,34
 352 588 352 588 298.5 393 c 128,-1,35
 245 198 245 198 245 127 c 0,12,13
EndSplineSet
EndChar

StartChar: Icircumflex
Encoding: 206 206 144
Width: 361
GlyphClass: 2
Flags: W
LayerCount: 2
Fore
SplineSet
200 872 m 128,-1,1
 283 919 283 919 309 919 c 128,-1,2
 335 919 335 919 378 870.5 c 128,-1,3
 421 822 421 822 449 781 c 1,4,-1
 414 741 l 1,5,6
 323 786 323 786 279 799 c 1,7,8
 227 788 227 788 89 737 c 1,9,-1
 62 783 l 1,10,0
 117 825 117 825 200 872 c 128,-1,1
245 127 m 0,11,12
 245 99 245 99 258 99 c 0,13,14
 280 99 280 99 312 112 c 1,15,-1
 334 56 l 1,16,17
 242 -12 242 -12 156 -12 c 0,18,19
 106 -12 106 -12 76.5 16.5 c 128,-1,20
 47 45 47 45 47 97 c 128,-1,21
 47 149 47 149 98 332.5 c 128,-1,22
 149 516 149 516 154 588 c 1,23,24
 154 605 154 605 143 625 c 128,-1,25
 132 645 132 645 122 657 c 2,26,-1
 111 669 l 1,27,-1
 113 689 l 1,28,29
 176 710 176 710 336 710 c 1,30,31
 352 680 352 680 352 646 c 0,32,33
 352 588 352 588 298.5 393 c 128,-1,34
 245 198 245 198 245 127 c 0,11,12
EndSplineSet
EndChar

StartChar: Idieresis
Encoding: 207 207 145
Width: 361
GlyphClass: 2
Flags: W
LayerCount: 2
Fore
SplineSet
105.5 776.5 m 128,-1,1
 85 797 85 797 85 828.5 c 128,-1,2
 85 860 85 860 111 882 c 128,-1,3
 137 904 137 904 173 904 c 128,-1,4
 209 904 209 904 229.5 886 c 128,-1,5
 250 868 250 868 250 836 c 128,-1,6
 250 804 250 804 225 780 c 128,-1,7
 200 756 200 756 163 756 c 128,-1,0
 126 756 126 756 105.5 776.5 c 128,-1,1
315.5 776.5 m 128,-1,9
 295 797 295 797 295 828.5 c 128,-1,10
 295 860 295 860 321 882 c 128,-1,11
 347 904 347 904 383.5 904 c 128,-1,12
 420 904 420 904 440 886 c 128,-1,13
 460 868 460 868 460 836 c 128,-1,14
 460 804 460 804 435 780 c 128,-1,15
 410 756 410 756 373 756 c 128,-1,8
 336 756 336 756 315.5 776.5 c 128,-1,9
245 127 m 0,16,17
 245 99 245 99 258 99 c 0,18,19
 280 99 280 99 312 112 c 1,20,-1
 334 56 l 1,21,22
 242 -12 242 -12 156 -12 c 0,23,24
 106 -12 106 -12 76.5 16.5 c 128,-1,25
 47 45 47 45 47 97 c 128,-1,26
 47 149 47 149 98 332.5 c 128,-1,27
 149 516 149 516 154 588 c 1,28,29
 154 605 154 605 143 625 c 128,-1,30
 132 645 132 645 122 657 c 2,31,-1
 111 669 l 1,32,-1
 113 689 l 1,33,34
 176 710 176 710 336 710 c 1,35,36
 352 680 352 680 352 646 c 0,37,38
 352 588 352 588 298.5 393 c 128,-1,39
 245 198 245 198 245 127 c 0,16,17
EndSplineSet
EndChar

StartChar: Eth
Encoding: 208 208 146
Width: 694
GlyphClass: 2
Flags: W
LayerCount: 2
Fore
SplineSet
493.5 29 m 128,-1,1
 426 -12 426 -12 355.5 -12 c 128,-1,2
 285 -12 285 -12 226 14 c 1,3,4
 175 -5 175 -5 116.5 -5 c 128,-1,5
 58 -5 58 -5 54 -4 c 1,6,7
 54 69 54 69 116 325 c 1,8,-1
 46 325 l 1,9,10
 46 382 46 382 51 407 c 1,11,-1
 136 407 l 1,12,13
 164 528 164 528 164 559 c 0,14,15
 164 610 164 610 130 649 c 1,16,-1
 118 662 l 1,17,-1
 121 685 l 1,18,19
 151 693 151 693 238.5 701.5 c 128,-1,20
 326 710 326 710 395 710 c 0,21,22
 692 710 692 710 692 450 c 0,23,24
 692 277 692 277 604 137 c 0,25,0
 561 70 561 70 493.5 29 c 128,-1,1
403 639 m 0,26,27
 385 639 385 639 364 636 c 1,28,29
 360 577 360 577 322 407 c 1,30,-1
 425 407 l 1,31,32
 425 360 425 360 415 325 c 1,33,-1
 303 325 l 1,34,35
 266 169 266 169 254 84 c 1,36,37
 272 75 272 75 299 75 c 0,38,39
 351 75 351 75 392 123 c 128,-1,40
 433 171 433 171 454 243 c 0,41,42
 498 389 498 389 498 509 c 0,43,44
 498 580 498 580 476.5 609.5 c 128,-1,45
 455 639 455 639 403 639 c 0,26,27
EndSplineSet
EndChar

StartChar: Ntilde
Encoding: 209 209 147
Width: 689
GlyphClass: 2
Flags: W
LayerCount: 2
Fore
SplineSet
58 -6 m 2,0,-1
 41 -6 l 1,1,2
 41 54 41 54 97 300 c 128,-1,3
 153 546 153 546 153 585 c 0,4,5
 153 602 153 602 142.5 623 c 128,-1,6
 132 644 132 644 122 656 c 2,7,-1
 112 669 l 1,8,-1
 115 689 l 1,9,10
 177 710 177 710 331 710 c 1,11,12
 349 672 349 672 349 624 c 2,13,-1
 349 622 l 1,14,15
 469 710 469 710 559 710 c 0,16,17
 612 710 612 710 646 678.5 c 128,-1,18
 680 647 680 647 680 588.5 c 128,-1,19
 680 530 680 530 634 353 c 128,-1,20
 588 176 588 176 588 137.5 c 128,-1,21
 588 99 588 99 601 99 c 0,22,23
 619 99 619 99 655 112 c 1,24,-1
 676 55 l 1,25,26
 578 -12 578 -12 494 -12 c 0,27,28
 446 -12 446 -12 420.5 13.5 c 128,-1,29
 395 39 395 39 395 98 c 128,-1,30
 395 157 395 157 438.5 322.5 c 128,-1,31
 482 488 482 488 482 528 c 0,32,33
 482 579 482 579 437 579 c 0,34,35
 404 579 404 579 338 538 c 1,36,37
 329 490 329 490 300 372 c 0,38,39
 236 103 236 103 236 20 c 1,40,41
 192 -6 192 -6 58 -6 c 2,0,-1
565 761 m 0,42,43
 542 761 542 761 473.5 775.5 c 128,-1,44
 405 790 405 790 383 790 c 0,45,46
 341 790 341 790 315 753 c 1,47,-1
 261 767 l 1,48,49
 275 904 275 904 384 904 c 0,50,51
 406 904 406 904 475 889.5 c 128,-1,52
 544 875 544 875 567.5 875 c 128,-1,53
 591 875 591 875 602 881 c 128,-1,54
 613 887 613 887 626 905 c 1,55,-1
 681 893 l 1,56,57
 667 761 667 761 565 761 c 0,42,43
EndSplineSet
EndChar

StartChar: Ograve
Encoding: 210 210 148
Width: 675
GlyphClass: 2
Flags: W
LayerCount: 2
Fore
SplineSet
659 536 m 128,-1,1
 673 491 673 491 673 429 c 128,-1,2
 673 367 673 367 651.5 291 c 128,-1,3
 630 215 630 215 587.5 145.5 c 128,-1,4
 545 76 545 76 470 32 c 128,-1,5
 395 -12 395 -12 299 -12 c 0,6,7
 182 -12 182 -12 115 67 c 128,-1,8
 48 146 48 146 48 266 c 128,-1,9
 48 386 48 386 93.5 485.5 c 128,-1,10
 139 585 139 585 223.5 647.5 c 128,-1,11
 308 710 308 710 412 710 c 0,12,13
 482 710 482 710 534.5 686 c 128,-1,14
 587 662 587 662 616 621.5 c 128,-1,0
 645 581 645 581 659 536 c 128,-1,1
281 78 m 0,15,16
 299 64 299 64 333.5 64 c 128,-1,17
 368 64 368 64 398.5 104.5 c 128,-1,18
 429 145 429 145 446 209 c 0,19,20
 478 335 478 335 478 470 c 0,21,22
 478 634 478 634 398 634 c 0,23,24
 360 634 360 634 329.5 598.5 c 128,-1,25
 299 563 299 563 281 506 c 0,26,27
 244 390 244 390 244 257 c 0,28,29
 244 108 244 108 281 78 c 0,15,16
284 905 m 0,30,31
 315 905 315 905 396 869.5 c 128,-1,32
 477 834 477 834 560 788 c 1,33,-1
 538 735 l 1,34,35
 441 758 441 758 213 802 c 1,36,37
 244 905 244 905 284 905 c 0,30,31
EndSplineSet
EndChar

StartChar: Oacute
Encoding: 211 211 149
Width: 675
GlyphClass: 2
Flags: W
LayerCount: 2
Fore
SplineSet
659 536 m 128,-1,1
 673 491 673 491 673 429 c 128,-1,2
 673 367 673 367 651.5 291 c 128,-1,3
 630 215 630 215 587.5 145.5 c 128,-1,4
 545 76 545 76 470 32 c 128,-1,5
 395 -12 395 -12 299 -12 c 0,6,7
 182 -12 182 -12 115 67 c 128,-1,8
 48 146 48 146 48 266 c 128,-1,9
 48 386 48 386 93.5 485.5 c 128,-1,10
 139 585 139 585 223.5 647.5 c 128,-1,11
 308 710 308 710 412 710 c 0,12,13
 482 710 482 710 534.5 686 c 128,-1,14
 587 662 587 662 616 621.5 c 128,-1,0
 645 581 645 581 659 536 c 128,-1,1
281 78 m 0,15,16
 299 64 299 64 333.5 64 c 128,-1,17
 368 64 368 64 398.5 104.5 c 128,-1,18
 429 145 429 145 446 209 c 0,19,20
 478 335 478 335 478 470 c 0,21,22
 478 634 478 634 398 634 c 0,23,24
 360 634 360 634 329.5 598.5 c 128,-1,25
 299 563 299 563 281 506 c 0,26,27
 244 390 244 390 244 257 c 0,28,29
 244 108 244 108 281 78 c 0,15,16
604 842 m 0,30,31
 604 810 604 810 566 796 c 1,32,33
 517 775 517 775 287 740 c 1,34,-1
 268 794 l 1,35,36
 295 806 295 806 345 828 c 128,-1,37
 395 850 395 850 424 863 c 0,38,39
 507 900 507 900 564 933 c 1,40,41
 575 917 575 917 589.5 886.5 c 128,-1,42
 604 856 604 856 604 842 c 0,30,31
EndSplineSet
EndChar

StartChar: Ocircumflex
Encoding: 212 212 150
Width: 675
GlyphClass: 2
Flags: W
LayerCount: 2
Fore
SplineSet
659 536 m 128,-1,1
 673 491 673 491 673 429 c 128,-1,2
 673 367 673 367 651.5 291 c 128,-1,3
 630 215 630 215 587.5 145.5 c 128,-1,4
 545 76 545 76 470 32 c 128,-1,5
 395 -12 395 -12 299 -12 c 0,6,7
 182 -12 182 -12 115 67 c 128,-1,8
 48 146 48 146 48 266 c 128,-1,9
 48 386 48 386 93.5 485.5 c 128,-1,10
 139 585 139 585 223.5 647.5 c 128,-1,11
 308 710 308 710 412 710 c 0,12,13
 482 710 482 710 534.5 686 c 128,-1,14
 587 662 587 662 616 621.5 c 128,-1,0
 645 581 645 581 659 536 c 128,-1,1
281 78 m 0,15,16
 299 64 299 64 333.5 64 c 128,-1,17
 368 64 368 64 398.5 104.5 c 128,-1,18
 429 145 429 145 446 209 c 0,19,20
 478 335 478 335 478 470 c 0,21,22
 478 634 478 634 398 634 c 0,23,24
 360 634 360 634 329.5 598.5 c 128,-1,25
 299 563 299 563 281 506 c 0,26,27
 244 390 244 390 244 257 c 0,28,29
 244 108 244 108 281 78 c 0,15,16
368 875 m 128,-1,31
 455 919 455 919 485.5 919 c 128,-1,32
 516 919 516 919 568.5 866 c 128,-1,33
 621 813 621 813 645 778 c 1,34,-1
 606 741 l 1,35,36
 497 786 497 786 452 800 c 1,37,38
 381 786 381 786 248 739 c 1,39,-1
 219 787 l 1,40,30
 281 831 281 831 368 875 c 128,-1,31
EndSplineSet
EndChar

StartChar: Otilde
Encoding: 213 213 151
Width: 675
GlyphClass: 2
Flags: W
LayerCount: 2
Fore
SplineSet
659 536 m 128,-1,1
 673 491 673 491 673 429 c 128,-1,2
 673 367 673 367 651.5 291 c 128,-1,3
 630 215 630 215 587.5 145.5 c 128,-1,4
 545 76 545 76 470 32 c 128,-1,5
 395 -12 395 -12 299 -12 c 0,6,7
 182 -12 182 -12 115 67 c 128,-1,8
 48 146 48 146 48 266 c 128,-1,9
 48 386 48 386 93.5 485.5 c 128,-1,10
 139 585 139 585 223.5 647.5 c 128,-1,11
 308 710 308 710 412 710 c 0,12,13
 482 710 482 710 534.5 686 c 128,-1,14
 587 662 587 662 616 621.5 c 128,-1,0
 645 581 645 581 659 536 c 128,-1,1
281 78 m 0,15,16
 299 64 299 64 333.5 64 c 128,-1,17
 368 64 368 64 398.5 104.5 c 128,-1,18
 429 145 429 145 446 209 c 0,19,20
 478 335 478 335 478 470 c 0,21,22
 478 634 478 634 398 634 c 0,23,24
 360 634 360 634 329.5 598.5 c 128,-1,25
 299 563 299 563 281 506 c 0,26,27
 244 390 244 390 244 257 c 0,28,29
 244 108 244 108 281 78 c 0,15,16
524 761 m 0,30,31
 502 761 502 761 433 775.5 c 128,-1,32
 364 790 364 790 342 790 c 0,33,34
 300 790 300 790 274 753 c 1,35,-1
 220 767 l 1,36,37
 234 904 234 904 343 904 c 0,38,39
 366 904 366 904 434 889.5 c 128,-1,40
 502 875 502 875 526 875 c 128,-1,41
 550 875 550 875 561 881 c 128,-1,42
 572 887 572 887 585 905 c 1,43,-1
 640 893 l 1,44,45
 626 761 626 761 524 761 c 0,30,31
EndSplineSet
EndChar

StartChar: Odieresis
Encoding: 214 214 152
Width: 675
GlyphClass: 2
Flags: W
LayerCount: 2
Fore
SplineSet
659 536 m 128,-1,1
 673 491 673 491 673 429 c 128,-1,2
 673 367 673 367 651.5 291 c 128,-1,3
 630 215 630 215 587.5 145.5 c 128,-1,4
 545 76 545 76 470 32 c 128,-1,5
 395 -12 395 -12 299 -12 c 0,6,7
 182 -12 182 -12 115 67 c 128,-1,8
 48 146 48 146 48 266 c 128,-1,9
 48 386 48 386 93.5 485.5 c 128,-1,10
 139 585 139 585 223.5 647.5 c 128,-1,11
 308 710 308 710 412 710 c 0,12,13
 482 710 482 710 534.5 686 c 128,-1,14
 587 662 587 662 616 621.5 c 128,-1,0
 645 581 645 581 659 536 c 128,-1,1
281 78 m 0,15,16
 299 64 299 64 333.5 64 c 128,-1,17
 368 64 368 64 398.5 104.5 c 128,-1,18
 429 145 429 145 446 209 c 0,19,20
 478 335 478 335 478 470 c 0,21,22
 478 634 478 634 398 634 c 0,23,24
 360 634 360 634 329.5 598.5 c 128,-1,25
 299 563 299 563 281 506 c 0,26,27
 244 390 244 390 244 257 c 0,28,29
 244 108 244 108 281 78 c 0,15,16
242 777 m 128,-1,31
 221 797 221 797 221 828.5 c 128,-1,32
 221 860 221 860 247 881.5 c 128,-1,33
 273 903 273 903 310 903 c 128,-1,34
 347 903 347 903 367.5 885.5 c 128,-1,35
 388 868 388 868 388 836 c 128,-1,36
 388 804 388 804 362.5 780.5 c 128,-1,37
 337 757 337 757 300 757 c 128,-1,30
 263 757 263 757 242 777 c 128,-1,31
469 777 m 128,-1,39
 448 797 448 797 448 828.5 c 128,-1,40
 448 860 448 860 474 881.5 c 128,-1,41
 500 903 500 903 537 903 c 128,-1,42
 574 903 574 903 594.5 885.5 c 128,-1,43
 615 868 615 868 615 836 c 128,-1,44
 615 804 615 804 589.5 780.5 c 128,-1,45
 564 757 564 757 527 757 c 128,-1,38
 490 757 490 757 469 777 c 128,-1,39
EndSplineSet
EndChar

StartChar: multiply
Encoding: 215 215 153
Width: 511
GlyphClass: 2
Flags: W
LayerCount: 2
Fore
SplineSet
388 91 m 1,0,-1
 259 219 l 1,1,-1
 131 91 l 1,2,3
 80 138 80 138 70 161 c 1,4,-1
 194 285 l 1,5,-1
 72 407 l 1,6,7
 90 433 90 433 135 476 c 1,8,-1
 259 351 l 1,9,-1
 384 476 l 1,10,11
 429 433 429 433 447 407 c 1,12,-1
 325 285 l 1,13,-1
 449 161 l 1,14,15
 435 135 435 135 388 91 c 1,0,-1
EndSplineSet
EndChar

StartChar: Oslash
Encoding: 216 216 154
Width: 675
GlyphClass: 2
Flags: W
LayerCount: 2
Fore
SplineSet
578 776 m 1,0,1
 571 760 571 760 541 682 c 1,2,3
 608 648 608 648 640.5 582 c 128,-1,4
 673 516 673 516 673 441.5 c 128,-1,5
 673 367 673 367 651.5 291 c 128,-1,6
 630 215 630 215 587.5 145.5 c 128,-1,7
 545 76 545 76 470 32 c 128,-1,8
 395 -12 395 -12 299 -12 c 0,9,10
 286 -12 286 -12 266 -10 c 1,11,-1
 232 -104 l 1,12,13
 218 -103 218 -103 192 -94 c 1,14,15
 165 -86 165 -86 149 -76 c 1,16,17
 164 -31 164 -31 182 14 c 1,18,19
 117 46 117 46 82.5 114 c 128,-1,20
 48 182 48 182 48 284 c 128,-1,21
 48 386 48 386 93.5 485.5 c 128,-1,22
 139 585 139 585 223.5 647.5 c 128,-1,23
 308 710 308 710 412 710 c 0,24,25
 434 710 434 710 454 707 c 1,26,27
 459 719 459 719 491 802 c 1,28,29
 517 800 517 800 544 791 c 128,-1,30
 571 782 571 782 578 776 c 1,0,1
328 64 m 0,31,32
 368 64 368 64 398.5 104.5 c 128,-1,33
 429 145 429 145 446 209 c 0,34,35
 478 335 478 335 478 470 c 0,36,37
 478 485 478 485 476 521 c 1,38,39
 353 217 353 217 296 70 c 1,40,41
 310 64 310 64 328 64 c 0,31,32
245 181 m 1,42,-1
 423 629 l 1,43,44
 411 634 411 634 398 634 c 0,45,46
 360 634 360 634 329.5 598.5 c 128,-1,47
 299 563 299 563 281 506 c 0,48,49
 244 390 244 390 244 257 c 0,50,51
 244 192 244 192 245 181 c 1,42,-1
EndSplineSet
EndChar

StartChar: Ugrave
Encoding: 217 217 155
Width: 705
GlyphClass: 2
Flags: W
LayerCount: 2
Fore
SplineSet
306 120 m 0,0,1
 347 120 347 120 410 156 c 1,2,3
 412 170 412 170 456 361.5 c 128,-1,4
 500 553 500 553 500 634 c 0,5,6
 500 664 500 664 499 675 c 1,7,8
 599 710 599 710 690 710 c 1,9,10
 696 703 696 703 696 676 c 0,11,12
 696 616 696 616 646.5 396 c 128,-1,13
 597 176 597 176 597 137.5 c 128,-1,14
 597 99 597 99 611 99 c 0,15,16
 620 99 620 99 665 112 c 1,17,-1
 686 56 l 1,18,19
 592 -12 592 -12 505 -12 c 0,20,21
 464 -12 464 -12 438 11 c 128,-1,22
 412 34 412 34 406 73 c 1,23,24
 283 -12 283 -12 195 -12 c 0,25,26
 138 -12 138 -12 101.5 19.5 c 128,-1,27
 65 51 65 51 65 105.5 c 128,-1,28
 65 160 65 160 108 330 c 128,-1,29
 151 500 151 500 151 588 c 0,30,31
 151 605 151 605 140.5 625 c 128,-1,32
 130 645 130 645 120 657 c 2,33,-1
 109 669 l 1,34,-1
 112 689 l 1,35,36
 175 710 175 710 329 710 c 1,37,38
 348 684 348 684 348 622 c 128,-1,39
 348 560 348 560 305 383 c 128,-1,40
 262 206 262 206 262 170 c 0,41,42
 262 120 262 120 306 120 c 0,0,1
290 905 m 0,43,44
 321 905 321 905 402 869.5 c 128,-1,45
 483 834 483 834 566 788 c 1,46,-1
 544 735 l 1,47,48
 447 758 447 758 219 802 c 1,49,50
 250 905 250 905 290 905 c 0,43,44
EndSplineSet
EndChar

StartChar: Uacute
Encoding: 218 218 156
Width: 705
GlyphClass: 2
Flags: W
LayerCount: 2
Fore
SplineSet
306 120 m 0,0,1
 347 120 347 120 410 156 c 1,2,3
 412 170 412 170 456 361.5 c 128,-1,4
 500 553 500 553 500 634 c 0,5,6
 500 664 500 664 499 675 c 1,7,8
 599 710 599 710 690 710 c 1,9,10
 696 703 696 703 696 676 c 0,11,12
 696 616 696 616 646.5 396 c 128,-1,13
 597 176 597 176 597 137.5 c 128,-1,14
 597 99 597 99 611 99 c 0,15,16
 620 99 620 99 665 112 c 1,17,-1
 686 56 l 1,18,19
 592 -12 592 -12 505 -12 c 0,20,21
 464 -12 464 -12 438 11 c 128,-1,22
 412 34 412 34 406 73 c 1,23,24
 283 -12 283 -12 195 -12 c 0,25,26
 138 -12 138 -12 101.5 19.5 c 128,-1,27
 65 51 65 51 65 105.5 c 128,-1,28
 65 160 65 160 108 330 c 128,-1,29
 151 500 151 500 151 588 c 0,30,31
 151 605 151 605 140.5 625 c 128,-1,32
 130 645 130 645 120 657 c 2,33,-1
 109 669 l 1,34,-1
 112 689 l 1,35,36
 175 710 175 710 329 710 c 1,37,38
 348 684 348 684 348 622 c 128,-1,39
 348 560 348 560 305 383 c 128,-1,40
 262 206 262 206 262 170 c 0,41,42
 262 120 262 120 306 120 c 0,0,1
665 842 m 0,43,44
 665 810 665 810 627 796 c 1,45,46
 578 775 578 775 348 740 c 1,47,-1
 329 794 l 1,48,49
 356 806 356 806 406 828 c 128,-1,50
 456 850 456 850 485 863 c 0,51,52
 568 900 568 900 625 933 c 1,53,54
 636 917 636 917 650.5 886.5 c 128,-1,55
 665 856 665 856 665 842 c 0,43,44
EndSplineSet
EndChar

StartChar: Ucircumflex
Encoding: 219 219 157
Width: 705
GlyphClass: 2
Flags: W
LayerCount: 2
Fore
SplineSet
306 120 m 0,0,1
 347 120 347 120 410 156 c 1,2,3
 412 170 412 170 456 361.5 c 128,-1,4
 500 553 500 553 500 634 c 0,5,6
 500 664 500 664 499 675 c 1,7,8
 599 710 599 710 690 710 c 1,9,10
 696 703 696 703 696 676 c 0,11,12
 696 616 696 616 646.5 396 c 128,-1,13
 597 176 597 176 597 137.5 c 128,-1,14
 597 99 597 99 611 99 c 0,15,16
 620 99 620 99 665 112 c 1,17,-1
 686 56 l 1,18,19
 592 -12 592 -12 505 -12 c 0,20,21
 464 -12 464 -12 438 11 c 128,-1,22
 412 34 412 34 406 73 c 1,23,24
 283 -12 283 -12 195 -12 c 0,25,26
 138 -12 138 -12 101.5 19.5 c 128,-1,27
 65 51 65 51 65 105.5 c 128,-1,28
 65 160 65 160 108 330 c 128,-1,29
 151 500 151 500 151 588 c 0,30,31
 151 605 151 605 140.5 625 c 128,-1,32
 130 645 130 645 120 657 c 2,33,-1
 109 669 l 1,34,-1
 112 689 l 1,35,36
 175 710 175 710 329 710 c 1,37,38
 348 684 348 684 348 622 c 128,-1,39
 348 560 348 560 305 383 c 128,-1,40
 262 206 262 206 262 170 c 0,41,42
 262 120 262 120 306 120 c 0,0,1
389 875 m 128,-1,44
 476 919 476 919 506.5 919 c 128,-1,45
 537 919 537 919 589.5 866 c 128,-1,46
 642 813 642 813 666 778 c 1,47,-1
 627 741 l 1,48,49
 518 786 518 786 473 800 c 1,50,51
 402 786 402 786 269 739 c 1,52,-1
 240 787 l 1,53,43
 302 831 302 831 389 875 c 128,-1,44
EndSplineSet
EndChar

StartChar: Udieresis
Encoding: 220 220 158
Width: 705
GlyphClass: 2
Flags: W
LayerCount: 2
Fore
SplineSet
306 120 m 0,0,1
 347 120 347 120 410 156 c 1,2,3
 412 170 412 170 456 361.5 c 128,-1,4
 500 553 500 553 500 634 c 0,5,6
 500 664 500 664 499 675 c 1,7,8
 599 710 599 710 690 710 c 1,9,10
 696 703 696 703 696 676 c 0,11,12
 696 616 696 616 646.5 396 c 128,-1,13
 597 176 597 176 597 137.5 c 128,-1,14
 597 99 597 99 611 99 c 0,15,16
 620 99 620 99 665 112 c 1,17,-1
 686 56 l 1,18,19
 592 -12 592 -12 505 -12 c 0,20,21
 464 -12 464 -12 438 11 c 128,-1,22
 412 34 412 34 406 73 c 1,23,24
 283 -12 283 -12 195 -12 c 0,25,26
 138 -12 138 -12 101.5 19.5 c 128,-1,27
 65 51 65 51 65 105.5 c 128,-1,28
 65 160 65 160 108 330 c 128,-1,29
 151 500 151 500 151 588 c 0,30,31
 151 605 151 605 140.5 625 c 128,-1,32
 130 645 130 645 120 657 c 2,33,-1
 109 669 l 1,34,-1
 112 689 l 1,35,36
 175 710 175 710 329 710 c 1,37,38
 348 684 348 684 348 622 c 128,-1,39
 348 560 348 560 305 383 c 128,-1,40
 262 206 262 206 262 170 c 0,41,42
 262 120 262 120 306 120 c 0,0,1
512 777 m 128,-1,44
 491 797 491 797 491 828.5 c 128,-1,45
 491 860 491 860 517 881.5 c 128,-1,46
 543 903 543 903 580 903 c 128,-1,47
 617 903 617 903 637.5 885.5 c 128,-1,48
 658 868 658 868 658 836 c 128,-1,49
 658 804 658 804 632.5 780.5 c 128,-1,50
 607 757 607 757 570 757 c 128,-1,43
 533 757 533 757 512 777 c 128,-1,44
285 777 m 128,-1,52
 264 797 264 797 264 828.5 c 128,-1,53
 264 860 264 860 290 881.5 c 128,-1,54
 316 903 316 903 353 903 c 128,-1,55
 390 903 390 903 410.5 885.5 c 128,-1,56
 431 868 431 868 431 836 c 128,-1,57
 431 804 431 804 405.5 780.5 c 128,-1,58
 380 757 380 757 343 757 c 128,-1,51
 306 757 306 757 285 777 c 128,-1,52
EndSplineSet
EndChar

StartChar: Yacute
Encoding: 221 221 159
Width: 670
GlyphClass: 2
Flags: W
LayerCount: 2
Fore
SplineSet
665 842 m 0,0,1
 665 810 665 810 627 796 c 1,2,3
 578 775 578 775 348 740 c 1,4,-1
 329 794 l 1,5,6
 356 806 356 806 406 828 c 128,-1,7
 456 850 456 850 485 863 c 0,8,9
 568 900 568 900 625 933 c 1,10,11
 636 917 636 917 650.5 886.5 c 128,-1,12
 665 856 665 856 665 842 c 0,0,1
303.5 -215 m 128,-1,14
 270 -224 270 -224 229.5 -224 c 128,-1,15
 189 -224 189 -224 155.5 -197 c 128,-1,16
 122 -170 122 -170 122 -131 c 128,-1,17
 122 -92 122 -92 141.5 -64.5 c 128,-1,18
 161 -37 161 -37 198 -18 c 0,19,20
 263 16 263 16 362 37 c 1,21,22
 369 53 369 53 385 110 c 1,23,24
 345 89 345 89 284.5 71 c 128,-1,25
 224 53 224 53 177 53 c 128,-1,26
 130 53 130 53 97.5 84.5 c 128,-1,27
 65 116 65 116 65 171.5 c 128,-1,28
 65 227 65 227 101.5 373.5 c 128,-1,29
 138 520 138 520 138 583 c 0,30,31
 138 602 138 602 128 623.5 c 128,-1,32
 118 645 118 645 108 658 c 2,33,-1
 99 670 l 1,34,-1
 102 690 l 1,35,36
 164 710 164 710 316 710 c 1,37,38
 335 677 335 677 335 621.5 c 128,-1,39
 335 566 335 566 297 409 c 128,-1,40
 259 252 259 252 259 223 c 0,41,42
 259 173 259 173 294 173 c 0,43,44
 342 173 342 173 409 209 c 1,45,46
 442 349 442 349 465 484 c 128,-1,47
 488 619 488 619 488 680 c 1,48,49
 520 693 520 693 574 701 c 128,-1,50
 628 709 628 709 663 709 c 2,51,-1
 685 709 l 1,52,53
 685 632 685 632 644 438 c 0,54,55
 629 371 629 371 600.5 239.5 c 128,-1,56
 572 108 572 108 535.5 25.5 c 128,-1,57
 499 -57 499 -57 461.5 -102.5 c 128,-1,58
 424 -148 424 -148 380.5 -177 c 128,-1,13
 337 -206 337 -206 303.5 -215 c 128,-1,14
196 -113 m 0,59,60
 196 -135 196 -135 225 -135 c 128,-1,61
 254 -135 254 -135 289 -101.5 c 128,-1,62
 324 -68 324 -68 339 -33 c 1,63,64
 281 -42 281 -42 238.5 -64.5 c 128,-1,65
 196 -87 196 -87 196 -113 c 0,59,60
EndSplineSet
EndChar

StartChar: Thorn
Encoding: 222 222 160
Width: 584
GlyphClass: 2
Flags: W
LayerCount: 2
Fore
SplineSet
54 -3 m 2,0,-1
 41 -3 l 1,1,2
 41 46 41 46 99 292 c 128,-1,3
 157 538 157 538 157 589 c 0,4,5
 157 605 157 605 146.5 626 c 128,-1,6
 136 647 136 647 126 660 c 2,7,-1
 116 673 l 1,8,-1
 119 693 l 1,9,10
 175 710 175 710 339 710 c 1,11,12
 357 694 357 694 357 637 c 0,13,14
 357 629 357 629 353 597 c 1,15,16
 363 598 363 598 382 598 c 0,17,18
 607 598 607 598 607 428 c 0,19,20
 607 316 607 316 525.5 238.5 c 128,-1,21
 444 161 444 161 290 161 c 2,22,-1
 258 161 l 1,23,24
 242 75 242 75 242 17 c 1,25,26
 196 -3 196 -3 54 -3 c 2,0,-1
399.5 500.5 m 128,-1,28
 387 524 387 524 368.5 524 c 128,-1,29
 350 524 350 524 337 519 c 1,30,31
 276 255 276 255 274 245 c 1,32,-1
 278 245 l 2,33,34
 340 245 340 245 376 299.5 c 128,-1,35
 412 354 412 354 412 440 c 0,36,27
 412 477 412 477 399.5 500.5 c 128,-1,28
EndSplineSet
EndChar

StartChar: germandbls
Encoding: 223 223 161
Width: 663
GlyphClass: 2
Flags: W
LayerCount: 2
Fore
SplineSet
669 154 m 0,0,1
 669 79 669 79 605 34 c 128,-1,2
 541 -11 541 -11 458 -11 c 0,3,4
 404 -11 404 -11 350 17.5 c 128,-1,5
 296 46 296 46 296 71 c 0,6,7
 296 89 296 89 331 128 c 128,-1,8
 366 167 366 167 395 174 c 1,9,10
 414 168 414 168 441.5 139 c 128,-1,11
 469 110 469 110 491 66 c 1,12,13
 517 70 517 70 517 88 c 0,14,15
 517 130 517 130 428 216 c 0,16,17
 395 248 395 248 367 292.5 c 128,-1,18
 339 337 339 337 339 369 c 128,-1,19
 339 401 339 401 351 418.5 c 128,-1,20
 363 436 363 436 380 449.5 c 128,-1,21
 397 463 397 463 414 480 c 0,22,23
 456 519 456 519 456 599 c 0,24,25
 456 630 456 630 444 647.5 c 128,-1,26
 432 665 432 665 410 665 c 0,27,28
 370 665 370 665 341 550.5 c 128,-1,29
 312 436 312 436 297 294 c 128,-1,30
 282 152 282 152 255 15.5 c 128,-1,31
 228 -121 228 -121 192 -155 c 1,32,33
 153 -155 153 -155 100.5 -145 c 128,-1,34
 48 -135 48 -135 25 -123 c 1,35,36
 89 60 89 60 125 352 c 1,37,38
 74 349 74 349 47 343 c 1,39,40
 46 355 46 355 46 373 c 128,-1,41
 46 391 46 391 53 431 c 1,42,-1
 137 431 l 1,43,44
 172 605 172 605 239.5 668 c 128,-1,45
 307 731 307 731 439 731 c 0,46,47
 552 731 552 731 606 680 c 0,48,49
 637 650 637 650 637 610 c 128,-1,50
 637 570 637 570 618 540 c 128,-1,51
 599 510 599 510 575.5 494 c 128,-1,52
 552 478 552 478 533 457 c 128,-1,53
 514 436 514 436 514 414 c 128,-1,54
 514 392 514 392 538 360.5 c 128,-1,55
 562 329 562 329 591.5 300.5 c 128,-1,56
 621 272 621 272 645 231.5 c 128,-1,57
 669 191 669 191 669 154 c 0,0,1
EndSplineSet
EndChar

StartChar: agrave
Encoding: 224 224 162
Width: 531
GlyphClass: 2
Flags: W
LayerCount: 2
Fore
SplineSet
231 696 m 0,0,1
 277 696 277 696 490 547 c 1,2,-1
 464 499 l 1,3,4
 318 551 318 551 155 590 c 1,5,6
 191 696 191 696 231 696 c 0,0,1
482 250.5 m 128,-1,8
 467 161 467 161 467 125.5 c 128,-1,9
 467 90 467 90 478 90 c 1,10,-1
 528 104 l 1,11,-1
 546 54 l 1,12,13
 514 29 514 29 464.5 8.5 c 128,-1,14
 415 -12 415 -12 377 -12 c 0,15,16
 312 -12 312 -12 295 44 c 1,17,18
 216 -12 216 -12 155.5 -12 c 128,-1,19
 95 -12 95 -12 62 32 c 128,-1,20
 29 76 29 76 29 158 c 0,21,22
 29 271 29 271 87 357 c 128,-1,23
 145 443 145 443 240 443 c 0,24,25
 292 443 292 443 346 414 c 1,26,27
 354 432 354 432 359 440 c 1,28,29
 431 440 431 440 518 405 c 1,30,7
 497 340 497 340 482 250.5 c 128,-1,8
224 107 m 128,-1,32
 231 94 231 94 250 94 c 128,-1,33
 269 94 269 94 287 109 c 1,34,35
 291 225 291 225 325 352 c 1,36,37
 310 361 310 361 290.5 361 c 128,-1,38
 271 361 271 361 255.5 339 c 128,-1,39
 240 317 240 317 232 284 c 0,40,41
 217 221 217 221 217 170.5 c 128,-1,31
 217 120 217 120 224 107 c 128,-1,32
EndSplineSet
EndChar

StartChar: aacute
Encoding: 225 225 163
Width: 531
GlyphClass: 2
Flags: W
LayerCount: 2
Fore
SplineSet
516 614 m 0,0,1
 516 579 516 579 479 563 c 1,2,3
 423 537 423 537 219 501 c 1,4,-1
 202 551 l 1,5,6
 325 611 325 611 476 707 c 1,7,8
 487 692 487 692 501.5 660 c 128,-1,9
 516 628 516 628 516 614 c 0,0,1
482 250.5 m 128,-1,11
 467 161 467 161 467 125.5 c 128,-1,12
 467 90 467 90 478 90 c 1,13,-1
 528 104 l 1,14,-1
 546 54 l 1,15,16
 514 29 514 29 464.5 8.5 c 128,-1,17
 415 -12 415 -12 377 -12 c 0,18,19
 312 -12 312 -12 295 44 c 1,20,21
 216 -12 216 -12 155.5 -12 c 128,-1,22
 95 -12 95 -12 62 32 c 128,-1,23
 29 76 29 76 29 158 c 0,24,25
 29 271 29 271 87 357 c 128,-1,26
 145 443 145 443 240 443 c 0,27,28
 292 443 292 443 346 414 c 1,29,30
 354 432 354 432 359 440 c 1,31,32
 431 440 431 440 518 405 c 1,33,10
 497 340 497 340 482 250.5 c 128,-1,11
224 107 m 128,-1,35
 231 94 231 94 250 94 c 128,-1,36
 269 94 269 94 287 109 c 1,37,38
 291 225 291 225 325 352 c 1,39,40
 310 361 310 361 290.5 361 c 128,-1,41
 271 361 271 361 255.5 339 c 128,-1,42
 240 317 240 317 232 284 c 0,43,44
 217 221 217 221 217 170.5 c 128,-1,34
 217 120 217 120 224 107 c 128,-1,35
EndSplineSet
EndChar

StartChar: acircumflex
Encoding: 226 226 164
Width: 531
GlyphClass: 2
Flags: W
LayerCount: 2
Fore
SplineSet
283.5 652.5 m 128,-1,1
 366 704 366 704 399.5 704 c 128,-1,2
 433 704 433 704 478 644 c 128,-1,3
 523 584 523 584 545 539 c 1,4,-1
 503 503 l 1,5,6
 413 562 413 562 364 583 c 1,7,8
 286 560 286 560 174 501 c 1,9,-1
 142 548 l 1,10,0
 201 601 201 601 283.5 652.5 c 128,-1,1
482 250.5 m 128,-1,12
 467 161 467 161 467 125.5 c 128,-1,13
 467 90 467 90 478 90 c 1,14,-1
 528 104 l 1,15,-1
 546 54 l 1,16,17
 514 29 514 29 464.5 8.5 c 128,-1,18
 415 -12 415 -12 377 -12 c 0,19,20
 312 -12 312 -12 295 44 c 1,21,22
 216 -12 216 -12 155.5 -12 c 128,-1,23
 95 -12 95 -12 62 32 c 128,-1,24
 29 76 29 76 29 158 c 0,25,26
 29 271 29 271 87 357 c 128,-1,27
 145 443 145 443 240 443 c 0,28,29
 292 443 292 443 346 414 c 1,30,31
 354 432 354 432 359 440 c 1,32,33
 431 440 431 440 518 405 c 1,34,11
 497 340 497 340 482 250.5 c 128,-1,12
224 107 m 128,-1,36
 231 94 231 94 250 94 c 128,-1,37
 269 94 269 94 287 109 c 1,38,39
 291 225 291 225 325 352 c 1,40,41
 310 361 310 361 290.5 361 c 128,-1,42
 271 361 271 361 255.5 339 c 128,-1,43
 240 317 240 317 232 284 c 0,44,45
 217 221 217 221 217 170.5 c 128,-1,35
 217 120 217 120 224 107 c 128,-1,36
EndSplineSet
EndChar

StartChar: atilde
Encoding: 227 227 165
Width: 526
GlyphClass: 2
Flags: W
LayerCount: 2
Fore
SplineSet
441 528 m 0,0,1
 420 528 420 528 354 544 c 128,-1,2
 288 560 288 560 266.5 560 c 128,-1,3
 245 560 245 560 231 550.5 c 128,-1,4
 217 541 217 541 203 515 c 1,5,-1
 151 527 l 1,6,7
 165 678 165 678 267 678 c 0,8,9
 289 678 289 678 354.5 662 c 128,-1,10
 420 646 420 646 443 646 c 128,-1,11
 466 646 466 646 477.5 653.5 c 128,-1,12
 489 661 489 661 501 683 c 1,13,-1
 551 673 l 1,14,15
 537 528 537 528 441 528 c 0,0,1
482 250.5 m 128,-1,17
 467 161 467 161 467 125.5 c 128,-1,18
 467 90 467 90 478 90 c 1,19,-1
 528 104 l 1,20,-1
 546 54 l 1,21,22
 514 29 514 29 464.5 8.5 c 128,-1,23
 415 -12 415 -12 377 -12 c 0,24,25
 312 -12 312 -12 295 44 c 1,26,27
 216 -12 216 -12 155.5 -12 c 128,-1,28
 95 -12 95 -12 62 32 c 128,-1,29
 29 76 29 76 29 158 c 0,30,31
 29 271 29 271 87 357 c 128,-1,32
 145 443 145 443 240 443 c 0,33,34
 292 443 292 443 346 414 c 1,35,36
 354 432 354 432 359 440 c 1,37,38
 431 440 431 440 518 405 c 1,39,16
 497 340 497 340 482 250.5 c 128,-1,17
224 107 m 128,-1,41
 231 94 231 94 250 94 c 128,-1,42
 269 94 269 94 287 109 c 1,43,44
 291 225 291 225 325 352 c 1,45,46
 310 361 310 361 290.5 361 c 128,-1,47
 271 361 271 361 255.5 339 c 128,-1,48
 240 317 240 317 232 284 c 0,49,50
 217 221 217 221 217 170.5 c 128,-1,40
 217 120 217 120 224 107 c 128,-1,41
EndSplineSet
EndChar

StartChar: adieresis
Encoding: 228 228 166
Width: 531
GlyphClass: 2
Flags: W
LayerCount: 2
Fore
SplineSet
166 550 m 128,-1,1
 145 570 145 570 145 601.5 c 128,-1,2
 145 633 145 633 171 654.5 c 128,-1,3
 197 676 197 676 234 676 c 128,-1,4
 271 676 271 676 291.5 658.5 c 128,-1,5
 312 641 312 641 312 609 c 128,-1,6
 312 577 312 577 286.5 553.5 c 128,-1,7
 261 530 261 530 224 530 c 128,-1,0
 187 530 187 530 166 550 c 128,-1,1
377 550 m 128,-1,9
 356 570 356 570 356 601.5 c 128,-1,10
 356 633 356 633 382 654.5 c 128,-1,11
 408 676 408 676 445 676 c 128,-1,12
 482 676 482 676 502.5 658.5 c 128,-1,13
 523 641 523 641 523 609 c 128,-1,14
 523 577 523 577 497.5 553.5 c 128,-1,15
 472 530 472 530 435 530 c 128,-1,8
 398 530 398 530 377 550 c 128,-1,9
482 250.5 m 128,-1,17
 467 161 467 161 467 125.5 c 128,-1,18
 467 90 467 90 478 90 c 1,19,-1
 528 104 l 1,20,-1
 546 54 l 1,21,22
 514 29 514 29 464.5 8.5 c 128,-1,23
 415 -12 415 -12 377 -12 c 0,24,25
 312 -12 312 -12 295 44 c 1,26,27
 216 -12 216 -12 155.5 -12 c 128,-1,28
 95 -12 95 -12 62 32 c 128,-1,29
 29 76 29 76 29 158 c 0,30,31
 29 271 29 271 87 357 c 128,-1,32
 145 443 145 443 240 443 c 0,33,34
 292 443 292 443 346 414 c 1,35,36
 354 432 354 432 359 440 c 1,37,38
 431 440 431 440 518 405 c 1,39,16
 497 340 497 340 482 250.5 c 128,-1,17
224 107 m 128,-1,41
 231 94 231 94 250 94 c 128,-1,42
 269 94 269 94 287 109 c 1,43,44
 291 225 291 225 325 352 c 1,45,46
 310 361 310 361 290.5 361 c 128,-1,47
 271 361 271 361 255.5 339 c 128,-1,48
 240 317 240 317 232 284 c 0,49,50
 217 221 217 221 217 170.5 c 128,-1,40
 217 120 217 120 224 107 c 128,-1,41
EndSplineSet
EndChar

StartChar: aring
Encoding: 229 229 167
Width: 531
GlyphClass: 2
Flags: W
LayerCount: 2
Fore
SplineSet
248 547.5 m 128,-1,1
 217 579 217 579 217 627.5 c 128,-1,2
 217 676 217 676 248 706.5 c 128,-1,3
 279 737 279 737 337 737 c 128,-1,4
 395 737 395 737 426 706.5 c 128,-1,5
 457 676 457 676 457 627.5 c 128,-1,6
 457 579 457 579 426 547.5 c 128,-1,7
 395 516 395 516 337 516 c 128,-1,0
 279 516 279 516 248 547.5 c 128,-1,1
292 627 m 128,-1,9
 292 608 292 608 304 596 c 128,-1,10
 316 584 316 584 337 584 c 0,11,12
 378 584 378 584 378 627 c 128,-1,13
 378 670 378 670 337 670 c 0,14,15
 316 670 316 670 304 658 c 128,-1,8
 292 646 292 646 292 627 c 128,-1,9
482 250.5 m 128,-1,17
 467 161 467 161 467 125.5 c 128,-1,18
 467 90 467 90 478 90 c 1,19,-1
 528 104 l 1,20,-1
 546 54 l 1,21,22
 514 29 514 29 464.5 8.5 c 128,-1,23
 415 -12 415 -12 377 -12 c 0,24,25
 312 -12 312 -12 295 44 c 1,26,27
 216 -12 216 -12 155.5 -12 c 128,-1,28
 95 -12 95 -12 62 32 c 128,-1,29
 29 76 29 76 29 158 c 0,30,31
 29 271 29 271 87 357 c 128,-1,32
 145 443 145 443 240 443 c 0,33,34
 292 443 292 443 346 414 c 1,35,36
 354 432 354 432 359 440 c 1,37,38
 431 440 431 440 518 405 c 1,39,16
 497 340 497 340 482 250.5 c 128,-1,17
224 107 m 128,-1,41
 231 94 231 94 250 94 c 128,-1,42
 269 94 269 94 287 109 c 1,43,44
 291 225 291 225 325 352 c 1,45,46
 310 361 310 361 290.5 361 c 128,-1,47
 271 361 271 361 255.5 339 c 128,-1,48
 240 317 240 317 232 284 c 0,49,50
 217 221 217 221 217 170.5 c 128,-1,40
 217 120 217 120 224 107 c 128,-1,41
EndSplineSet
EndChar

StartChar: ae
Encoding: 230 230 168
Width: 671
GlyphClass: 2
Flags: W
LayerCount: 2
Fore
SplineSet
223 443 m 0,0,1
 276 443 276 443 328 413 c 1,2,3
 333 426 333 426 341 440 c 1,4,5
 395 438 395 438 440 425 c 1,6,7
 486 443 486 443 547.5 443 c 128,-1,8
 609 443 609 443 648 414 c 128,-1,9
 687 385 687 385 687 340.5 c 128,-1,10
 687 296 687 296 664 266.5 c 128,-1,11
 641 237 641 237 608 221 c 0,12,13
 538 186 538 186 489 180 c 2,14,-1
 466 177 l 1,15,16
 466 133 466 133 485 108 c 128,-1,17
 504 83 504 83 532 83 c 128,-1,18
 560 83 560 83 584.5 92.5 c 128,-1,19
 609 102 609 102 622 112 c 2,20,-1
 635 122 l 1,21,-1
 664 73 l 1,22,23
 660 70 660 70 653.5 64 c 128,-1,24
 647 58 647 58 624.5 43.5 c 128,-1,25
 602 29 602 29 578 18 c 0,26,27
 518 -12 518 -12 446 -12 c 0,28,29
 354 -12 354 -12 312 51 c 1,30,31
 227 -12 227 -12 152 -12 c 0,32,33
 104 -12 104 -12 66.5 28.5 c 128,-1,34
 29 69 29 69 29 154 c 0,35,36
 29 288 29 288 85 365.5 c 128,-1,37
 141 443 141 443 223 443 c 0,0,1
283 173 m 0,38,39
 283 260 283 260 309 353 c 1,40,41
 287 362 287 362 274 362 c 0,42,43
 248 362 248 362 231 302 c 128,-1,44
 214 242 214 242 214 168 c 128,-1,45
 214 94 214 94 246 94 c 0,46,47
 263 94 263 94 290 110 c 1,48,49
 283 138 283 138 283 173 c 0,38,39
514.5 274 m 128,-1,51
 535 304 535 304 535 341.5 c 128,-1,52
 535 379 535 379 514 379 c 0,53,54
 489 379 489 379 477.5 327.5 c 128,-1,55
 466 276 466 276 466 236 c 1,56,50
 494 244 494 244 514.5 274 c 128,-1,51
EndSplineSet
EndChar

StartChar: ccedilla
Encoding: 231 231 169
Width: 415
GlyphClass: 2
Flags: W
LayerCount: 2
Fore
SplineSet
282 376 m 0,0,1
 251 376 251 376 229 321 c 128,-1,2
 207 266 207 266 207 210 c 0,3,4
 207 87 207 87 278 87 c 0,5,6
 323 87 323 87 380 130 c 1,7,-1
 412 86 l 1,8,9
 335 3 335 3 224 -10 c 1,10,11
 183 -57 183 -57 183 -95 c 0,12,13
 183 -113 183 -113 198 -113 c 0,14,15
 227 -113 227 -113 266 -90 c 1,16,-1
 294 -131 l 1,17,18
 273 -155 273 -155 228 -176.5 c 128,-1,19
 183 -198 183 -198 147.5 -198 c 128,-1,20
 112 -198 112 -198 90 -178.5 c 128,-1,21
 68 -159 68 -159 68 -127.5 c 128,-1,22
 68 -96 68 -96 93 -63.5 c 128,-1,23
 118 -31 118 -31 150 -7 c 1,24,25
 91 5 91 5 55.5 51.5 c 128,-1,26
 20 98 20 98 20 179 c 0,27,28
 20 295 20 295 91.5 369 c 128,-1,29
 163 443 163 443 279 443 c 0,30,31
 354 443 354 443 397 412.5 c 128,-1,32
 440 382 440 382 440 335.5 c 128,-1,33
 440 289 440 289 412 255 c 1,34,35
 379 255 379 255 340.5 267.5 c 128,-1,36
 302 280 302 280 279 299 c 1,37,-1
 294 374 l 1,38,39
 288 376 288 376 282 376 c 0,0,1
EndSplineSet
EndChar

StartChar: egrave
Encoding: 232 232 170
Width: 436
GlyphClass: 2
Flags: W
LayerCount: 2
Fore
SplineSet
20 177 m 0,0,1
 20 305 20 305 95.5 374 c 128,-1,2
 171 443 171 443 284 443 c 0,3,4
 359 443 359 443 405.5 409.5 c 128,-1,5
 452 376 452 376 452 321 c 0,6,7
 452 281 452 281 427 249 c 128,-1,8
 402 217 402 217 366 200 c 0,9,10
 294 166 294 166 234 158 c 1,11,-1
 209 154 l 1,12,13
 220 88 220 88 277 88 c 0,14,15
 299 88 299 88 327.5 98.5 c 128,-1,16
 356 109 356 109 374 120 c 2,17,-1
 391 130 l 1,18,-1
 423 87 l 1,19,20
 423 87 423 87 412 76 c 0,21,22
 406 70 406 70 383.5 52.5 c 128,-1,23
 361 35 361 35 336 22 c 0,24,25
 272 -12 272 -12 193 -12 c 128,-1,26
 114 -12 114 -12 67 37 c 128,-1,27
 20 86 20 86 20 177 c 0,0,1
292 347 m 0,28,29
 292 370 292 370 274 370 c 0,30,31
 250 370 250 370 229 330.5 c 128,-1,32
 208 291 208 291 205 220 c 1,33,34
 234 224 234 224 263 267.5 c 128,-1,35
 292 311 292 311 292 347 c 0,28,29
183 696 m 0,36,37
 229 696 229 696 442 547 c 1,38,-1
 416 499 l 1,39,40
 270 551 270 551 107 590 c 1,41,42
 143 696 143 696 183 696 c 0,36,37
EndSplineSet
EndChar

StartChar: eacute
Encoding: 233 233 171
Width: 437
GlyphClass: 2
Flags: W
LayerCount: 2
Fore
SplineSet
20 177 m 0,0,1
 20 305 20 305 95.5 374 c 128,-1,2
 171 443 171 443 284 443 c 0,3,4
 359 443 359 443 405.5 409.5 c 128,-1,5
 452 376 452 376 452 321 c 0,6,7
 452 281 452 281 427 249 c 128,-1,8
 402 217 402 217 366 200 c 0,9,10
 294 166 294 166 234 158 c 1,11,-1
 209 154 l 1,12,13
 220 88 220 88 277 88 c 0,14,15
 299 88 299 88 327.5 98.5 c 128,-1,16
 356 109 356 109 374 120 c 2,17,-1
 391 130 l 1,18,-1
 423 87 l 1,19,20
 423 87 423 87 412 76 c 0,21,22
 406 70 406 70 383.5 52.5 c 128,-1,23
 361 35 361 35 336 22 c 0,24,25
 272 -12 272 -12 193 -12 c 128,-1,26
 114 -12 114 -12 67 37 c 128,-1,27
 20 86 20 86 20 177 c 0,0,1
292 347 m 0,28,29
 292 370 292 370 274 370 c 0,30,31
 250 370 250 370 229 330.5 c 128,-1,32
 208 291 208 291 205 220 c 1,33,34
 234 224 234 224 263 267.5 c 128,-1,35
 292 311 292 311 292 347 c 0,28,29
453 614 m 0,36,37
 453 579 453 579 416 563 c 1,38,39
 360 537 360 537 156 501 c 1,40,-1
 139 551 l 1,41,42
 262 611 262 611 413 707 c 1,43,44
 424 692 424 692 438.5 660 c 128,-1,45
 453 628 453 628 453 614 c 0,36,37
EndSplineSet
EndChar

StartChar: ecircumflex
Encoding: 234 234 172
Width: 437
GlyphClass: 2
Flags: W
LayerCount: 2
Fore
SplineSet
20 177 m 0,0,1
 20 305 20 305 95.5 374 c 128,-1,2
 171 443 171 443 284 443 c 0,3,4
 359 443 359 443 405.5 409.5 c 128,-1,5
 452 376 452 376 452 321 c 0,6,7
 452 281 452 281 427 249 c 128,-1,8
 402 217 402 217 366 200 c 0,9,10
 294 166 294 166 234 158 c 1,11,-1
 209 154 l 1,12,13
 220 88 220 88 277 88 c 0,14,15
 299 88 299 88 327.5 98.5 c 128,-1,16
 356 109 356 109 374 120 c 2,17,-1
 391 130 l 1,18,-1
 423 87 l 1,19,20
 423 87 423 87 412 76 c 0,21,22
 406 70 406 70 383.5 52.5 c 128,-1,23
 361 35 361 35 336 22 c 0,24,25
 272 -12 272 -12 193 -12 c 128,-1,26
 114 -12 114 -12 67 37 c 128,-1,27
 20 86 20 86 20 177 c 0,0,1
292 347 m 0,28,29
 292 370 292 370 274 370 c 0,30,31
 250 370 250 370 229 330.5 c 128,-1,32
 208 291 208 291 205 220 c 1,33,34
 234 224 234 224 263 267.5 c 128,-1,35
 292 311 292 311 292 347 c 0,28,29
227.5 652.5 m 128,-1,37
 310 704 310 704 343.5 704 c 128,-1,38
 377 704 377 704 422 644 c 128,-1,39
 467 584 467 584 489 539 c 1,40,-1
 447 503 l 1,41,42
 357 562 357 562 308 583 c 1,43,44
 230 560 230 560 118 501 c 1,45,-1
 86 548 l 1,46,36
 145 601 145 601 227.5 652.5 c 128,-1,37
EndSplineSet
EndChar

StartChar: edieresis
Encoding: 235 235 173
Width: 437
GlyphClass: 2
Flags: W
LayerCount: 2
Fore
SplineSet
20 177 m 0,0,1
 20 305 20 305 95.5 374 c 128,-1,2
 171 443 171 443 284 443 c 0,3,4
 359 443 359 443 405.5 409.5 c 128,-1,5
 452 376 452 376 452 321 c 0,6,7
 452 281 452 281 427 249 c 128,-1,8
 402 217 402 217 366 200 c 0,9,10
 294 166 294 166 234 158 c 1,11,-1
 209 154 l 1,12,13
 220 88 220 88 277 88 c 0,14,15
 299 88 299 88 327.5 98.5 c 128,-1,16
 356 109 356 109 374 120 c 2,17,-1
 391 130 l 1,18,-1
 423 87 l 1,19,20
 423 87 423 87 412 76 c 0,21,22
 406 70 406 70 383.5 52.5 c 128,-1,23
 361 35 361 35 336 22 c 0,24,25
 272 -12 272 -12 193 -12 c 128,-1,26
 114 -12 114 -12 67 37 c 128,-1,27
 20 86 20 86 20 177 c 0,0,1
292 347 m 0,28,29
 292 370 292 370 274 370 c 0,30,31
 250 370 250 370 229 330.5 c 128,-1,32
 208 291 208 291 205 220 c 1,33,34
 234 224 234 224 263 267.5 c 128,-1,35
 292 311 292 311 292 347 c 0,28,29
121 550 m 128,-1,37
 100 570 100 570 100 601.5 c 128,-1,38
 100 633 100 633 126 654.5 c 128,-1,39
 152 676 152 676 189 676 c 128,-1,40
 226 676 226 676 246.5 658.5 c 128,-1,41
 267 641 267 641 267 609 c 128,-1,42
 267 577 267 577 241.5 553.5 c 128,-1,43
 216 530 216 530 179 530 c 128,-1,36
 142 530 142 530 121 550 c 128,-1,37
332 550 m 128,-1,45
 311 570 311 570 311 601.5 c 128,-1,46
 311 633 311 633 337 654.5 c 128,-1,47
 363 676 363 676 400 676 c 128,-1,48
 437 676 437 676 457.5 658.5 c 128,-1,49
 478 641 478 641 478 609 c 128,-1,50
 478 577 478 577 452.5 553.5 c 128,-1,51
 427 530 427 530 390 530 c 128,-1,44
 353 530 353 530 332 550 c 128,-1,45
EndSplineSet
EndChar

StartChar: igrave
Encoding: 236 236 174
Width: 300
GlyphClass: 2
Flags: W
LayerCount: 2
Fore
SplineSet
115 695 m 0,0,1
 135 695 135 695 179 669 c 128,-1,2
 223 643 223 643 257 617.5 c 128,-1,3
 291 592 291 592 350 546 c 1,4,-1
 324 498 l 1,5,6
 138 570 138 570 39 593 c 1,7,8
 74 695 74 695 115 695 c 0,0,1
244 238.5 m 128,-1,10
 219 146 219 146 219 118 c 128,-1,11
 219 90 219 90 230 90 c 128,-1,12
 241 90 241 90 270 100 c 1,13,-1
 279 104 l 1,14,-1
 297 54 l 1,15,16
 263 28 263 28 212.5 8 c 128,-1,17
 162 -12 162 -12 121 -12 c 128,-1,18
 80 -12 80 -12 56.5 11 c 128,-1,19
 33 34 33 34 33 77.5 c 128,-1,20
 33 121 33 121 57.5 210.5 c 128,-1,21
 82 300 82 300 82 324 c 0,22,23
 82 361 82 361 56 394 c 1,24,-1
 48 405 l 1,25,-1
 51 422 l 1,26,27
 103 438 103 438 253 438 c 1,28,29
 269 420 269 420 269 375.5 c 128,-1,9
 269 331 269 331 244 238.5 c 128,-1,10
EndSplineSet
EndChar

StartChar: iacute
Encoding: 237 237 175
Width: 300
GlyphClass: 2
Flags: W
LayerCount: 2
Fore
SplineSet
357 616 m 0,0,1
 357 582 357 582 320 566 c 0,2,3
 292 554 292 554 216 534 c 128,-1,4
 140 514 140 514 78 504 c 1,5,-1
 61 554 l 1,6,7
 196 624 196 624 317 704 c 1,8,9
 328 688 328 688 342.5 658.5 c 128,-1,10
 357 629 357 629 357 616 c 0,0,1
244 238.5 m 128,-1,12
 219 146 219 146 219 118 c 128,-1,13
 219 90 219 90 230 90 c 128,-1,14
 241 90 241 90 270 100 c 1,15,-1
 279 104 l 1,16,-1
 297 54 l 1,17,18
 263 28 263 28 212.5 8 c 128,-1,19
 162 -12 162 -12 121 -12 c 128,-1,20
 80 -12 80 -12 56.5 11 c 128,-1,21
 33 34 33 34 33 77.5 c 128,-1,22
 33 121 33 121 57.5 210.5 c 128,-1,23
 82 300 82 300 82 324 c 0,24,25
 82 361 82 361 56 394 c 1,26,-1
 48 405 l 1,27,-1
 51 422 l 1,28,29
 103 438 103 438 253 438 c 1,30,31
 269 420 269 420 269 375.5 c 128,-1,11
 269 331 269 331 244 238.5 c 128,-1,12
EndSplineSet
EndChar

StartChar: icircumflex
Encoding: 238 238 176
Width: 300
GlyphClass: 2
Flags: W
LayerCount: 2
Fore
SplineSet
241 704 m 0,0,1
 263 704 263 704 306 642 c 128,-1,2
 349 580 349 580 368 539 c 1,3,-1
 326 503 l 1,4,5
 234 569 234 569 204 583 c 1,6,7
 143 563 143 563 36 501 c 1,8,-1
 4 548 l 1,9,10
 60 603 60 603 133.5 653.5 c 128,-1,11
 207 704 207 704 241 704 c 0,0,1
244 238.5 m 128,-1,13
 219 146 219 146 219 118 c 128,-1,14
 219 90 219 90 230 90 c 128,-1,15
 241 90 241 90 270 100 c 1,16,-1
 279 104 l 1,17,-1
 297 54 l 1,18,19
 263 28 263 28 212.5 8 c 128,-1,20
 162 -12 162 -12 121 -12 c 128,-1,21
 80 -12 80 -12 56.5 11 c 128,-1,22
 33 34 33 34 33 77.5 c 128,-1,23
 33 121 33 121 57.5 210.5 c 128,-1,24
 82 300 82 300 82 324 c 0,25,26
 82 361 82 361 56 394 c 1,27,-1
 48 405 l 1,28,-1
 51 422 l 1,29,30
 103 438 103 438 253 438 c 1,31,32
 269 420 269 420 269 375.5 c 128,-1,12
 269 331 269 331 244 238.5 c 128,-1,13
EndSplineSet
EndChar

StartChar: idieresis
Encoding: 239 239 177
Width: 300
GlyphClass: 2
Flags: W
LayerCount: 2
Fore
SplineSet
57 550 m 128,-1,1
 38 570 38 570 38 601.5 c 128,-1,2
 38 633 38 633 62 654.5 c 128,-1,3
 86 676 86 676 119.5 676 c 128,-1,4
 153 676 153 676 171.5 658.5 c 128,-1,5
 190 641 190 641 190 609 c 128,-1,6
 190 577 190 577 167 553.5 c 128,-1,7
 144 530 144 530 110 530 c 128,-1,0
 76 530 76 530 57 550 c 128,-1,1
242 550 m 128,-1,9
 223 570 223 570 223 601.5 c 128,-1,10
 223 633 223 633 247 654.5 c 128,-1,11
 271 676 271 676 304.5 676 c 128,-1,12
 338 676 338 676 356.5 658.5 c 128,-1,13
 375 641 375 641 375 609 c 128,-1,14
 375 577 375 577 351.5 553.5 c 128,-1,15
 328 530 328 530 294.5 530 c 128,-1,8
 261 530 261 530 242 550 c 128,-1,9
244 238.5 m 128,-1,17
 219 146 219 146 219 118 c 128,-1,18
 219 90 219 90 230 90 c 128,-1,19
 241 90 241 90 270 100 c 1,20,-1
 279 104 l 1,21,-1
 297 54 l 1,22,23
 263 28 263 28 212.5 8 c 128,-1,24
 162 -12 162 -12 121 -12 c 128,-1,25
 80 -12 80 -12 56.5 11 c 128,-1,26
 33 34 33 34 33 77.5 c 128,-1,27
 33 121 33 121 57.5 210.5 c 128,-1,28
 82 300 82 300 82 324 c 0,29,30
 82 361 82 361 56 394 c 1,31,-1
 48 405 l 1,32,-1
 51 422 l 1,33,34
 103 438 103 438 253 438 c 1,35,36
 269 420 269 420 269 375.5 c 128,-1,16
 269 331 269 331 244 238.5 c 128,-1,17
EndSplineSet
EndChar

StartChar: eth
Encoding: 240 240 178
Width: 490
GlyphClass: 2
Flags: W
LayerCount: 2
Fore
SplineSet
497 301 m 0,0,1
 497 129 497 129 379 37 c 0,2,3
 316 -12 316 -12 221.5 -12 c 128,-1,4
 127 -12 127 -12 73 46.5 c 128,-1,5
 19 105 19 105 19 196 c 128,-1,6
 19 287 19 287 84.5 365 c 128,-1,7
 150 443 150 443 253 443 c 0,8,9
 276 443 276 443 295 439 c 1,10,11
 285 495 285 495 268 535 c 1,12,-1
 151 500 l 1,13,14
 143 508 143 508 136 530 c 128,-1,15
 129 552 129 552 129 568 c 1,16,-1
 236 599 l 1,17,18
 204 650 204 650 151 694 c 1,19,-1
 178 734 l 1,20,21
 274 706 274 706 352 634 c 1,22,-1
 480 672 l 1,23,24
 485 665 485 665 490.5 639 c 128,-1,25
 496 613 496 613 496 604 c 1,26,-1
 404 576 l 1,27,28
 497 450 497 450 497 301 c 0,0,1
306 298 m 0,29,30
 306 321 306 321 304 367 c 1,31,-1
 298 367 l 2,32,33
 266 367 266 367 242 336 c 0,34,35
 197 276 197 276 197 166 c 0,36,37
 197 125 197 125 207.5 95 c 128,-1,38
 218 65 218 65 237 65 c 0,39,40
 271 65 271 65 288.5 134.5 c 128,-1,41
 306 204 306 204 306 298 c 0,29,30
EndSplineSet
EndChar

StartChar: ntilde
Encoding: 241 241 179
Width: 554
GlyphClass: 2
Flags: W
LayerCount: 2
Fore
SplineSet
433 522 m 0,0,1
 412 522 412 522 346 538 c 128,-1,2
 280 554 280 554 258.5 554 c 128,-1,3
 237 554 237 554 223 544.5 c 128,-1,4
 209 535 209 535 195 509 c 1,5,-1
 143 521 l 1,6,7
 157 672 157 672 259 672 c 0,8,9
 281 672 281 672 346.5 656 c 128,-1,10
 412 640 412 640 435 640 c 128,-1,11
 458 640 458 640 469.5 647.5 c 128,-1,12
 481 655 481 655 493 677 c 1,13,-1
 543 667 l 1,14,15
 529 522 529 522 433 522 c 0,0,1
52 -6 m 2,16,-1
 35 -6 l 1,17,18
 35 56 35 56 63.5 182 c 128,-1,19
 92 308 92 308 92 327 c 128,-1,20
 92 346 92 346 83 364 c 128,-1,21
 74 382 74 382 65 391 c 2,22,-1
 56 400 l 1,23,-1
 58 415 l 1,24,25
 117 434 117 434 264 434 c 1,26,27
 274 411 274 411 278 386 c 1,28,29
 369 442 369 442 431 442 c 0,30,31
 473 442 473 442 497 414.5 c 128,-1,32
 521 387 521 387 521 348.5 c 128,-1,33
 521 310 521 310 499 225 c 128,-1,34
 477 140 477 140 477 114.5 c 128,-1,35
 477 89 477 89 484 89 c 1,36,-1
 537 103 l 1,37,-1
 555 53 l 1,38,39
 523 29 523 29 471.5 8.5 c 128,-1,40
 420 -12 420 -12 377 -12 c 0,41,42
 292 -12 292 -12 292 76 c 0,43,44
 292 114 292 114 313 200 c 128,-1,45
 334 286 334 286 334 307.5 c 128,-1,46
 334 329 334 329 320 329 c 0,47,48
 302 329 302 329 272 309 c 1,49,50
 268 291 268 291 252 222 c 0,51,52
 220 77 220 77 220 13 c 1,53,54
 171 -6 171 -6 52 -6 c 2,16,-1
EndSplineSet
EndChar

StartChar: ograve
Encoding: 242 242 180
Width: 446
GlyphClass: 2
Flags: W
LayerCount: 2
Fore
SplineSet
204 696 m 0,0,1
 250 696 250 696 463 547 c 1,2,-1
 437 499 l 1,3,4
 291 551 291 551 128 590 c 1,5,6
 164 696 164 696 204 696 c 0,0,1
188 -12 m 0,7,8
 110 -12 110 -12 65 37.5 c 128,-1,9
 20 87 20 87 20 177 c 0,10,11
 20 287 20 287 85 363.5 c 128,-1,12
 150 440 150 440 256 440 c 1,13,-1
 301 436 l 1,14,15
 325 443 325 443 346 443 c 0,16,17
 396 443 396 443 417.5 409 c 128,-1,18
 439 375 439 375 442 312 c 1,19,20
 484 314 484 314 522 325 c 2,21,-1
 536 329 l 1,22,23
 543 322 543 322 546 287 c 2,24,-1
 547 276 l 1,25,26
 502 253 502 253 437 240 c 1,27,28
 415 134 415 134 350 61 c 128,-1,29
 285 -12 285 -12 188 -12 c 0,7,8
208 181 m 0,30,31
 208 88 208 88 255 88 c 0,32,33
 288 88 288 88 322.5 130 c 128,-1,34
 357 172 357 172 370 232 c 1,35,36
 268 232 268 232 268 330 c 0,37,38
 268 347 268 347 271 365 c 1,39,40
 261 365 261 365 256 362 c 1,41,42
 239 344 239 344 223.5 289.5 c 128,-1,43
 208 235 208 235 208 181 c 0,30,31
EndSplineSet
EndChar

StartChar: oacute
Encoding: 243 243 181
Width: 446
GlyphClass: 2
Flags: W
LayerCount: 2
Fore
SplineSet
467 614 m 0,0,1
 467 579 467 579 430 563 c 1,2,3
 374 537 374 537 170 501 c 1,4,-1
 153 551 l 1,5,6
 276 611 276 611 427 707 c 1,7,8
 438 692 438 692 452.5 660 c 128,-1,9
 467 628 467 628 467 614 c 0,0,1
188 -12 m 0,10,11
 110 -12 110 -12 65 37.5 c 128,-1,12
 20 87 20 87 20 177 c 0,13,14
 20 287 20 287 85 363.5 c 128,-1,15
 150 440 150 440 256 440 c 1,16,-1
 301 436 l 1,17,18
 325 443 325 443 346 443 c 0,19,20
 396 443 396 443 417.5 409 c 128,-1,21
 439 375 439 375 442 312 c 1,22,23
 484 314 484 314 522 325 c 2,24,-1
 536 329 l 1,25,26
 543 322 543 322 546 287 c 2,27,-1
 547 276 l 1,28,29
 502 253 502 253 437 240 c 1,30,31
 415 134 415 134 350 61 c 128,-1,32
 285 -12 285 -12 188 -12 c 0,10,11
208 181 m 0,33,34
 208 88 208 88 255 88 c 0,35,36
 288 88 288 88 322.5 130 c 128,-1,37
 357 172 357 172 370 232 c 1,38,39
 268 232 268 232 268 330 c 0,40,41
 268 347 268 347 271 365 c 1,42,43
 261 365 261 365 256 362 c 1,44,45
 239 344 239 344 223.5 289.5 c 128,-1,46
 208 235 208 235 208 181 c 0,33,34
EndSplineSet
EndChar

StartChar: ocircumflex
Encoding: 244 244 182
Width: 446
GlyphClass: 2
Flags: W
LayerCount: 2
Fore
SplineSet
226.5 652.5 m 128,-1,1
 309 704 309 704 342.5 704 c 128,-1,2
 376 704 376 704 421 644 c 128,-1,3
 466 584 466 584 488 539 c 1,4,-1
 446 503 l 1,5,6
 356 562 356 562 307 583 c 1,7,8
 229 560 229 560 117 501 c 1,9,-1
 85 548 l 1,10,0
 144 601 144 601 226.5 652.5 c 128,-1,1
188 -12 m 0,11,12
 110 -12 110 -12 65 37.5 c 128,-1,13
 20 87 20 87 20 177 c 0,14,15
 20 287 20 287 85 363.5 c 128,-1,16
 150 440 150 440 256 440 c 1,17,-1
 301 436 l 1,18,19
 325 443 325 443 346 443 c 0,20,21
 396 443 396 443 417.5 409 c 128,-1,22
 439 375 439 375 442 312 c 1,23,24
 484 314 484 314 522 325 c 2,25,-1
 536 329 l 1,26,27
 543 322 543 322 546 287 c 2,28,-1
 547 276 l 1,29,30
 502 253 502 253 437 240 c 1,31,32
 415 134 415 134 350 61 c 128,-1,33
 285 -12 285 -12 188 -12 c 0,11,12
208 181 m 0,34,35
 208 88 208 88 255 88 c 0,36,37
 288 88 288 88 322.5 130 c 128,-1,38
 357 172 357 172 370 232 c 1,39,40
 268 232 268 232 268 330 c 0,41,42
 268 347 268 347 271 365 c 1,43,44
 261 365 261 365 256 362 c 1,45,46
 239 344 239 344 223.5 289.5 c 128,-1,47
 208 235 208 235 208 181 c 0,34,35
EndSplineSet
EndChar

StartChar: otilde
Encoding: 245 245 183
Width: 446
GlyphClass: 2
Flags: W
LayerCount: 2
Fore
SplineSet
372 528 m 0,0,1
 351 528 351 528 285 544 c 128,-1,2
 219 560 219 560 197.5 560 c 128,-1,3
 176 560 176 560 162 550.5 c 128,-1,4
 148 541 148 541 134 515 c 1,5,-1
 82 527 l 1,6,7
 96 678 96 678 198 678 c 0,8,9
 220 678 220 678 285.5 662 c 128,-1,10
 351 646 351 646 374 646 c 128,-1,11
 397 646 397 646 408.5 653.5 c 128,-1,12
 420 661 420 661 432 683 c 1,13,-1
 482 673 l 1,14,15
 468 528 468 528 372 528 c 0,0,1
188 -12 m 0,16,17
 110 -12 110 -12 65 37.5 c 128,-1,18
 20 87 20 87 20 177 c 0,19,20
 20 287 20 287 85 363.5 c 128,-1,21
 150 440 150 440 256 440 c 1,22,-1
 301 436 l 1,23,24
 325 443 325 443 346 443 c 0,25,26
 396 443 396 443 417.5 409 c 128,-1,27
 439 375 439 375 442 312 c 1,28,29
 484 314 484 314 522 325 c 2,30,-1
 536 329 l 1,31,32
 543 322 543 322 546 287 c 2,33,-1
 547 276 l 1,34,35
 502 253 502 253 437 240 c 1,36,37
 415 134 415 134 350 61 c 128,-1,38
 285 -12 285 -12 188 -12 c 0,16,17
208 181 m 0,39,40
 208 88 208 88 255 88 c 0,41,42
 288 88 288 88 322.5 130 c 128,-1,43
 357 172 357 172 370 232 c 1,44,45
 268 232 268 232 268 330 c 0,46,47
 268 347 268 347 271 365 c 1,48,49
 261 365 261 365 256 362 c 1,50,51
 239 344 239 344 223.5 289.5 c 128,-1,52
 208 235 208 235 208 181 c 0,39,40
EndSplineSet
EndChar

StartChar: odieresis
Encoding: 246 246 184
Width: 446
GlyphClass: 2
Flags: W
LayerCount: 2
Fore
SplineSet
120 550 m 128,-1,1
 99 570 99 570 99 601.5 c 128,-1,2
 99 633 99 633 125 654.5 c 128,-1,3
 151 676 151 676 188 676 c 128,-1,4
 225 676 225 676 245.5 658.5 c 128,-1,5
 266 641 266 641 266 609 c 128,-1,6
 266 577 266 577 240.5 553.5 c 128,-1,7
 215 530 215 530 178 530 c 128,-1,0
 141 530 141 530 120 550 c 128,-1,1
331 550 m 128,-1,9
 310 570 310 570 310 601.5 c 128,-1,10
 310 633 310 633 336 654.5 c 128,-1,11
 362 676 362 676 399 676 c 128,-1,12
 436 676 436 676 456.5 658.5 c 128,-1,13
 477 641 477 641 477 609 c 128,-1,14
 477 577 477 577 451.5 553.5 c 128,-1,15
 426 530 426 530 389 530 c 128,-1,8
 352 530 352 530 331 550 c 128,-1,9
188 -12 m 0,16,17
 110 -12 110 -12 65 37.5 c 128,-1,18
 20 87 20 87 20 177 c 0,19,20
 20 287 20 287 85 363.5 c 128,-1,21
 150 440 150 440 256 440 c 1,22,-1
 301 436 l 1,23,24
 325 443 325 443 346 443 c 0,25,26
 396 443 396 443 417.5 409 c 128,-1,27
 439 375 439 375 442 312 c 1,28,29
 484 314 484 314 522 325 c 2,30,-1
 536 329 l 1,31,32
 543 322 543 322 546 287 c 2,33,-1
 547 276 l 1,34,35
 502 253 502 253 437 240 c 1,36,37
 415 134 415 134 350 61 c 128,-1,38
 285 -12 285 -12 188 -12 c 0,16,17
208 181 m 0,39,40
 208 88 208 88 255 88 c 0,41,42
 288 88 288 88 322.5 130 c 128,-1,43
 357 172 357 172 370 232 c 1,44,45
 268 232 268 232 268 330 c 0,46,47
 268 347 268 347 271 365 c 1,48,49
 261 365 261 365 256 362 c 1,50,51
 239 344 239 344 223.5 289.5 c 128,-1,52
 208 235 208 235 208 181 c 0,39,40
EndSplineSet
EndChar

StartChar: divide
Encoding: 247 247 185
Width: 546
GlyphClass: 2
Flags: W
LayerCount: 2
Fore
SplineSet
67 232 m 1,0,1
 67 292 67 292 76 324 c 1,2,-1
 487 324 l 1,3,4
 487 252 487 252 481 232 c 1,5,-1
 67 232 l 1,0,1
207 44.5 m 128,-1,7
 190 62 190 62 190 91 c 128,-1,8
 190 120 190 120 213 140.5 c 128,-1,9
 236 161 236 161 268 161 c 128,-1,10
 300 161 300 161 316.5 144 c 128,-1,11
 333 127 333 127 333 99 c 128,-1,12
 333 71 333 71 310 49 c 128,-1,13
 287 27 287 27 255.5 27 c 128,-1,6
 224 27 224 27 207 44.5 c 128,-1,7
224 408.5 m 128,-1,15
 207 426 207 426 207 455 c 128,-1,16
 207 484 207 484 230 504.5 c 128,-1,17
 253 525 253 525 285 525 c 128,-1,18
 317 525 317 525 333.5 508 c 128,-1,19
 350 491 350 491 350 463 c 128,-1,20
 350 435 350 435 327 413 c 128,-1,21
 304 391 304 391 272.5 391 c 128,-1,14
 241 391 241 391 224 408.5 c 128,-1,15
EndSplineSet
EndChar

StartChar: oslash
Encoding: 248 248 186
Width: 444
GlyphClass: 2
Flags: W
LayerCount: 2
Fore
SplineSet
275 443 m 2,0,-1
 282 443 l 1,1,2
 293 485 293 485 305 530 c 1,3,4
 308 530 308 530 311 530 c 0,5,6
 346 530 346 530 393 500 c 1,7,-1
 366 421 l 1,8,9
 435 383 435 383 435 286 c 0,10,11
 435 235 435 235 413.5 178.5 c 128,-1,12
 392 122 392 122 347 72.5 c 128,-1,13
 302 23 302 23 246 6 c 1,14,15
 229 -56 229 -56 223 -82 c 1,16,17
 219 -82 219 -82 205 -82 c 128,-1,18
 191 -82 191 -82 152 -72 c 1,19,-1
 133 -65 l 1,20,-1
 155 1 l 1,21,22
 93 12 93 12 56.5 58 c 128,-1,23
 20 104 20 104 20 178 c 0,24,25
 20 287 20 287 87.5 365 c 128,-1,26
 155 443 155 443 275 443 c 2,0,-1
196.5 295.5 m 128,-1,28
 171 226 171 226 171 173 c 128,-1,29
 171 120 171 120 188 101 c 1,30,31
 221 204 221 204 267 383 c 1,32,27
 222 365 222 365 196.5 295.5 c 128,-1,28
331.5 184 m 128,-1,34
 355 241 355 241 355 283 c 128,-1,35
 355 325 355 325 343 351 c 1,36,37
 305 236 305 236 270 102 c 1,38,33
 308 127 308 127 331.5 184 c 128,-1,34
EndSplineSet
EndChar

StartChar: ugrave
Encoding: 249 249 187
Width: 542
GlyphClass: 2
Flags: W
LayerCount: 2
Fore
SplineSet
239 696 m 0,0,1
 285 696 285 696 498 547 c 1,2,-1
 472 499 l 1,3,4
 326 551 326 551 163 590 c 1,5,6
 199 696 199 696 239 696 c 0,0,1
61.5 219 m 128,-1,8
 88 315 88 315 88 337 c 128,-1,9
 88 359 88 359 52 401 c 1,10,-1
 54 416 l 1,11,12
 145 436 145 436 267 436 c 1,13,14
 275 419 275 419 275 382 c 128,-1,15
 275 345 275 345 247.5 242 c 128,-1,16
 220 139 220 139 220 120 c 0,17,18
 220 94 220 94 245 94 c 0,19,20
 262 94 262 94 288 107 c 1,21,22
 291 123 291 123 306 191 c 0,23,24
 341 342 341 342 341 417 c 1,25,26
 387 437 387 437 498 437 c 2,27,-1
 525 437 l 1,28,29
 525 392 525 392 498.5 261 c 128,-1,30
 472 130 472 130 471.5 110 c 128,-1,31
 471 90 471 90 480 90 c 1,32,-1
 529 103 l 1,33,-1
 547 53 l 1,34,35
 518 30 518 30 463 9 c 128,-1,36
 408 -12 408 -12 366 -12 c 0,37,38
 304 -12 304 -12 289 38 c 1,39,40
 206 -12 206 -12 130 -12 c 0,41,42
 35 -12 35 -12 35 81 c 0,43,7
 35 123 35 123 61.5 219 c 128,-1,8
EndSplineSet
EndChar

StartChar: uacute
Encoding: 250 250 188
Width: 542
GlyphClass: 2
Flags: W
LayerCount: 2
Fore
SplineSet
516 614 m 0,0,1
 516 579 516 579 479 563 c 1,2,3
 423 537 423 537 219 501 c 1,4,-1
 202 551 l 1,5,6
 325 611 325 611 476 707 c 1,7,8
 487 692 487 692 501.5 660 c 128,-1,9
 516 628 516 628 516 614 c 0,0,1
61.5 219 m 128,-1,11
 88 315 88 315 88 337 c 128,-1,12
 88 359 88 359 52 401 c 1,13,-1
 54 416 l 1,14,15
 145 436 145 436 267 436 c 1,16,17
 275 419 275 419 275 382 c 128,-1,18
 275 345 275 345 247.5 242 c 128,-1,19
 220 139 220 139 220 120 c 0,20,21
 220 94 220 94 245 94 c 0,22,23
 262 94 262 94 288 107 c 1,24,25
 291 123 291 123 306 191 c 0,26,27
 341 342 341 342 341 417 c 1,28,29
 387 437 387 437 498 437 c 2,30,-1
 525 437 l 1,31,32
 525 392 525 392 498.5 261 c 128,-1,33
 472 130 472 130 471.5 110 c 128,-1,34
 471 90 471 90 480 90 c 1,35,-1
 529 103 l 1,36,-1
 547 53 l 1,37,38
 518 30 518 30 463 9 c 128,-1,39
 408 -12 408 -12 366 -12 c 0,40,41
 304 -12 304 -12 289 38 c 1,42,43
 206 -12 206 -12 130 -12 c 0,44,45
 35 -12 35 -12 35 81 c 0,46,10
 35 123 35 123 61.5 219 c 128,-1,11
EndSplineSet
EndChar

StartChar: ucircumflex
Encoding: 251 251 189
Width: 542
GlyphClass: 2
Flags: W
LayerCount: 2
Fore
SplineSet
275.5 652.5 m 128,-1,1
 358 704 358 704 391.5 704 c 128,-1,2
 425 704 425 704 470 644 c 128,-1,3
 515 584 515 584 537 539 c 1,4,-1
 495 503 l 1,5,6
 405 562 405 562 356 583 c 1,7,8
 278 560 278 560 166 501 c 1,9,-1
 134 548 l 1,10,0
 193 601 193 601 275.5 652.5 c 128,-1,1
61.5 219 m 128,-1,12
 88 315 88 315 88 337 c 128,-1,13
 88 359 88 359 52 401 c 1,14,-1
 54 416 l 1,15,16
 145 436 145 436 267 436 c 1,17,18
 275 419 275 419 275 382 c 128,-1,19
 275 345 275 345 247.5 242 c 128,-1,20
 220 139 220 139 220 120 c 0,21,22
 220 94 220 94 245 94 c 0,23,24
 262 94 262 94 288 107 c 1,25,26
 291 123 291 123 306 191 c 0,27,28
 341 342 341 342 341 417 c 1,29,30
 387 437 387 437 498 437 c 2,31,-1
 525 437 l 1,32,33
 525 392 525 392 498.5 261 c 128,-1,34
 472 130 472 130 471.5 110 c 128,-1,35
 471 90 471 90 480 90 c 1,36,-1
 529 103 l 1,37,-1
 547 53 l 1,38,39
 518 30 518 30 463 9 c 128,-1,40
 408 -12 408 -12 366 -12 c 0,41,42
 304 -12 304 -12 289 38 c 1,43,44
 206 -12 206 -12 130 -12 c 0,45,46
 35 -12 35 -12 35 81 c 0,47,11
 35 123 35 123 61.5 219 c 128,-1,12
EndSplineSet
EndChar

StartChar: udieresis
Encoding: 252 252 190
Width: 542
GlyphClass: 2
Flags: W
LayerCount: 2
Fore
SplineSet
389 550 m 128,-1,1
 368 570 368 570 368 601.5 c 128,-1,2
 368 633 368 633 394 654.5 c 128,-1,3
 420 676 420 676 457 676 c 128,-1,4
 494 676 494 676 514.5 658.5 c 128,-1,5
 535 641 535 641 535 609 c 128,-1,6
 535 577 535 577 509.5 553.5 c 128,-1,7
 484 530 484 530 447 530 c 128,-1,0
 410 530 410 530 389 550 c 128,-1,1
178 550 m 128,-1,9
 157 570 157 570 157 601.5 c 128,-1,10
 157 633 157 633 183 654.5 c 128,-1,11
 209 676 209 676 246 676 c 128,-1,12
 283 676 283 676 303.5 658.5 c 128,-1,13
 324 641 324 641 324 609 c 128,-1,14
 324 577 324 577 298.5 553.5 c 128,-1,15
 273 530 273 530 236 530 c 128,-1,8
 199 530 199 530 178 550 c 128,-1,9
61.5 219 m 128,-1,17
 88 315 88 315 88 337 c 128,-1,18
 88 359 88 359 52 401 c 1,19,-1
 54 416 l 1,20,21
 145 436 145 436 267 436 c 1,22,23
 275 419 275 419 275 382 c 128,-1,24
 275 345 275 345 247.5 242 c 128,-1,25
 220 139 220 139 220 120 c 0,26,27
 220 94 220 94 245 94 c 0,28,29
 262 94 262 94 288 107 c 1,30,31
 291 123 291 123 306 191 c 0,32,33
 341 342 341 342 341 417 c 1,34,35
 387 437 387 437 498 437 c 2,36,-1
 525 437 l 1,37,38
 525 392 525 392 498.5 261 c 128,-1,39
 472 130 472 130 471.5 110 c 128,-1,40
 471 90 471 90 480 90 c 1,41,-1
 529 103 l 1,42,-1
 547 53 l 1,43,44
 518 30 518 30 463 9 c 128,-1,45
 408 -12 408 -12 366 -12 c 0,46,47
 304 -12 304 -12 289 38 c 1,48,49
 206 -12 206 -12 130 -12 c 0,50,51
 35 -12 35 -12 35 81 c 0,52,16
 35 123 35 123 61.5 219 c 128,-1,17
EndSplineSet
EndChar

StartChar: yacute
Encoding: 253 253 191
Width: 505
GlyphClass: 2
Flags: W
LayerCount: 2
Fore
SplineSet
489 614 m 0,0,1
 489 579 489 579 452 563 c 1,2,3
 396 537 396 537 192 501 c 1,4,-1
 175 551 l 1,5,6
 298 611 298 611 449 707 c 1,7,8
 460 692 460 692 474.5 660 c 128,-1,9
 489 628 489 628 489 614 c 0,0,1
499 436 m 2,10,-1
 507 436 l 1,11,12
 502 410 502 410 490 324 c 0,13,14
 463 128 463 128 430 19.5 c 128,-1,15
 397 -89 397 -89 337 -156.5 c 128,-1,16
 277 -224 277 -224 177 -224 c 0,17,18
 134 -224 134 -224 102.5 -202.5 c 128,-1,19
 71 -181 71 -181 71 -147 c 128,-1,20
 71 -113 71 -113 87.5 -90 c 128,-1,21
 104 -67 104 -67 136 -52 c 0,22,23
 186 -27 186 -27 265 -9 c 1,24,25
 273 29 273 29 275 40 c 1,26,27
 197 -2 197 -2 125 -2 c 0,28,29
 77 -2 77 -2 54 23.5 c 128,-1,30
 31 49 31 49 31 87 c 128,-1,31
 31 125 31 125 53 221.5 c 128,-1,32
 75 318 75 318 75 355 c 128,-1,33
 75 392 75 392 70 410 c 1,34,35
 188 435 188 435 253 435 c 1,36,37
 261 421 261 421 261 386 c 128,-1,38
 261 351 261 351 238.5 249.5 c 128,-1,39
 216 148 216 148 216 130 c 0,40,41
 216 99 216 99 246 99 c 0,42,43
 263 99 263 99 285 108 c 1,44,45
 293 159 293 159 307.5 263.5 c 128,-1,46
 322 368 322 368 328 407 c 1,47,48
 354 419 354 419 406.5 427.5 c 128,-1,49
 459 436 459 436 499 436 c 2,10,-1
142 -127 m 1,50,51
 144 -150 144 -150 165.5 -150 c 128,-1,52
 187 -150 187 -150 211.5 -129 c 128,-1,53
 236 -108 236 -108 251 -69 c 1,54,55
 142 -88 142 -88 142 -127 c 1,50,51
EndSplineSet
EndChar

StartChar: thorn
Encoding: 254 254 192
Width: 483
GlyphClass: 2
Flags: W
LayerCount: 2
Fore
SplineSet
-27 -178 m 0,0,1
 -27 -104 -27 -104 42 231 c 128,-1,2
 111 566 111 566 111 662 c 0,3,4
 111 678 111 678 106 703 c 1,5,6
 205 734 205 734 292 734 c 1,7,8
 297 720 297 720 297 697 c 0,9,10
 297 614 297 614 255 419 c 1,11,12
 301 442 301 442 351 442 c 128,-1,13
 401 442 401 442 438.5 399.5 c 128,-1,14
 476 357 476 357 476 277 c 0,15,16
 476 151 476 151 423 69.5 c 128,-1,17
 370 -12 370 -12 269 -12 c 0,18,19
 217 -12 217 -12 171 6 c 1,20,21
 155 -103 155 -103 155 -194 c 1,22,23
 80 -219 80 -219 -21 -224 c 1,24,25
 -27 -212 -27 -212 -27 -178 c 0,0,1
217 75 m 0,26,27
 243 75 243 75 262 114 c 0,28,29
 296 184 296 184 296 286 c 0,30,31
 296 344 296 344 267 344 c 0,32,33
 255 344 255 344 237 338 c 1,34,35
 193 134 193 134 183 81 c 1,36,37
 205 75 205 75 217 75 c 0,26,27
EndSplineSet
EndChar

